G04*
G04 #@! TF.GenerationSoftware,Altium Limited,Altium Designer,20.0.2 (26)*
G04*
G04 Layer_Color=16711935*
%FSLAX25Y25*%
%MOIN*%
G70*
G01*
G75*
%ADD10C,0.01000*%
%ADD11C,0.00394*%
%ADD12C,0.00197*%
%ADD13C,0.00100*%
%ADD14C,0.00800*%
D10*
X237402Y455512D02*
G03*
X237402Y455512I-5118J0D01*
G01*
X213779Y174409D02*
G03*
X213779Y174409I-5118J0D01*
G01*
X387008D02*
G03*
X387008Y174409I-5118J0D01*
G01*
X213779Y455512D02*
G03*
X213779Y455512I-5118J0D01*
G01*
X237402Y174409D02*
G03*
X237402Y174409I-5118J0D01*
G01*
X387008Y455512D02*
G03*
X387008Y455512I-5118J0D01*
G01*
X511811Y500000D02*
G03*
X500000Y511811I-11811J0D01*
G01*
X129921D02*
G03*
X118110Y500000I0J-11811D01*
G01*
Y129921D02*
G03*
X129921Y118110I11811J0D01*
G01*
X500000D02*
G03*
X511811Y129921I0J11811D01*
G01*
X129921Y511811D02*
X500000D01*
X118110Y129921D02*
Y500000D01*
X129921Y118110D02*
X500000D01*
X511811Y129921D02*
Y500000D01*
X237402Y455512D02*
G03*
X237402Y455512I-5118J0D01*
G01*
X213779Y174409D02*
G03*
X213779Y174409I-5118J0D01*
G01*
X387008D02*
G03*
X387008Y174409I-5118J0D01*
G01*
X213779Y455512D02*
G03*
X213779Y455512I-5118J0D01*
G01*
X237402Y174409D02*
G03*
X237402Y174409I-5118J0D01*
G01*
X387008Y455512D02*
G03*
X387008Y455512I-5118J0D01*
G01*
X511811Y500000D02*
G03*
X500000Y511811I-11811J0D01*
G01*
X129921D02*
G03*
X118110Y500000I0J-11811D01*
G01*
Y129921D02*
G03*
X129921Y118110I11811J0D01*
G01*
X500000D02*
G03*
X511811Y129921I0J11811D01*
G01*
X129921Y511811D02*
X500000D01*
X118110Y129921D02*
Y500000D01*
X129921Y118110D02*
X500000D01*
X511811Y129921D02*
Y500000D01*
D11*
X446850Y324409D02*
G03*
X446850Y324409I-1969J0D01*
G01*
X471063Y407480D02*
Y419291D01*
X465945Y407480D02*
Y419291D01*
Y407480D02*
X471063D01*
X465945Y419291D02*
X471063D01*
X466114Y179134D02*
X471232D01*
X466114Y167323D02*
X471232D01*
X466114D02*
Y179134D01*
X471232Y167323D02*
Y179134D01*
X447638Y404291D02*
X448819Y405472D01*
X447244Y405079D02*
X448425Y406260D01*
X444882Y403504D02*
Y406653D01*
X443307Y404291D02*
X446457D01*
X443307Y405866D02*
X444882Y404291D01*
X446457Y405866D01*
X443307D02*
X446457D01*
X465945Y407480D02*
X471063D01*
X465945Y419291D02*
X471063D01*
X465945Y407480D02*
Y419291D01*
X471063Y407480D02*
Y419291D01*
X465945Y364173D02*
X471063D01*
X465945Y375984D02*
X471063D01*
X465945Y364173D02*
Y375984D01*
X471063Y364173D02*
Y375984D01*
X447638Y361417D02*
X448819Y362598D01*
X447244Y362205D02*
X448425Y363386D01*
X444882Y360630D02*
Y363779D01*
X443307Y361417D02*
X446457D01*
X443307Y362992D02*
X444882Y361417D01*
X446457Y362992D01*
X443307D02*
X446457D01*
X465945Y167323D02*
X471063D01*
X465945Y179134D02*
X471063D01*
X465945Y167323D02*
Y179134D01*
X471063Y167323D02*
Y179134D01*
X447638Y166142D02*
X448819Y167323D01*
X447244Y166929D02*
X448425Y168110D01*
X444882Y165354D02*
Y168504D01*
X443307Y166142D02*
X446457D01*
X443307Y167717D02*
X444882Y166142D01*
X446457Y167717D01*
X443307D02*
X446457D01*
X440945Y167323D02*
X442126Y166142D01*
X441339Y168110D02*
X442520Y166929D01*
X444882Y165354D02*
Y168504D01*
X443307Y166142D02*
X446457D01*
X444882D02*
X446457Y167717D01*
X443307D02*
X444882Y166142D01*
X443307Y167717D02*
X446457D01*
X440945Y405472D02*
X442126Y404291D01*
X441339Y406260D02*
X442520Y405079D01*
X444882Y403504D02*
Y406653D01*
X443307Y404291D02*
X446457D01*
X444882D02*
X446457Y405866D01*
X443307D02*
X444882Y404291D01*
X443307Y405866D02*
X446457D01*
X441732Y294488D02*
X463779D01*
X441732Y327559D02*
X463779D01*
Y294488D02*
Y327559D01*
X441732Y294488D02*
Y327559D01*
X440945Y222047D02*
X442126Y220866D01*
X441339Y222835D02*
X442520Y221654D01*
X444882Y220079D02*
Y223228D01*
X443307Y220866D02*
X446457D01*
X444882D02*
X446457Y222441D01*
X443307D02*
X444882Y220866D01*
X443307Y222441D02*
X446457D01*
X465945Y234252D02*
X471063D01*
X465945Y222441D02*
X471063D01*
X465945D02*
Y234252D01*
X471063Y222441D02*
Y234252D01*
X476004Y407087D02*
Y419685D01*
X461004Y407087D02*
Y419685D01*
Y407087D02*
X476004D01*
X461004Y419685D02*
X476004D01*
X461173Y179528D02*
X476173D01*
X461173Y166929D02*
X476173D01*
X461173D02*
Y179528D01*
X476173Y166929D02*
Y179528D01*
X461004Y407087D02*
X476004D01*
X461004Y419685D02*
X476004D01*
X461004Y407087D02*
Y419685D01*
X476004Y407087D02*
Y419685D01*
X461004Y363779D02*
X476004D01*
X461004Y376378D02*
X476004D01*
X461004Y363779D02*
Y376378D01*
X476004Y363779D02*
Y376378D01*
X461004Y166929D02*
X476004D01*
X461004Y179528D02*
X476004D01*
X461004Y166929D02*
Y179528D01*
X476004Y166929D02*
Y179528D01*
X461004Y234646D02*
X476004D01*
X461004Y222047D02*
X476004D01*
X461004D02*
Y234646D01*
X476004Y222047D02*
Y234646D01*
D12*
X469882Y413386D02*
G03*
X469882Y413386I-1378J0D01*
G01*
X470051Y173228D02*
G03*
X470051Y173228I-1378J0D01*
G01*
X469882Y413386D02*
G03*
X469882Y413386I-1378J0D01*
G01*
Y370079D02*
G03*
X469882Y370079I-1378J0D01*
G01*
Y173228D02*
G03*
X469882Y173228I-1378J0D01*
G01*
Y228346D02*
G03*
X469882Y228346I-1378J0D01*
G01*
X468504Y411417D02*
Y415354D01*
X466535Y413386D02*
X470472D01*
X466705Y173228D02*
X470642D01*
X468673Y171260D02*
Y175197D01*
X466535Y413386D02*
X470472D01*
X468504Y411417D02*
Y415354D01*
X466535Y370079D02*
X470472D01*
X468504Y368110D02*
Y372047D01*
X466535Y173228D02*
X470472D01*
X468504Y171260D02*
Y175197D01*
X466535Y228346D02*
X470472D01*
X468504Y226378D02*
Y230315D01*
D13*
X484753Y232228D02*
G03*
X484753Y232228I-500J0D01*
G01*
X445437Y240159D02*
G03*
X445437Y240159I-500J0D01*
G01*
X484753Y177110D02*
G03*
X484753Y177110I-500J0D01*
G01*
X507248Y322442D02*
G03*
X507248Y322442I-500J0D01*
G01*
X503594Y346476D02*
G03*
X503594Y346476I-500J0D01*
G01*
X495720D02*
G03*
X495720Y346476I-500J0D01*
G01*
X487957Y346479D02*
G03*
X487957Y346479I-500J0D01*
G01*
X498587Y322442D02*
G03*
X498587Y322442I-500J0D01*
G01*
X445327Y425198D02*
G03*
X445327Y425198I-500J0D01*
G01*
X484753Y409504D02*
G03*
X484753Y409504I-500J0D01*
G01*
Y417378D02*
G03*
X484753Y417378I-500J0D01*
G01*
Y366197D02*
G03*
X484753Y366197I-500J0D01*
G01*
Y374071D02*
G03*
X484753Y374071I-500J0D01*
G01*
X445327Y381891D02*
G03*
X445327Y381891I-500J0D01*
G01*
X484753Y169346D02*
G03*
X484753Y169346I-500J0D01*
G01*
Y177220D02*
G03*
X484753Y177220I-500J0D01*
G01*
X445327Y185041D02*
G03*
X445327Y185041I-500J0D01*
G01*
X412650Y374014D02*
G03*
X412650Y374014I-500J0D01*
G01*
X451286Y237347D02*
G03*
X451286Y237347I-500J0D01*
G01*
X450895Y268165D02*
G03*
X450895Y268165I-500J0D01*
G01*
X451680Y218449D02*
G03*
X451680Y218449I-500J0D01*
G01*
X451286Y249158D02*
G03*
X451286Y249158I-500J0D01*
G01*
X493075Y338975D02*
G03*
X493075Y338975I-500J0D01*
G01*
X427720Y454332D02*
G03*
X427720Y454332I-500J0D01*
G01*
X446224Y453545D02*
G03*
X446224Y453545I-500J0D01*
G01*
X484753Y224354D02*
G03*
X484753Y224354I-500J0D01*
G01*
Y417268D02*
G03*
X484753Y417268I-500J0D01*
G01*
Y409394D02*
G03*
X484753Y409394I-500J0D01*
G01*
X445437Y425198D02*
G03*
X445437Y425198I-500J0D01*
G01*
X484753Y169236D02*
G03*
X484753Y169236I-500J0D01*
G01*
X445437Y185041D02*
G03*
X445437Y185041I-500J0D01*
G01*
X484253Y231441D02*
Y233016D01*
X483466Y232228D02*
X485041D01*
X444150Y240159D02*
X445724D01*
X444937Y239371D02*
Y240946D01*
X484253Y176323D02*
Y177898D01*
X483466Y177110D02*
X485041D01*
X506748Y321655D02*
Y323230D01*
X505961Y322442D02*
X507535D01*
X503094Y345689D02*
Y347264D01*
X502307Y346476D02*
X503882D01*
X495221Y345689D02*
Y347264D01*
X494433Y346476D02*
X496008D01*
X487457Y345691D02*
Y347266D01*
X486669Y346479D02*
X488244D01*
X498087Y321655D02*
Y323230D01*
X497299Y322442D02*
X498874D01*
X444827Y424411D02*
Y425985D01*
X444039Y425198D02*
X445614D01*
X483466Y409504D02*
X485041D01*
X484253Y408716D02*
Y410291D01*
X483466Y417378D02*
X485041D01*
X484253Y416590D02*
Y418165D01*
X483466Y366197D02*
X485041D01*
X484253Y365409D02*
Y366984D01*
X483466Y374071D02*
X485041D01*
X484253Y373284D02*
Y374858D01*
X444827Y381104D02*
Y382678D01*
X444039Y381891D02*
X445614D01*
X483466Y169346D02*
X485041D01*
X484253Y168559D02*
Y170134D01*
X483466Y177220D02*
X485041D01*
X484253Y176433D02*
Y178008D01*
X444827Y184253D02*
Y185828D01*
X444039Y185041D02*
X445614D01*
X412150Y373227D02*
Y374802D01*
X411362Y374014D02*
X412937D01*
X449999Y237347D02*
X451574D01*
X450786Y236559D02*
Y238134D01*
X449608Y268165D02*
X451182D01*
X450395Y267378D02*
Y268953D01*
X450392Y218449D02*
X451967D01*
X451180Y217661D02*
Y219236D01*
X449999Y249158D02*
X451574D01*
X450786Y248370D02*
Y249945D01*
X492575Y338188D02*
Y339763D01*
X491787Y338975D02*
X493362D01*
X427220Y453545D02*
Y455119D01*
X426433Y454332D02*
X428008D01*
X445724Y452757D02*
Y454332D01*
X444937Y453545D02*
X446512D01*
X483466Y224354D02*
X485041D01*
X484253Y223567D02*
Y225142D01*
X483466Y417268D02*
X485041D01*
X484253Y416480D02*
Y418055D01*
X483466Y409394D02*
X485041D01*
X484253Y408606D02*
Y410181D01*
X444937Y424411D02*
Y425985D01*
X444150Y425198D02*
X445724D01*
X483466Y169236D02*
X485041D01*
X484253Y168449D02*
Y170024D01*
X444937Y184253D02*
Y185828D01*
X444150Y185041D02*
X445724D01*
D14*
X442913Y395236D02*
X446850D01*
X442913Y414921D02*
X446850D01*
X444882Y412953D02*
Y416890D01*
X442913Y352362D02*
X446850D01*
X442913Y372047D02*
X446850D01*
X444882Y370079D02*
Y374016D01*
X442913Y157087D02*
X446850D01*
X442913Y176772D02*
X446850D01*
X444882Y174803D02*
Y178740D01*
X442913Y157087D02*
X446850D01*
X442913Y176772D02*
X446850D01*
X444882Y174803D02*
Y178740D01*
X442913Y395236D02*
X446850D01*
X442913Y414921D02*
X446850D01*
X444882Y412953D02*
Y416890D01*
X442913Y211811D02*
X446850D01*
X442913Y231496D02*
X446850D01*
X444882Y229528D02*
Y233465D01*
M02*
