G04*
G04 #@! TF.GenerationSoftware,Altium Limited,Altium Designer,20.0.2 (26)*
G04*
G04 Layer_Physical_Order=2*
G04 Layer_Color=16711680*
%FSLAX25Y25*%
%MOIN*%
G70*
G01*
G75*
%ADD12C,0.01000*%
%ADD18R,0.04724X0.01968*%
%ADD19R,0.03150X0.03347*%
%ADD20R,0.03347X0.03150*%
%ADD22R,0.05787X0.04567*%
%ADD24R,0.13465X0.04921*%
%ADD27R,0.33465X0.35433*%
%ADD43C,0.04000*%
%ADD44C,0.02000*%
%ADD45C,0.05000*%
%ADD46R,0.11811X0.23622*%
%ADD47R,0.11811X0.23622*%
%ADD48R,0.14173X0.07874*%
%ADD49R,0.07874X0.14173*%
%ADD50C,0.13780*%
%ADD51C,0.02400*%
%ADD52R,0.25591X0.23622*%
%ADD53R,0.08661X0.04724*%
G36*
X127953Y510827D02*
X500827Y510827D01*
X501812D01*
X503744Y510442D01*
X505563Y509689D01*
X507201Y508594D01*
X508594Y507201D01*
X509689Y505563D01*
X510442Y503744D01*
X510827Y501812D01*
Y500827D01*
Y482283D01*
X483268D01*
X483268Y492126D01*
X155512D01*
Y350394D01*
X119095D01*
Y501968D01*
X119095D01*
X119095Y501968D01*
X119095Y502841D01*
X119435Y504552D01*
X120103Y506164D01*
X121072Y507615D01*
X122306Y508849D01*
X123757Y509819D01*
X125369Y510486D01*
X127080Y510827D01*
X127953Y510827D01*
D02*
G37*
G36*
X413767Y455373D02*
X413710Y455297D01*
X413659Y455216D01*
X413615Y455130D01*
X413577Y455037D01*
X413547Y454939D01*
X413523Y454835D01*
X413506Y454725D01*
X413495Y454610D01*
X413492Y454488D01*
X412492D01*
X412489Y454610D01*
X412478Y454725D01*
X412462Y454835D01*
X412438Y454939D01*
X412407Y455037D01*
X412370Y455130D01*
X412325Y455216D01*
X412275Y455297D01*
X412217Y455373D01*
X412152Y455442D01*
X413832D01*
X413767Y455373D01*
D02*
G37*
G36*
X451772Y469231D02*
X451520Y469206D01*
X450331Y468846D01*
X449236Y468260D01*
X448276Y467472D01*
X447488Y466512D01*
X446902Y465417D01*
X446542Y464228D01*
X446420Y462992D01*
X446542Y461756D01*
X446902Y460567D01*
X447488Y459472D01*
X448276Y458512D01*
X449236Y457724D01*
X450331Y457138D01*
X451520Y456778D01*
X451772Y456753D01*
Y436744D01*
X422992D01*
X422954Y436737D01*
X421218Y436908D01*
X419512Y437425D01*
X417940Y438266D01*
X416562Y439396D01*
X415431Y440774D01*
X414591Y442347D01*
X414073Y444053D01*
X413902Y445788D01*
X413910Y445827D01*
Y454442D01*
X413925Y454476D01*
X413928Y454585D01*
X413936Y454673D01*
X413948Y454753D01*
X413965Y454826D01*
X413985Y454891D01*
X414009Y454950D01*
X414036Y455002D01*
X414065Y455050D01*
X414099Y455093D01*
X414149Y455148D01*
X414152Y455156D01*
X414499Y455675D01*
X414623Y456299D01*
X414499Y456923D01*
X414146Y457453D01*
X413616Y457806D01*
X412992Y457931D01*
X412368Y457806D01*
X411839Y457453D01*
X411485Y456923D01*
X411361Y456299D01*
X411485Y455675D01*
X411832Y455156D01*
X411835Y455148D01*
X411886Y455093D01*
X411919Y455050D01*
X411949Y455002D01*
X411975Y454950D01*
X411999Y454891D01*
X412019Y454826D01*
X412036Y454753D01*
X412048Y454673D01*
X412056Y454585D01*
X412059Y454476D01*
X412075Y454442D01*
Y445827D01*
X412058D01*
X412193Y444116D01*
X412594Y442448D01*
X413250Y440863D01*
X414147Y439400D01*
X415261Y438096D01*
X416566Y436981D01*
X418028Y436085D01*
X419613Y435428D01*
X421282Y435028D01*
X422992Y434893D01*
Y434909D01*
X451772D01*
Y429243D01*
X447787D01*
X447750Y429258D01*
X447495Y429260D01*
X447378Y429263D01*
X447238Y429275D01*
X447125Y429294D01*
X447042Y429317D01*
X446989Y429338D01*
X446976Y429346D01*
X446974Y429371D01*
X446955Y429405D01*
Y430300D01*
X443321D01*
X443300Y430314D01*
X443259Y430305D01*
X443221Y430321D01*
X442809Y430300D01*
Y430080D01*
X442809D01*
Y430080D01*
X442385Y429836D01*
X442193Y429807D01*
X441582Y429764D01*
X441214Y429759D01*
X441202Y429753D01*
X430000D01*
X429988Y429758D01*
X429617Y429765D01*
X429298Y429784D01*
X429024Y429815D01*
X428798Y429857D01*
X428726Y429877D01*
X428392Y430199D01*
Y430199D01*
X428392D01*
Y430420D01*
X427980Y430441D01*
X427954Y430430D01*
X427914Y430436D01*
X427888Y430420D01*
X414128D01*
Y424698D01*
X428392D01*
Y426246D01*
X428411Y426280D01*
X428425Y426419D01*
X428450Y426490D01*
X428492Y426553D01*
X428563Y426619D01*
X428676Y426688D01*
X428839Y426755D01*
X429052Y426812D01*
X429315Y426856D01*
X429625Y426883D01*
X429991Y426893D01*
X430004Y426898D01*
X441195D01*
X441207Y426893D01*
X441914Y426871D01*
X442188Y426845D01*
X442385Y426815D01*
X442809Y426571D01*
Y426571D01*
X442809D01*
Y426351D01*
X443221Y426330D01*
X443259Y426346D01*
X443300Y426337D01*
X443321Y426351D01*
X446955D01*
Y427246D01*
X446974Y427280D01*
X446976Y427305D01*
X446989Y427313D01*
X447042Y427334D01*
X447125Y427357D01*
X447238Y427376D01*
X447378Y427388D01*
X447495Y427391D01*
X447750Y427393D01*
X447787Y427408D01*
X451772D01*
Y417717D01*
Y393044D01*
X435322D01*
X435288Y393059D01*
X435179Y393062D01*
X435091Y393070D01*
X435010Y393082D01*
X434938Y393099D01*
X434872Y393119D01*
X434814Y393143D01*
X434761Y393169D01*
X434714Y393199D01*
X434671Y393232D01*
X434616Y393283D01*
X434608Y393286D01*
X434089Y393633D01*
X433465Y393757D01*
X432840Y393633D01*
X432311Y393280D01*
X431957Y392750D01*
X431833Y392126D01*
X431957Y391502D01*
X432311Y390972D01*
X432840Y390619D01*
X433465Y390495D01*
X434089Y390619D01*
X434608Y390966D01*
X434616Y390969D01*
X434671Y391020D01*
X434714Y391053D01*
X434761Y391083D01*
X434814Y391109D01*
X434872Y391133D01*
X434938Y391153D01*
X435010Y391170D01*
X435091Y391182D01*
X435179Y391190D01*
X435288Y391193D01*
X435322Y391208D01*
X451772D01*
Y385936D01*
X447787D01*
X447750Y385951D01*
X447495Y385953D01*
X447378Y385956D01*
X447238Y385968D01*
X447125Y385987D01*
X447042Y386010D01*
X446989Y386031D01*
X446976Y386039D01*
X446974Y386064D01*
X446955Y386098D01*
Y386993D01*
X443321D01*
X443300Y387007D01*
X443259Y386998D01*
X443221Y387014D01*
X442809Y386993D01*
Y386773D01*
X442809D01*
Y386773D01*
X442385Y386529D01*
X442193Y386500D01*
X441582Y386457D01*
X441214Y386451D01*
X441202Y386446D01*
X430000D01*
X429987Y386451D01*
X429277Y386463D01*
X428739Y386496D01*
X428543Y386519D01*
X428394Y386545D01*
X428392Y386546D01*
X428392Y386719D01*
X427980Y386740D01*
X427930Y386719D01*
X427892Y386719D01*
X414128D01*
Y380998D01*
X428392D01*
Y382939D01*
X428411Y382973D01*
X428425Y383112D01*
X428450Y383183D01*
X428492Y383246D01*
X428563Y383312D01*
X428676Y383381D01*
X428839Y383447D01*
X429052Y383505D01*
X429315Y383549D01*
X429625Y383576D01*
X429991Y383586D01*
X430004Y383591D01*
X441195D01*
X441207Y383586D01*
X441914Y383564D01*
X442188Y383538D01*
X442385Y383508D01*
X442809Y383264D01*
Y383264D01*
X442809D01*
Y383044D01*
X443221Y383023D01*
X443259Y383039D01*
X443300Y383030D01*
X443321Y383044D01*
X446955D01*
Y383939D01*
X446974Y383973D01*
X446976Y383998D01*
X446989Y384006D01*
X447042Y384027D01*
X447125Y384050D01*
X447238Y384069D01*
X447378Y384081D01*
X447495Y384084D01*
X447750Y384085D01*
X447787Y384101D01*
X451772D01*
Y374016D01*
X445799D01*
Y376153D01*
X445815Y376187D01*
X445819Y376366D01*
X445832Y376508D01*
X445851Y376623D01*
X445873Y376709D01*
X445895Y376763D01*
X445904Y376777D01*
X445928Y376780D01*
X445940Y376786D01*
X446955D01*
Y380736D01*
X442809D01*
Y376786D01*
X443824D01*
X443836Y376780D01*
X443860Y376777D01*
X443868Y376763D01*
X443890Y376709D01*
X443913Y376623D01*
X443932Y376508D01*
X443944Y376366D01*
X443949Y376187D01*
X443964Y376153D01*
Y374016D01*
X285433D01*
Y488189D01*
X451772D01*
Y469231D01*
D02*
G37*
G36*
X446553Y429231D02*
X446583Y429146D01*
X446633Y429071D01*
X446703Y429006D01*
X446793Y428951D01*
X446903Y428906D01*
X447033Y428871D01*
X447183Y428846D01*
X447353Y428831D01*
X447488Y428827D01*
X447748Y428826D01*
Y427826D01*
X447488Y427824D01*
X447353Y427821D01*
X447183Y427806D01*
X447033Y427781D01*
X446903Y427746D01*
X446793Y427701D01*
X446703Y427646D01*
X446633Y427581D01*
X446583Y427506D01*
X446553Y427421D01*
X446543Y427326D01*
Y427768D01*
X445870Y427724D01*
X445741Y427693D01*
X445648Y427657D01*
X445589Y427618D01*
Y429033D01*
X445648Y428994D01*
X445741Y428958D01*
X445870Y428927D01*
X446034Y428900D01*
X446466Y428859D01*
X446543Y428856D01*
Y429326D01*
X446553Y429231D01*
D02*
G37*
G36*
X443221Y426763D02*
X443201Y426870D01*
X443141Y426965D01*
X443041Y427050D01*
X442901Y427123D01*
X442721Y427185D01*
X442501Y427236D01*
X442241Y427275D01*
X441941Y427303D01*
X441221Y427326D01*
Y429326D01*
X441601Y429331D01*
X442241Y429376D01*
X442501Y429416D01*
X442721Y429466D01*
X442901Y429528D01*
X443041Y429601D01*
X443141Y429686D01*
X443201Y429781D01*
X443221Y429888D01*
Y426763D01*
D02*
G37*
G36*
X428000Y429878D02*
X428060Y429762D01*
X428160Y429660D01*
X428300Y429571D01*
X428480Y429496D01*
X428700Y429435D01*
X428960Y429387D01*
X429260Y429353D01*
X429600Y429332D01*
X429980Y429326D01*
Y427326D01*
X429600Y427316D01*
X429260Y427285D01*
X428960Y427236D01*
X428700Y427166D01*
X428480Y427076D01*
X428300Y426966D01*
X428160Y426835D01*
X428060Y426685D01*
X428000Y426515D01*
X427980Y426326D01*
Y430008D01*
X428000Y429878D01*
D02*
G37*
G36*
X464509Y415166D02*
X464524Y414994D01*
X464549Y414842D01*
X464584Y414710D01*
X464629Y414599D01*
X464684Y414508D01*
X464749Y414437D01*
X464824Y414387D01*
X464909Y414356D01*
X465004Y414346D01*
X463004D01*
X463099Y414356D01*
X463184Y414387D01*
X463259Y414437D01*
X463324Y414508D01*
X463379Y414599D01*
X463424Y414710D01*
X463459Y414842D01*
X463484Y414994D01*
X463499Y415166D01*
X463504Y415358D01*
X464504D01*
X464509Y415166D01*
D02*
G37*
G36*
X434391Y392901D02*
X434466Y392844D01*
X434547Y392793D01*
X434634Y392748D01*
X434727Y392711D01*
X434825Y392680D01*
X434929Y392657D01*
X435039Y392640D01*
X435154Y392629D01*
X435275Y392626D01*
Y391626D01*
X435154Y391623D01*
X435039Y391612D01*
X434929Y391595D01*
X434825Y391572D01*
X434727Y391541D01*
X434634Y391504D01*
X434547Y391459D01*
X434466Y391408D01*
X434391Y391351D01*
X434321Y391286D01*
Y392966D01*
X434391Y392901D01*
D02*
G37*
G36*
X482283Y479331D02*
X511417D01*
X511417Y128504D01*
X511417Y127519D01*
X511033Y125587D01*
X510279Y123767D01*
X509185Y122129D01*
X507792Y120736D01*
X506154Y119642D01*
X504334Y118888D01*
X502402Y118504D01*
X501417Y118504D01*
X128504D01*
X127519Y118504D01*
X125587Y118888D01*
X123767Y119642D01*
X122129Y120736D01*
X120736Y122129D01*
X119642Y123767D01*
X118888Y125587D01*
X118504Y127519D01*
X118504Y128504D01*
Y295276D01*
X119095D01*
X119095Y343504D01*
X397638Y343504D01*
Y343504D01*
X435303D01*
Y267323D01*
X435275D01*
X435455Y265957D01*
X435982Y264685D01*
X436821Y263592D01*
X437913Y262754D01*
X439186Y262227D01*
X440551Y262047D01*
Y262074D01*
X456693D01*
Y262074D01*
X457973Y261948D01*
X459204Y261574D01*
X460338Y260968D01*
X461333Y260152D01*
X462149Y259157D01*
X462755Y258023D01*
X463053Y257043D01*
X463059Y256999D01*
X463063Y256930D01*
X463061Y256868D01*
X463053Y256813D01*
X463041Y256763D01*
X463024Y256716D01*
X463002Y256671D01*
X462975Y256627D01*
X462927Y256566D01*
X462907Y256497D01*
X462666Y256136D01*
X462542Y255512D01*
X462666Y254888D01*
X463020Y254358D01*
X463549Y254005D01*
X464173Y253881D01*
X464797Y254005D01*
X465327Y254358D01*
X465680Y254888D01*
X465805Y255512D01*
X465680Y256136D01*
X465327Y256665D01*
X465251Y256716D01*
X465234Y256753D01*
X465183Y256800D01*
X465146Y256839D01*
X465110Y256886D01*
X465074Y256940D01*
X465038Y257002D01*
X465003Y257073D01*
X464972Y257148D01*
X464908Y257342D01*
X464880Y257451D01*
X464850Y257490D01*
X464473Y258734D01*
X463695Y260190D01*
X462647Y261466D01*
X461371Y262513D01*
X459915Y263292D01*
X458336Y263771D01*
X456693Y263933D01*
Y263910D01*
X440551D01*
Y263913D01*
X439669Y264029D01*
X438846Y264370D01*
X438140Y264912D01*
X437598Y265618D01*
X437257Y266440D01*
X437141Y267323D01*
X437138D01*
Y343504D01*
X442389D01*
Y282565D01*
X442374Y282532D01*
X442371Y282423D01*
X442364Y282335D01*
X442351Y282255D01*
X442334Y282182D01*
X442314Y282117D01*
X442290Y282058D01*
X442264Y282006D01*
X442234Y281958D01*
X442201Y281915D01*
X442150Y281860D01*
X442147Y281852D01*
X441800Y281333D01*
X441676Y280709D01*
X441800Y280084D01*
X442154Y279555D01*
X442683Y279202D01*
X443307Y279077D01*
X443931Y279202D01*
X444461Y279555D01*
X444814Y280084D01*
X444938Y280709D01*
X444814Y281333D01*
X444467Y281852D01*
X444464Y281860D01*
X444414Y281915D01*
X444380Y281958D01*
X444351Y282006D01*
X444324Y282058D01*
X444300Y282116D01*
X444280Y282182D01*
X444263Y282255D01*
X444251Y282335D01*
X444243Y282423D01*
X444240Y282532D01*
X444225Y282565D01*
Y343504D01*
X454724D01*
Y349389D01*
X455081Y349627D01*
X455089Y349630D01*
X455143Y349681D01*
X455187Y349714D01*
X455234Y349744D01*
X455286Y349771D01*
X455345Y349794D01*
X455410Y349815D01*
X455483Y349831D01*
X455563Y349844D01*
X455652Y349852D01*
X455760Y349855D01*
X455794Y349870D01*
X481102D01*
Y349853D01*
X482514Y349992D01*
X483871Y350403D01*
X485121Y351072D01*
X486218Y351971D01*
X487117Y353068D01*
X487786Y354318D01*
X488197Y355675D01*
X488336Y357087D01*
X488319D01*
Y363435D01*
X488334Y363469D01*
X488339Y363646D01*
X488351Y363786D01*
X488370Y363898D01*
X488393Y363982D01*
X488414Y364034D01*
X488422Y364047D01*
X488447Y364050D01*
X488481Y364069D01*
X489356D01*
Y368215D01*
X488439D01*
X488426Y368221D01*
X488403Y368224D01*
X488394Y368238D01*
X488372Y368292D01*
X488349Y368378D01*
X488331Y368493D01*
X488318Y368635D01*
X488313Y368814D01*
X488298Y368848D01*
Y371309D01*
X488313Y371343D01*
X488318Y371520D01*
X488331Y371660D01*
X488349Y371773D01*
X488372Y371856D01*
X488393Y371908D01*
X488401Y371921D01*
X488426Y371924D01*
X488460Y371942D01*
X489356D01*
Y376089D01*
X485406D01*
Y371942D01*
X486301D01*
X486335Y371924D01*
X486360Y371921D01*
X486368Y371908D01*
X486390Y371856D01*
X486412Y371773D01*
X486431Y371660D01*
X486443Y371520D01*
X486448Y371343D01*
X486463Y371309D01*
Y368848D01*
X486448Y368814D01*
X486443Y368635D01*
X486431Y368493D01*
X486412Y368378D01*
X486389Y368292D01*
X486367Y368238D01*
X486359Y368224D01*
X486335Y368221D01*
X486323Y368215D01*
X485406D01*
Y364069D01*
X486322D01*
X486356Y364050D01*
X486381Y364047D01*
X486389Y364034D01*
X486411Y363982D01*
X486433Y363898D01*
X486452Y363786D01*
X486464Y363646D01*
X486469Y363469D01*
X486484Y363435D01*
Y357087D01*
X486492Y357045D01*
X486314Y355690D01*
X485775Y354389D01*
X484917Y353272D01*
X483800Y352414D01*
X482499Y351875D01*
X481144Y351697D01*
X481102Y351705D01*
X455794D01*
X455760Y351720D01*
X455652Y351723D01*
X455563Y351731D01*
X455483Y351744D01*
X455410Y351760D01*
X455345Y351781D01*
X455286Y351804D01*
X455234Y351831D01*
X455187Y351861D01*
X455143Y351894D01*
X455089Y351945D01*
X455081Y351948D01*
X454724Y352186D01*
Y383669D01*
X455095Y384005D01*
X455778Y383938D01*
X457484Y383420D01*
X459056Y382580D01*
X460434Y381449D01*
X461565Y380071D01*
X462405Y378499D01*
X462923Y376793D01*
X463094Y375057D01*
X463086Y375019D01*
Y372096D01*
X463071Y372062D01*
X463066Y371883D01*
X463054Y371741D01*
X463035Y371626D01*
X463012Y371541D01*
X462991Y371486D01*
X462982Y371472D01*
X462958Y371469D01*
X462946Y371463D01*
X461242D01*
Y368694D01*
X466766D01*
Y371463D01*
X465062D01*
X465050Y371469D01*
X465026Y371472D01*
X465017Y371486D01*
X464995Y371541D01*
X464973Y371626D01*
X464954Y371741D01*
X464941Y371883D01*
X464937Y372062D01*
X464922Y372096D01*
Y375019D01*
X464938D01*
X464803Y376729D01*
X464402Y378397D01*
X463746Y379982D01*
X462850Y381445D01*
X461735Y382750D01*
X460431Y383864D01*
X458968Y384760D01*
X457383Y385417D01*
X455714Y385818D01*
X454724Y385895D01*
Y391208D01*
X458504D01*
Y391192D01*
X460214Y391327D01*
X461883Y391727D01*
X463468Y392384D01*
X464931Y393280D01*
X466235Y394395D01*
X467349Y395699D01*
X468246Y397162D01*
X468902Y398747D01*
X469303Y400416D01*
X469438Y402126D01*
X469422D01*
Y427953D01*
X469446D01*
X469277Y429673D01*
X468775Y431327D01*
X467961Y432851D01*
X466864Y434187D01*
X465528Y435283D01*
X464004Y436098D01*
X462350Y436600D01*
X460630Y436769D01*
Y436744D01*
X454724D01*
Y448819D01*
X474409D01*
Y473425D01*
X454724D01*
Y486221D01*
X482283D01*
Y479331D01*
D02*
G37*
G36*
X446553Y385924D02*
X446583Y385839D01*
X446633Y385764D01*
X446703Y385699D01*
X446793Y385644D01*
X446903Y385598D01*
X447033Y385563D01*
X447183Y385539D01*
X447353Y385524D01*
X447488Y385520D01*
X447748Y385519D01*
Y384519D01*
X447488Y384517D01*
X447353Y384513D01*
X447183Y384499D01*
X447033Y384473D01*
X446903Y384438D01*
X446793Y384394D01*
X446703Y384338D01*
X446633Y384274D01*
X446583Y384198D01*
X446553Y384114D01*
X446543Y384018D01*
Y384461D01*
X445870Y384417D01*
X445741Y384386D01*
X445648Y384350D01*
X445589Y384311D01*
Y385726D01*
X445648Y385687D01*
X445741Y385651D01*
X445870Y385620D01*
X446034Y385593D01*
X446466Y385552D01*
X446543Y385549D01*
Y386018D01*
X446553Y385924D01*
D02*
G37*
G36*
X443221Y383456D02*
X443201Y383563D01*
X443141Y383658D01*
X443041Y383743D01*
X442901Y383816D01*
X442721Y383878D01*
X442501Y383928D01*
X442241Y383968D01*
X441941Y383996D01*
X441221Y384018D01*
Y386018D01*
X441601Y386024D01*
X442241Y386069D01*
X442501Y386108D01*
X442721Y386159D01*
X442901Y386221D01*
X443041Y386294D01*
X443141Y386379D01*
X443201Y386474D01*
X443221Y386581D01*
Y383456D01*
D02*
G37*
G36*
X428000Y386252D02*
X428060Y386203D01*
X428160Y386160D01*
X428300Y386122D01*
X428480Y386091D01*
X428700Y386065D01*
X429260Y386030D01*
X429980Y386018D01*
Y384018D01*
X429600Y384009D01*
X429260Y383979D01*
X428960Y383928D01*
X428700Y383858D01*
X428480Y383769D01*
X428300Y383659D01*
X428160Y383528D01*
X428060Y383379D01*
X428000Y383208D01*
X427980Y383018D01*
Y386307D01*
X428000Y386252D01*
D02*
G37*
G36*
X445787Y377200D02*
X445702Y377170D01*
X445627Y377119D01*
X445562Y377048D01*
X445507Y376957D01*
X445462Y376846D01*
X445427Y376714D01*
X445402Y376563D01*
X445387Y376391D01*
X445382Y376198D01*
X444382D01*
X444377Y376391D01*
X444362Y376563D01*
X444337Y376714D01*
X444302Y376846D01*
X444257Y376957D01*
X444202Y377048D01*
X444137Y377119D01*
X444062Y377170D01*
X443977Y377200D01*
X443882Y377210D01*
X445882D01*
X445787Y377200D01*
D02*
G37*
G36*
X488286Y372344D02*
X488201Y372315D01*
X488126Y372265D01*
X488061Y372195D01*
X488006Y372105D01*
X487961Y371994D01*
X487926Y371865D01*
X487901Y371714D01*
X487886Y371545D01*
X487881Y371355D01*
X486881D01*
X486876Y371545D01*
X486861Y371714D01*
X486836Y371865D01*
X486801Y371994D01*
X486756Y372105D01*
X486701Y372195D01*
X486636Y372265D01*
X486561Y372315D01*
X486476Y372344D01*
X486381Y372355D01*
X488381D01*
X488286Y372344D01*
D02*
G37*
G36*
X464509Y371859D02*
X464524Y371687D01*
X464549Y371535D01*
X464584Y371403D01*
X464629Y371292D01*
X464684Y371201D01*
X464749Y371130D01*
X464824Y371079D01*
X464909Y371049D01*
X465004Y371039D01*
X463004D01*
X463099Y371049D01*
X463184Y371079D01*
X463259Y371130D01*
X463324Y371201D01*
X463379Y371292D01*
X463424Y371403D01*
X463459Y371535D01*
X463484Y371687D01*
X463499Y371859D01*
X463504Y372051D01*
X464504D01*
X464509Y371859D01*
D02*
G37*
G36*
X445387Y368788D02*
X445402Y368616D01*
X445427Y368464D01*
X445462Y368332D01*
X445507Y368221D01*
X445562Y368130D01*
X445627Y368059D01*
X445702Y368009D01*
X445787Y367978D01*
X445882Y367968D01*
X443882D01*
X443977Y367978D01*
X444062Y368009D01*
X444137Y368059D01*
X444202Y368130D01*
X444257Y368221D01*
X444302Y368332D01*
X444337Y368464D01*
X444362Y368616D01*
X444377Y368788D01*
X444382Y368980D01*
X445382D01*
X445387Y368788D01*
D02*
G37*
G36*
X487886Y368611D02*
X487901Y368439D01*
X487926Y368287D01*
X487961Y368155D01*
X488006Y368044D01*
X488061Y367953D01*
X488126Y367882D01*
X488201Y367831D01*
X488286Y367801D01*
X488381Y367791D01*
X486381D01*
X486476Y367801D01*
X486561Y367831D01*
X486636Y367882D01*
X486701Y367953D01*
X486756Y368044D01*
X486801Y368155D01*
X486836Y368287D01*
X486861Y368439D01*
X486876Y368611D01*
X486881Y368803D01*
X487881D01*
X487886Y368611D01*
D02*
G37*
G36*
X488307Y364471D02*
X488222Y364440D01*
X488147Y364390D01*
X488082Y364320D01*
X488027Y364230D01*
X487982Y364121D01*
X487947Y363990D01*
X487922Y363841D01*
X487907Y363670D01*
X487902Y363480D01*
X486902D01*
X486897Y363670D01*
X486882Y363841D01*
X486857Y363990D01*
X486822Y364121D01*
X486777Y364230D01*
X486722Y364320D01*
X486657Y364390D01*
X486582Y364440D01*
X486497Y364471D01*
X486402Y364480D01*
X488402D01*
X488307Y364471D01*
D02*
G37*
G36*
X442000Y356701D02*
X441980Y356891D01*
X441920Y357061D01*
X441820Y357211D01*
X441680Y357341D01*
X441500Y357451D01*
X441280Y357541D01*
X441020Y357611D01*
X440720Y357661D01*
X440380Y357691D01*
X440000Y357701D01*
Y359701D01*
X440380Y359711D01*
X440720Y359741D01*
X441020Y359791D01*
X441280Y359861D01*
X441500Y359951D01*
X441680Y360061D01*
X441820Y360191D01*
X441920Y360341D01*
X441980Y360511D01*
X442000Y360701D01*
Y356701D01*
D02*
G37*
G36*
X444212Y356431D02*
X444127Y356401D01*
X444052Y356350D01*
X443987Y356279D01*
X443932Y356188D01*
X443887Y356077D01*
X443852Y355945D01*
X443827Y355794D01*
X443812Y355622D01*
X443807Y355429D01*
X442807D01*
X442802Y355622D01*
X442787Y355794D01*
X442762Y355945D01*
X442727Y356077D01*
X442682Y356188D01*
X442627Y356279D01*
X442562Y356350D01*
X442487Y356401D01*
X442402Y356431D01*
X442307Y356441D01*
X444307D01*
X444212Y356431D01*
D02*
G37*
G36*
X454864Y351563D02*
X454939Y351505D01*
X455020Y351454D01*
X455107Y351410D01*
X455199Y351372D01*
X455297Y351342D01*
X455401Y351318D01*
X455511Y351301D01*
X455627Y351291D01*
X455748Y351287D01*
Y350287D01*
X455627Y350284D01*
X455511Y350274D01*
X455401Y350257D01*
X455297Y350233D01*
X455199Y350202D01*
X455107Y350165D01*
X455020Y350121D01*
X454939Y350070D01*
X454864Y350012D01*
X454794Y349947D01*
Y351627D01*
X454864Y351563D01*
D02*
G37*
G36*
X281496Y371063D02*
X431102D01*
Y349410D01*
X159449D01*
Y488189D01*
X281496D01*
Y371063D01*
D02*
G37*
G36*
X436996Y346711D02*
X436938Y346636D01*
X436887Y346555D01*
X436843Y346468D01*
X436805Y346376D01*
X436775Y346277D01*
X436751Y346174D01*
X436734Y346064D01*
X436724Y345948D01*
X436721Y345827D01*
X435720D01*
X435717Y345948D01*
X435707Y346064D01*
X435690Y346174D01*
X435666Y346277D01*
X435636Y346376D01*
X435598Y346468D01*
X435554Y346555D01*
X435503Y346636D01*
X435445Y346711D01*
X435381Y346781D01*
X437060D01*
X436996Y346711D01*
D02*
G37*
G36*
X443811Y282398D02*
X443821Y282283D01*
X443838Y282173D01*
X443861Y282069D01*
X443892Y281971D01*
X443929Y281878D01*
X443974Y281791D01*
X444025Y281710D01*
X444082Y281635D01*
X444147Y281566D01*
X442467D01*
X442532Y281635D01*
X442590Y281710D01*
X442640Y281791D01*
X442685Y281878D01*
X442722Y281971D01*
X442753Y282069D01*
X442776Y282173D01*
X442794Y282283D01*
X442804Y282398D01*
X442807Y282520D01*
X443807D01*
X443811Y282398D01*
D02*
G37*
G36*
X464492Y257220D02*
X464566Y256996D01*
X464609Y256894D01*
X464655Y256799D01*
X464705Y256712D01*
X464759Y256632D01*
X464816Y256558D01*
X464877Y256492D01*
X464942Y256433D01*
X463267Y256299D01*
X463329Y256378D01*
X463381Y256460D01*
X463424Y256547D01*
X463456Y256638D01*
X463479Y256733D01*
X463493Y256832D01*
X463496Y256935D01*
X463490Y257042D01*
X463474Y257153D01*
X463449Y257267D01*
X464460Y257343D01*
X464492Y257220D01*
D02*
G37*
%LPC*%
G36*
X446955Y424043D02*
X442809D01*
Y420093D01*
X443824D01*
X443836Y420087D01*
X443860Y420084D01*
X443868Y420070D01*
X443890Y420016D01*
X443913Y419930D01*
X443932Y419815D01*
X443944Y419673D01*
X443949Y419494D01*
X443964Y419460D01*
Y411900D01*
X443949Y411865D01*
X443944Y411686D01*
X443932Y411544D01*
X443913Y411429D01*
X443890Y411344D01*
X443868Y411290D01*
X443860Y411275D01*
X443836Y411273D01*
X443824Y411266D01*
X441588D01*
Y405899D01*
X448176D01*
Y411266D01*
X445940D01*
X445928Y411273D01*
X445904Y411275D01*
X445895Y411290D01*
X445873Y411344D01*
X445851Y411429D01*
X445832Y411544D01*
X445819Y411686D01*
X445815Y411865D01*
X445799Y411900D01*
Y419460D01*
X445815Y419494D01*
X445819Y419673D01*
X445832Y419815D01*
X445851Y419930D01*
X445873Y420016D01*
X445895Y420070D01*
X445904Y420084D01*
X445928Y420087D01*
X445940Y420093D01*
X446955D01*
Y424043D01*
D02*
G37*
%LPD*%
G36*
X445787Y420507D02*
X445702Y420477D01*
X445627Y420426D01*
X445562Y420355D01*
X445507Y420264D01*
X445462Y420153D01*
X445427Y420021D01*
X445402Y419870D01*
X445387Y419698D01*
X445382Y419505D01*
X444382D01*
X444377Y419698D01*
X444362Y419870D01*
X444337Y420021D01*
X444302Y420153D01*
X444257Y420264D01*
X444202Y420355D01*
X444137Y420426D01*
X444062Y420477D01*
X443977Y420507D01*
X443882Y420517D01*
X445882D01*
X445787Y420507D01*
D02*
G37*
G36*
X445387Y411662D02*
X445402Y411490D01*
X445427Y411338D01*
X445462Y411206D01*
X445507Y411095D01*
X445562Y411004D01*
X445627Y410933D01*
X445702Y410883D01*
X445787Y410852D01*
X445882Y410842D01*
X443882D01*
X443977Y410852D01*
X444062Y410883D01*
X444137Y410933D01*
X444202Y411004D01*
X444257Y411095D01*
X444302Y411206D01*
X444337Y411338D01*
X444362Y411490D01*
X444377Y411662D01*
X444382Y411854D01*
X445382D01*
X445387Y411662D01*
D02*
G37*
%LPC*%
G36*
X483098Y419396D02*
X479148D01*
Y418184D01*
X479142Y418172D01*
X479139Y418148D01*
X479125Y418139D01*
X479071Y418118D01*
X478986Y418095D01*
X478871Y418076D01*
X478728Y418063D01*
X478549Y418059D01*
X478515Y418044D01*
X476399D01*
X476365Y418059D01*
X476187Y418063D01*
X475766Y418290D01*
Y418290D01*
X475766D01*
X475766Y418510D01*
X475354Y418531D01*
X475344Y418527D01*
X475306Y418529D01*
X475273Y418510D01*
X470242D01*
Y415742D01*
X475266D01*
X475273Y415742D01*
X475306Y415723D01*
X475344Y415725D01*
X475354Y415721D01*
X475766Y415742D01*
Y415962D01*
X475766D01*
Y415962D01*
X476187Y416189D01*
X476365Y416193D01*
X476399Y416208D01*
X478515D01*
X478549Y416193D01*
X478728Y416188D01*
X478871Y416176D01*
X478986Y416157D01*
X479071Y416135D01*
X479125Y416113D01*
X479139Y416104D01*
X479142Y416080D01*
X479148Y416068D01*
Y415250D01*
X483098D01*
Y419396D01*
D02*
G37*
G36*
Y411522D02*
X479148D01*
Y410704D01*
X479142Y410691D01*
X479139Y410668D01*
X479125Y410659D01*
X479071Y410637D01*
X478986Y410614D01*
X478871Y410596D01*
X478728Y410583D01*
X478549Y410578D01*
X478515Y410563D01*
X476399D01*
X476365Y410578D01*
X476187Y410583D01*
X475766Y410810D01*
Y410810D01*
X475766D01*
X475766Y411030D01*
X475354Y411051D01*
X475344Y411047D01*
X475306Y411048D01*
X475273Y411030D01*
X470242D01*
Y408261D01*
X475266D01*
X475273Y408261D01*
X475306Y408243D01*
X475344Y408245D01*
X475354Y408240D01*
X475766Y408261D01*
Y408482D01*
X475766D01*
Y408482D01*
X476187Y408708D01*
X476365Y408713D01*
X476399Y408728D01*
X478515D01*
X478549Y408713D01*
X478728Y408708D01*
X478871Y408696D01*
X478986Y408677D01*
X479071Y408654D01*
X479125Y408632D01*
X479139Y408624D01*
X479142Y408600D01*
X479148Y408588D01*
Y407376D01*
X480044D01*
X480078Y407357D01*
X480103Y407354D01*
X480111Y407341D01*
X480132Y407289D01*
X480155Y407205D01*
X480173Y407093D01*
X480186Y406953D01*
X480191Y406776D01*
X480206Y406742D01*
Y397223D01*
X480182D01*
X480347Y395966D01*
X480832Y394794D01*
X481604Y393788D01*
X482611Y393016D01*
X483782Y392531D01*
X485039Y392366D01*
Y392389D01*
X501968D01*
Y392383D01*
X502748Y392280D01*
X503475Y391979D01*
X504099Y391500D01*
X504578Y390877D01*
X504879Y390150D01*
X504981Y389370D01*
X504988D01*
Y308550D01*
X504973Y308516D01*
X504970Y308408D01*
X504962Y308319D01*
X504949Y308239D01*
X504933Y308166D01*
X504912Y308101D01*
X504889Y308042D01*
X504862Y307990D01*
X504832Y307942D01*
X504799Y307899D01*
X504748Y307845D01*
X504745Y307837D01*
X504398Y307317D01*
X504274Y306693D01*
X504398Y306069D01*
X504752Y305539D01*
X505281Y305186D01*
X505905Y305062D01*
X506530Y305186D01*
X507059Y305539D01*
X507413Y306069D01*
X507537Y306693D01*
X507413Y307317D01*
X507066Y307837D01*
X507063Y307845D01*
X507012Y307899D01*
X506979Y307942D01*
X506949Y307990D01*
X506922Y308042D01*
X506899Y308101D01*
X506878Y308166D01*
X506862Y308239D01*
X506849Y308319D01*
X506841Y308408D01*
X506838Y308516D01*
X506823Y308550D01*
Y389370D01*
X506847D01*
X506681Y390633D01*
X506194Y391810D01*
X505418Y392820D01*
X504408Y393595D01*
X503231Y394083D01*
X501968Y394249D01*
Y394225D01*
X485039D01*
Y394232D01*
X484265Y394333D01*
X483543Y394632D01*
X482924Y395108D01*
X482448Y395727D01*
X482150Y396449D01*
X482048Y397223D01*
X482041D01*
Y406742D01*
X482056Y406776D01*
X482061Y406953D01*
X482073Y407093D01*
X482092Y407205D01*
X482114Y407289D01*
X482136Y407341D01*
X482144Y407354D01*
X482169Y407357D01*
X482203Y407376D01*
X483098D01*
Y411522D01*
D02*
G37*
G36*
X481102Y427616D02*
X480478Y427491D01*
X479949Y427138D01*
X479595Y426609D01*
X479471Y425984D01*
X479595Y425360D01*
X479949Y424831D01*
X480478Y424477D01*
X481102Y424353D01*
X481727Y424477D01*
X482246Y424824D01*
X482254Y424827D01*
X482309Y424878D01*
X482352Y424911D01*
X482399Y424941D01*
X482452Y424967D01*
X482510Y424991D01*
X482576Y425011D01*
X482648Y425028D01*
X482729Y425041D01*
X482817Y425048D01*
X482925Y425051D01*
X482959Y425067D01*
X491968D01*
X492007Y425074D01*
X493743Y424903D01*
X495448Y424386D01*
X497021Y423546D01*
X498399Y422414D01*
X499530Y421036D01*
X500370Y419464D01*
X500888Y417758D01*
X501058Y416023D01*
X501051Y415984D01*
Y411306D01*
X501036Y411272D01*
X501033Y411164D01*
X501025Y411075D01*
X501012Y410995D01*
X500996Y410922D01*
X500975Y410857D01*
X500952Y410798D01*
X500925Y410746D01*
X500895Y410698D01*
X500862Y410655D01*
X500811Y410601D01*
X500808Y410592D01*
X500461Y410073D01*
X500337Y409449D01*
X500461Y408824D01*
X500815Y408295D01*
X501344Y407942D01*
X501968Y407818D01*
X502593Y407942D01*
X503122Y408295D01*
X503476Y408824D01*
X503600Y409449D01*
X503476Y410073D01*
X503129Y410592D01*
X503126Y410601D01*
X503075Y410655D01*
X503042Y410698D01*
X503012Y410746D01*
X502985Y410798D01*
X502962Y410857D01*
X502941Y410922D01*
X502925Y410995D01*
X502912Y411075D01*
X502904Y411164D01*
X502901Y411272D01*
X502886Y411306D01*
Y415984D01*
X502902D01*
X502768Y417695D01*
X502367Y419363D01*
X501711Y420948D01*
X500814Y422411D01*
X499700Y423715D01*
X498395Y424830D01*
X496932Y425726D01*
X495347Y426383D01*
X493679Y426783D01*
X491968Y426918D01*
Y426902D01*
X482959D01*
X482925Y426917D01*
X482817Y426920D01*
X482729Y426928D01*
X482648Y426940D01*
X482576Y426957D01*
X482510Y426977D01*
X482452Y427001D01*
X482399Y427028D01*
X482352Y427058D01*
X482309Y427091D01*
X482254Y427141D01*
X482246Y427144D01*
X481727Y427491D01*
X481102Y427616D01*
D02*
G37*
G36*
X489356Y419396D02*
X485406D01*
Y415250D01*
X486301D01*
X486335Y415231D01*
X486360Y415228D01*
X486368Y415215D01*
X486390Y415163D01*
X486412Y415080D01*
X486431Y414967D01*
X486443Y414827D01*
X486448Y414650D01*
X486463Y414616D01*
Y412155D01*
X486448Y412121D01*
X486443Y411942D01*
X486431Y411800D01*
X486412Y411685D01*
X486389Y411600D01*
X486367Y411545D01*
X486359Y411531D01*
X486335Y411529D01*
X486323Y411522D01*
X485406D01*
Y407376D01*
X489356D01*
Y408391D01*
X489362Y408403D01*
X489364Y408427D01*
X489379Y408435D01*
X489433Y408457D01*
X489518Y408480D01*
X489633Y408499D01*
X489776Y408511D01*
X489955Y408516D01*
X489989Y408531D01*
X490163D01*
X490196Y408516D01*
X490304Y408513D01*
X490384Y408504D01*
X490451Y408491D01*
X490505Y408475D01*
X490546Y408458D01*
X490577Y408440D01*
X490600Y408423D01*
X490618Y408405D01*
X490634Y408384D01*
X490662Y408333D01*
X490709Y408295D01*
X490972Y407902D01*
X491502Y407548D01*
X492126Y407424D01*
X492750Y407548D01*
X493280Y407902D01*
X493633Y408431D01*
X493757Y409055D01*
X493633Y409679D01*
X493280Y410209D01*
X492750Y410562D01*
X492126Y410686D01*
X491502Y410562D01*
X491446Y410525D01*
X491412Y410524D01*
X491349Y410495D01*
X491293Y410474D01*
X491236Y410455D01*
X491080Y410419D01*
X491010Y410408D01*
X490706Y410383D01*
X490599Y410382D01*
X490563Y410366D01*
X489989D01*
X489955Y410382D01*
X489776Y410386D01*
X489633Y410399D01*
X489518Y410418D01*
X489433Y410440D01*
X489379Y410462D01*
X489364Y410471D01*
X489362Y410495D01*
X489356Y410507D01*
Y411522D01*
X488439D01*
X488426Y411529D01*
X488403Y411531D01*
X488394Y411545D01*
X488372Y411600D01*
X488349Y411685D01*
X488331Y411800D01*
X488318Y411942D01*
X488313Y412121D01*
X488298Y412155D01*
Y414616D01*
X488313Y414650D01*
X488318Y414827D01*
X488331Y414967D01*
X488349Y415080D01*
X488372Y415163D01*
X488393Y415215D01*
X488401Y415228D01*
X488426Y415231D01*
X488460Y415250D01*
X489356D01*
Y419396D01*
D02*
G37*
G36*
X483098Y376089D02*
X479148D01*
Y374877D01*
X479142Y374865D01*
X479139Y374841D01*
X479125Y374832D01*
X479071Y374810D01*
X478986Y374788D01*
X478871Y374769D01*
X478728Y374756D01*
X478549Y374752D01*
X478515Y374736D01*
X476399D01*
X476365Y374752D01*
X476187Y374756D01*
X475766Y374983D01*
Y374983D01*
X475766D01*
X475766Y375203D01*
X475354Y375224D01*
X475344Y375220D01*
X475306Y375221D01*
X475273Y375203D01*
X470242D01*
Y372435D01*
X475266D01*
X475273Y372435D01*
X475306Y372416D01*
X475344Y372418D01*
X475354Y372414D01*
X475766Y372435D01*
Y372655D01*
X475766D01*
Y372655D01*
X476187Y372882D01*
X476365Y372886D01*
X476399Y372901D01*
X478515D01*
X478549Y372886D01*
X478728Y372881D01*
X478871Y372869D01*
X478986Y372850D01*
X479071Y372827D01*
X479125Y372806D01*
X479139Y372797D01*
X479142Y372773D01*
X479148Y372761D01*
Y371942D01*
X483098D01*
Y376089D01*
D02*
G37*
G36*
Y368215D02*
X479148D01*
Y367200D01*
X479142Y367188D01*
X479139Y367164D01*
X479125Y367155D01*
X479071Y367133D01*
X478986Y367110D01*
X478871Y367092D01*
X478728Y367079D01*
X478549Y367074D01*
X478515Y367059D01*
X476400D01*
X476366Y367074D01*
X476189Y367079D01*
X476049Y367091D01*
X475936Y367110D01*
X475853Y367133D01*
X475800Y367154D01*
X475787Y367162D01*
X475785Y367187D01*
X475766Y367221D01*
Y367723D01*
X470242D01*
Y364954D01*
X475253D01*
X475273Y364941D01*
X475315Y364950D01*
X475354Y364933D01*
X475766Y364954D01*
Y365166D01*
X475794Y365172D01*
X475891Y365186D01*
X476182Y365206D01*
X476360Y365209D01*
X476396Y365224D01*
X478515D01*
X478549Y365209D01*
X478728Y365204D01*
X478871Y365192D01*
X478986Y365173D01*
X479071Y365150D01*
X479125Y365128D01*
X479139Y365120D01*
X479142Y365096D01*
X479148Y365084D01*
Y364069D01*
X480023D01*
X480057Y364050D01*
X480082Y364047D01*
X480090Y364034D01*
X480111Y363982D01*
X480134Y363898D01*
X480153Y363786D01*
X480165Y363646D01*
X480169Y363469D01*
X480185Y363435D01*
Y359731D01*
X480170Y359697D01*
X480166Y359589D01*
X480159Y359500D01*
X480146Y359420D01*
X480130Y359347D01*
X480109Y359282D01*
X480086Y359223D01*
X480059Y359171D01*
X480029Y359123D01*
X479996Y359080D01*
X479945Y359026D01*
X479942Y359018D01*
X479595Y358498D01*
X479471Y357874D01*
X479595Y357250D01*
X479949Y356720D01*
X480478Y356367D01*
X481102Y356243D01*
X481727Y356367D01*
X482256Y356720D01*
X482610Y357250D01*
X482734Y357874D01*
X482610Y358498D01*
X482263Y359018D01*
X482260Y359026D01*
X482209Y359080D01*
X482176Y359123D01*
X482146Y359171D01*
X482119Y359223D01*
X482095Y359282D01*
X482075Y359347D01*
X482058Y359420D01*
X482046Y359500D01*
X482038Y359589D01*
X482035Y359697D01*
X482020Y359731D01*
Y363435D01*
X482035Y363469D01*
X482040Y363646D01*
X482052Y363786D01*
X482071Y363898D01*
X482093Y363982D01*
X482115Y364034D01*
X482123Y364047D01*
X482148Y364050D01*
X482182Y364069D01*
X483098D01*
Y368215D01*
D02*
G37*
G36*
X487402Y340214D02*
X486777Y340090D01*
X486248Y339736D01*
X485894Y339207D01*
X485770Y338583D01*
X485894Y337958D01*
X486241Y337439D01*
X486244Y337431D01*
X486295Y337376D01*
X486328Y337333D01*
X486358Y337286D01*
X486385Y337233D01*
X486409Y337175D01*
X486429Y337109D01*
X486446Y337037D01*
X486458Y336956D01*
X486466Y336868D01*
X486469Y336760D01*
X486484Y336726D01*
Y327447D01*
X486469Y327414D01*
X486466Y327305D01*
X486458Y327217D01*
X486446Y327136D01*
X486429Y327064D01*
X486409Y326998D01*
X486385Y326940D01*
X486358Y326887D01*
X486328Y326840D01*
X486295Y326797D01*
X486244Y326742D01*
X486241Y326734D01*
X485894Y326215D01*
X485770Y325590D01*
X485894Y324966D01*
X486248Y324437D01*
X486777Y324083D01*
X487402Y323959D01*
X488026Y324083D01*
X488555Y324437D01*
X488909Y324966D01*
X489033Y325590D01*
X488909Y326215D01*
X488562Y326734D01*
X488559Y326742D01*
X488508Y326797D01*
X488475Y326840D01*
X488445Y326887D01*
X488418Y326940D01*
X488395Y326998D01*
X488374Y327064D01*
X488358Y327136D01*
X488345Y327217D01*
X488337Y327305D01*
X488334Y327414D01*
X488319Y327447D01*
Y336726D01*
X488334Y336760D01*
X488337Y336868D01*
X488345Y336956D01*
X488358Y337037D01*
X488374Y337109D01*
X488395Y337175D01*
X488418Y337233D01*
X488445Y337286D01*
X488475Y337333D01*
X488508Y337376D01*
X488559Y337431D01*
X488562Y337439D01*
X488909Y337958D01*
X489033Y338583D01*
X488909Y339207D01*
X488555Y339736D01*
X488026Y340090D01*
X487402Y340214D01*
D02*
G37*
G36*
X494593Y337823D02*
X490447D01*
Y333873D01*
X491462D01*
X491474Y333866D01*
X491498Y333864D01*
X491506Y333850D01*
X491528Y333795D01*
X491551Y333710D01*
X491570Y333595D01*
X491582Y333453D01*
X491587Y333274D01*
X491602Y333240D01*
Y324375D01*
X491477Y324292D01*
X491278Y323994D01*
X491208Y323643D01*
X491278Y323292D01*
X491477Y322994D01*
X491602Y322911D01*
Y309206D01*
X491575Y309176D01*
X491075Y309365D01*
Y312835D01*
X491091D01*
X490957Y314545D01*
X490556Y316213D01*
X489899Y317798D01*
X489003Y319261D01*
X487889Y320566D01*
X486584Y321680D01*
X485121Y322577D01*
X483536Y323233D01*
X481868Y323634D01*
X480158Y323768D01*
Y323752D01*
X448707D01*
X448673Y323767D01*
X448565Y323770D01*
X448477Y323778D01*
X448396Y323791D01*
X448324Y323807D01*
X448258Y323828D01*
X448200Y323851D01*
X448147Y323878D01*
X448100Y323908D01*
X448057Y323941D01*
X448002Y323992D01*
X447994Y323995D01*
X447475Y324342D01*
X446850Y324466D01*
X446226Y324342D01*
X445697Y323988D01*
X445343Y323459D01*
X445219Y322835D01*
X445343Y322210D01*
X445697Y321681D01*
X446226Y321327D01*
X446850Y321203D01*
X447475Y321327D01*
X447994Y321674D01*
X448002Y321677D01*
X448057Y321728D01*
X448100Y321761D01*
X448147Y321791D01*
X448200Y321818D01*
X448258Y321842D01*
X448324Y321862D01*
X448396Y321879D01*
X448477Y321891D01*
X448565Y321899D01*
X448673Y321902D01*
X448707Y321917D01*
X480158D01*
X480196Y321925D01*
X481932Y321754D01*
X483638Y321236D01*
X485210Y320396D01*
X486588Y319265D01*
X487719Y317887D01*
X488559Y316315D01*
X489077Y314609D01*
X489248Y312873D01*
X489240Y312835D01*
Y301969D01*
X489215D01*
X489384Y300249D01*
X489886Y298595D01*
X490701Y297070D01*
X491797Y295734D01*
X493133Y294638D01*
X494658Y293823D01*
X496066Y293396D01*
X496088Y293379D01*
X496312Y293319D01*
X496395Y293290D01*
X496474Y293257D01*
X496545Y293223D01*
X496607Y293188D01*
X496661Y293153D01*
X496708Y293116D01*
X496747Y293080D01*
X496794Y293029D01*
X496830Y293012D01*
X496878Y292941D01*
X497407Y292587D01*
X498032Y292463D01*
X498656Y292587D01*
X499185Y292941D01*
X499539Y293470D01*
X499663Y294094D01*
X499539Y294719D01*
X499185Y295248D01*
X498656Y295602D01*
X498032Y295726D01*
X497407Y295602D01*
X497039Y295356D01*
X496972Y295337D01*
X496911Y295289D01*
X496867Y295261D01*
X496822Y295238D01*
X496775Y295221D01*
X496724Y295208D01*
X496668Y295200D01*
X496606Y295197D01*
X496537Y295201D01*
X496460Y295211D01*
X496450Y295213D01*
X495369Y295541D01*
X494166Y296183D01*
X493112Y297049D01*
X492246Y298103D01*
X491604Y299306D01*
X491208Y300611D01*
X491074Y301965D01*
X491075Y301969D01*
Y305537D01*
X491575Y305793D01*
X491895Y305579D01*
X492520Y305455D01*
X493144Y305579D01*
X493673Y305933D01*
X494027Y306462D01*
X494151Y307087D01*
X494027Y307711D01*
X493680Y308230D01*
X493677Y308238D01*
X493626Y308293D01*
X493593Y308336D01*
X493563Y308383D01*
X493536Y308436D01*
X493513Y308494D01*
X493492Y308560D01*
X493476Y308632D01*
X493463Y308713D01*
X493456Y308801D01*
X493453Y308910D01*
X493437Y308944D01*
Y323249D01*
X493445D01*
X493437Y323288D01*
Y333240D01*
X493453Y333274D01*
X493457Y333453D01*
X493470Y333595D01*
X493489Y333710D01*
X493511Y333795D01*
X493533Y333850D01*
X493542Y333864D01*
X493566Y333866D01*
X493577Y333873D01*
X494593D01*
Y337823D01*
D02*
G37*
G36*
X501968Y388639D02*
X501344Y388515D01*
X500815Y388161D01*
X500461Y387632D01*
X500337Y387008D01*
X500461Y386384D01*
X500808Y385864D01*
X500811Y385856D01*
X500862Y385802D01*
X500895Y385758D01*
X500925Y385711D01*
X500952Y385659D01*
X500975Y385600D01*
X500996Y385535D01*
X501012Y385462D01*
X501025Y385382D01*
X501033Y385293D01*
X501036Y385185D01*
X501051Y385151D01*
Y308550D01*
X501036Y308516D01*
X501033Y308408D01*
X501025Y308319D01*
X501012Y308239D01*
X500996Y308166D01*
X500975Y308101D01*
X500952Y308042D01*
X500925Y307990D01*
X500895Y307942D01*
X500862Y307899D01*
X500811Y307845D01*
X500808Y307837D01*
X500461Y307317D01*
X500337Y306693D01*
X500461Y306069D01*
X500815Y305539D01*
X501344Y305186D01*
X501968Y305062D01*
X502593Y305186D01*
X503122Y305539D01*
X503476Y306069D01*
X503600Y306693D01*
X503476Y307317D01*
X503129Y307837D01*
X503126Y307845D01*
X503075Y307899D01*
X503042Y307942D01*
X503012Y307990D01*
X502985Y308042D01*
X502962Y308101D01*
X502941Y308166D01*
X502925Y308239D01*
X502912Y308319D01*
X502904Y308408D01*
X502901Y308516D01*
X502886Y308550D01*
Y385151D01*
X502901Y385185D01*
X502904Y385293D01*
X502912Y385382D01*
X502925Y385462D01*
X502941Y385535D01*
X502962Y385600D01*
X502985Y385659D01*
X503012Y385711D01*
X503042Y385758D01*
X503075Y385802D01*
X503126Y385856D01*
X503129Y385864D01*
X503476Y386384D01*
X503600Y387008D01*
X503476Y387632D01*
X503122Y388161D01*
X502593Y388515D01*
X501968Y388639D01*
D02*
G37*
G36*
X498032Y359505D02*
X497407Y359381D01*
X496878Y359028D01*
X496524Y358498D01*
X496400Y357874D01*
X496524Y357250D01*
X496871Y356731D01*
X496874Y356722D01*
X496925Y356668D01*
X496958Y356625D01*
X496988Y356577D01*
X497015Y356525D01*
X497038Y356466D01*
X497059Y356401D01*
X497075Y356328D01*
X497088Y356248D01*
X497096Y356159D01*
X497099Y356051D01*
X497114Y356017D01*
Y301069D01*
X497099Y301036D01*
X497096Y300927D01*
X497088Y300839D01*
X497075Y300758D01*
X497059Y300686D01*
X497038Y300621D01*
X497015Y300562D01*
X496988Y300509D01*
X496958Y300462D01*
X496925Y300419D01*
X496874Y300364D01*
X496871Y300356D01*
X496524Y299837D01*
X496400Y299213D01*
X496524Y298588D01*
X496878Y298059D01*
X497407Y297705D01*
X498032Y297581D01*
X498656Y297705D01*
X499185Y298059D01*
X499539Y298588D01*
X499663Y299213D01*
X499539Y299837D01*
X499192Y300356D01*
X499189Y300364D01*
X499138Y300419D01*
X499105Y300462D01*
X499075Y300509D01*
X499048Y300562D01*
X499025Y300620D01*
X499004Y300686D01*
X498988Y300758D01*
X498975Y300839D01*
X498967Y300927D01*
X498964Y301036D01*
X498949Y301069D01*
Y356017D01*
X498964Y356051D01*
X498967Y356159D01*
X498975Y356248D01*
X498988Y356328D01*
X499004Y356401D01*
X499025Y356466D01*
X499048Y356525D01*
X499075Y356577D01*
X499105Y356625D01*
X499138Y356668D01*
X499189Y356722D01*
X499192Y356731D01*
X499539Y357250D01*
X499663Y357874D01*
X499539Y358498D01*
X499185Y359028D01*
X498656Y359381D01*
X498032Y359505D01*
D02*
G37*
G36*
X446850Y316198D02*
X446226Y316074D01*
X445697Y315721D01*
X445343Y315191D01*
X445219Y314567D01*
X445343Y313943D01*
X445697Y313413D01*
X446226Y313060D01*
X446850Y312936D01*
X447475Y313060D01*
X447994Y313407D01*
X448002Y313410D01*
X448057Y313460D01*
X448100Y313494D01*
X448147Y313524D01*
X448200Y313550D01*
X448258Y313574D01*
X448324Y313594D01*
X448396Y313611D01*
X448477Y313623D01*
X448565Y313631D01*
X448673Y313634D01*
X448707Y313649D01*
X479757D01*
X479757Y313649D01*
X481069Y313520D01*
X482331Y313137D01*
X483494Y312516D01*
X484514Y311679D01*
X485350Y310660D01*
X485972Y309496D01*
X486355Y308235D01*
X486484Y306922D01*
X486484Y306922D01*
Y300282D01*
X486469Y300248D01*
X486466Y300140D01*
X486458Y300052D01*
X486446Y299971D01*
X486429Y299898D01*
X486409Y299833D01*
X486385Y299775D01*
X486358Y299722D01*
X486328Y299675D01*
X486295Y299632D01*
X486244Y299577D01*
X486241Y299569D01*
X485894Y299049D01*
X485770Y298425D01*
X485894Y297801D01*
X486248Y297272D01*
X486777Y296918D01*
X487402Y296794D01*
X488026Y296918D01*
X488555Y297272D01*
X488909Y297801D01*
X489033Y298425D01*
X488909Y299049D01*
X488562Y299569D01*
X488559Y299577D01*
X488508Y299632D01*
X488475Y299675D01*
X488445Y299722D01*
X488418Y299775D01*
X488395Y299833D01*
X488374Y299898D01*
X488358Y299971D01*
X488345Y300052D01*
X488337Y300140D01*
X488334Y300248D01*
X488319Y300282D01*
Y306922D01*
X488343D01*
X488178Y308597D01*
X487689Y310208D01*
X486896Y311692D01*
X485828Y312993D01*
X484527Y314061D01*
X483042Y314855D01*
X481432Y315343D01*
X479757Y315508D01*
Y315485D01*
X448707D01*
X448673Y315500D01*
X448565Y315503D01*
X448477Y315511D01*
X448396Y315523D01*
X448324Y315540D01*
X448258Y315560D01*
X448200Y315584D01*
X448147Y315610D01*
X448100Y315640D01*
X448057Y315673D01*
X448002Y315724D01*
X447994Y315727D01*
X447475Y316074D01*
X446850Y316198D01*
D02*
G37*
G36*
X398031Y336671D02*
X398024Y336669D01*
X397407Y336546D01*
X396878Y336193D01*
X396524Y335664D01*
X396400Y335039D01*
X396524Y334415D01*
X396871Y333896D01*
X396874Y333888D01*
X396925Y333833D01*
X396958Y333790D01*
X396988Y333742D01*
X397015Y333690D01*
X397038Y333632D01*
X397059Y333566D01*
X397075Y333493D01*
X397088Y333413D01*
X397096Y333325D01*
X397099Y333216D01*
X397114Y333183D01*
Y291339D01*
X153543Y291339D01*
Y137795D01*
X431496D01*
X431263Y161643D01*
X431615Y161998D01*
X439977D01*
X439989Y161992D01*
X440355Y161983D01*
X440665Y161955D01*
X440928Y161912D01*
X441141Y161854D01*
X441304Y161788D01*
X441417Y161718D01*
X441488Y161653D01*
X441530Y161590D01*
X441555Y161519D01*
X441570Y161380D01*
X441588Y161346D01*
Y160742D01*
X443824D01*
X443836Y160735D01*
X443860Y160733D01*
X443868Y160718D01*
X443890Y160664D01*
X443913Y160579D01*
X443932Y160464D01*
X443944Y160322D01*
X443949Y160143D01*
X443964Y160108D01*
Y152362D01*
X443950D01*
X444076Y151408D01*
X444444Y150519D01*
X445030Y149755D01*
X445794Y149169D01*
X446683Y148800D01*
X447638Y148675D01*
Y148689D01*
X503943D01*
X503976Y148674D01*
X504083Y148670D01*
X504164Y148661D01*
X504231Y148649D01*
X504284Y148633D01*
X504326Y148615D01*
X504357Y148598D01*
X504380Y148581D01*
X504398Y148562D01*
X504413Y148541D01*
X504442Y148490D01*
X504489Y148453D01*
X504752Y148059D01*
X505281Y147705D01*
X505905Y147581D01*
X506530Y147705D01*
X507059Y148059D01*
X507413Y148588D01*
X507537Y149213D01*
X507413Y149837D01*
X507059Y150366D01*
X506530Y150720D01*
X505905Y150844D01*
X505281Y150720D01*
X505225Y150682D01*
X505192Y150681D01*
X505129Y150653D01*
X505073Y150631D01*
X505015Y150613D01*
X504859Y150577D01*
X504789Y150565D01*
X504486Y150541D01*
X504378Y150539D01*
X504343Y150524D01*
X447638D01*
X447630Y150522D01*
X446933Y150661D01*
X446336Y151060D01*
X445937Y151658D01*
X445798Y152355D01*
X445799Y152362D01*
Y160108D01*
X445815Y160143D01*
X445819Y160322D01*
X445832Y160464D01*
X445851Y160579D01*
X445873Y160664D01*
X445895Y160718D01*
X445904Y160733D01*
X445928Y160735D01*
X445940Y160742D01*
X448176D01*
Y166109D01*
X441588D01*
Y165505D01*
X441570Y165471D01*
X441555Y165331D01*
X441530Y165260D01*
X441488Y165198D01*
X441417Y165132D01*
X441304Y165063D01*
X441141Y164996D01*
X440928Y164939D01*
X440665Y164895D01*
X440355Y164868D01*
X439989Y164858D01*
X439977Y164853D01*
X431232D01*
X431102Y178150D01*
X397638D01*
Y209659D01*
X398128Y209756D01*
X398289Y209367D01*
X399186Y207904D01*
X400300Y206599D01*
X401605Y205485D01*
X403068Y204589D01*
X404653Y203932D01*
X406321Y203532D01*
X408032Y203397D01*
Y203413D01*
X471102D01*
X471141Y203421D01*
X472877Y203250D01*
X474582Y202732D01*
X476155Y201892D01*
X477533Y200761D01*
X478664Y199383D01*
X479504Y197811D01*
X480021Y196105D01*
X480192Y194369D01*
X480185Y194331D01*
Y186503D01*
X480170Y186469D01*
X480166Y186360D01*
X480159Y186272D01*
X480146Y186191D01*
X480130Y186119D01*
X480109Y186054D01*
X480086Y185995D01*
X480059Y185942D01*
X480029Y185895D01*
X479996Y185852D01*
X479945Y185797D01*
X479942Y185789D01*
X479595Y185270D01*
X479471Y184646D01*
X479595Y184021D01*
X479949Y183492D01*
X480478Y183139D01*
X481102Y183014D01*
X481727Y183139D01*
X482256Y183492D01*
X482610Y184021D01*
X482734Y184646D01*
X482610Y185270D01*
X482263Y185789D01*
X482260Y185797D01*
X482209Y185852D01*
X482176Y185895D01*
X482146Y185942D01*
X482119Y185995D01*
X482095Y186053D01*
X482075Y186119D01*
X482058Y186191D01*
X482046Y186272D01*
X482038Y186360D01*
X482035Y186469D01*
X482020Y186503D01*
Y194331D01*
X482036D01*
X481902Y196041D01*
X481501Y197709D01*
X480844Y199294D01*
X479948Y200757D01*
X478834Y202062D01*
X477529Y203176D01*
X476066Y204073D01*
X474481Y204729D01*
X472813Y205130D01*
X471102Y205264D01*
Y205248D01*
X408032D01*
X407993Y205241D01*
X406257Y205412D01*
X404552Y205929D01*
X402979Y206769D01*
X401601Y207900D01*
X400470Y209278D01*
X399630Y210851D01*
X399112Y212557D01*
X398941Y214292D01*
X398949Y214331D01*
Y291339D01*
Y333183D01*
X398964Y333216D01*
X398967Y333325D01*
X398975Y333413D01*
X398988Y333493D01*
X399004Y333566D01*
X399025Y333631D01*
X399048Y333690D01*
X399075Y333742D01*
X399105Y333790D01*
X399138Y333833D01*
X399189Y333888D01*
X399192Y333896D01*
X399539Y334415D01*
X399663Y335039D01*
X399539Y335664D01*
X399185Y336193D01*
X398656Y336546D01*
X398031Y336671D01*
D02*
G37*
G36*
X446063Y270557D02*
X442520D01*
X441583Y270371D01*
X440789Y269841D01*
X440259Y269047D01*
X440073Y268110D01*
X440259Y267174D01*
X440789Y266380D01*
X441583Y265849D01*
X442520Y265663D01*
X446063D01*
X446999Y265849D01*
X447280Y266037D01*
X449240D01*
Y270183D01*
X447280D01*
X446999Y270371D01*
X446063Y270557D01*
D02*
G37*
G36*
X415748Y264652D02*
X405118D01*
X404182Y264465D01*
X403388Y263935D01*
X402857Y263141D01*
X402671Y262205D01*
X402857Y261268D01*
X403388Y260474D01*
X404182Y259944D01*
X405118Y259758D01*
X415748D01*
X416684Y259944D01*
X417478Y260474D01*
X418009Y261268D01*
X418195Y262205D01*
X418009Y263141D01*
X417478Y263935D01*
X416684Y264465D01*
X415748Y264652D01*
D02*
G37*
G36*
X456693Y257537D02*
X456069Y257413D01*
X455549Y257066D01*
X455541Y257063D01*
X455487Y257012D01*
X455443Y256979D01*
X455396Y256949D01*
X455344Y256922D01*
X455285Y256899D01*
X455220Y256878D01*
X455147Y256862D01*
X455066Y256849D01*
X454978Y256841D01*
X454870Y256838D01*
X454836Y256823D01*
X440484D01*
Y256837D01*
X439547Y256713D01*
X438674Y256352D01*
X437924Y255776D01*
X437349Y255027D01*
X436988Y254154D01*
X436872Y253276D01*
X436642Y253122D01*
X436288Y252593D01*
X436164Y251969D01*
X436288Y251344D01*
X436642Y250815D01*
X437171Y250461D01*
X437795Y250337D01*
X438420Y250461D01*
X438949Y250815D01*
X439302Y251344D01*
X439427Y251969D01*
X439302Y252593D01*
X438949Y253122D01*
X438722Y253273D01*
X438846Y253895D01*
X439230Y254470D01*
X439805Y254855D01*
X440479Y254989D01*
X440484Y254988D01*
X454836D01*
X454870Y254973D01*
X454978Y254970D01*
X455066Y254962D01*
X455147Y254949D01*
X455220Y254933D01*
X455285Y254912D01*
X455344Y254889D01*
X455396Y254862D01*
X455443Y254832D01*
X455486Y254799D01*
X455541Y254748D01*
X455549Y254745D01*
X456069Y254398D01*
X456693Y254274D01*
X457317Y254398D01*
X457846Y254752D01*
X458200Y255281D01*
X458324Y255906D01*
X458200Y256530D01*
X457846Y257059D01*
X457317Y257413D01*
X456693Y257537D01*
D02*
G37*
G36*
X449634Y251286D02*
X445684D01*
Y250270D01*
X445677Y250258D01*
X445675Y250235D01*
X445661Y250226D01*
X445606Y250204D01*
X445521Y250181D01*
X445406Y250163D01*
X445264Y250150D01*
X445085Y250145D01*
X445051Y250130D01*
X444573D01*
X444539Y250145D01*
X444431Y250148D01*
X444343Y250156D01*
X444262Y250169D01*
X444190Y250185D01*
X444124Y250206D01*
X444066Y250229D01*
X444013Y250256D01*
X443966Y250286D01*
X443923Y250319D01*
X443868Y250370D01*
X443860Y250373D01*
X443341Y250720D01*
X442717Y250844D01*
X442092Y250720D01*
X441563Y250366D01*
X441209Y249837D01*
X441085Y249213D01*
X441209Y248588D01*
X441563Y248059D01*
X441727Y247950D01*
X441761Y247889D01*
X441815Y247847D01*
X441845Y247817D01*
X441872Y247783D01*
X441897Y247745D01*
X441919Y247699D01*
X441939Y247645D01*
X441956Y247582D01*
X441969Y247509D01*
X441977Y247425D01*
X441981Y247318D01*
X441995Y247287D01*
X441988Y247253D01*
X441996Y247240D01*
Y220866D01*
X441985D01*
X442097Y220015D01*
X442426Y219221D01*
X442949Y218540D01*
X443630Y218017D01*
X444424Y217688D01*
X445276Y217576D01*
X445276Y217576D01*
X445768Y217557D01*
X445800Y217554D01*
X445915Y217535D01*
X446000Y217512D01*
X446054Y217491D01*
X446069Y217482D01*
X446071Y217458D01*
X446078Y217446D01*
Y216431D01*
X450027D01*
Y220577D01*
X446078D01*
Y219562D01*
X446071Y219550D01*
X446069Y219526D01*
X446054Y219517D01*
X446000Y219495D01*
X445915Y219473D01*
X445800Y219454D01*
X445765Y219451D01*
X445491Y219437D01*
X445478Y219437D01*
X445276Y219426D01*
X445276Y219426D01*
X445276Y219426D01*
X444725Y219536D01*
X444257Y219848D01*
X443945Y220315D01*
X443836Y220866D01*
X443831D01*
Y247464D01*
X443846Y247496D01*
X443856Y247716D01*
X443866Y247799D01*
X443881Y247881D01*
X443899Y247956D01*
X443921Y248025D01*
X443945Y248089D01*
X443970Y248142D01*
X444013Y248169D01*
X444066Y248196D01*
X444124Y248219D01*
X444190Y248240D01*
X444262Y248256D01*
X444343Y248269D01*
X444431Y248277D01*
X444539Y248280D01*
X444573Y248295D01*
X445051D01*
X445085Y248280D01*
X445264Y248275D01*
X445406Y248263D01*
X445521Y248244D01*
X445606Y248221D01*
X445661Y248199D01*
X445675Y248190D01*
X445677Y248167D01*
X445684Y248155D01*
Y247139D01*
X449634D01*
Y251286D01*
D02*
G37*
G36*
X463386Y252290D02*
X455512D01*
X454755Y252190D01*
X454049Y251898D01*
X453443Y251433D01*
X453330Y251286D01*
X451941D01*
Y247139D01*
X453649D01*
X454049Y246832D01*
X454755Y246540D01*
X455512Y246440D01*
X463386D01*
X464143Y246540D01*
X464295Y246603D01*
X468117D01*
Y252127D01*
X464295D01*
X464143Y252190D01*
X463386Y252290D01*
D02*
G37*
G36*
X463250Y271035D02*
X454724D01*
X453967Y270936D01*
X453262Y270643D01*
X452663Y270183D01*
X451548D01*
Y266037D01*
X452663D01*
X453262Y265577D01*
X453967Y265285D01*
X454724Y265185D01*
X463250D01*
X463328Y265196D01*
X468133D01*
Y265663D01*
X469685D01*
X469712Y265669D01*
X469958Y265620D01*
X470189Y265465D01*
X470344Y265234D01*
X470393Y264988D01*
X470388Y264961D01*
Y240180D01*
X470328Y239756D01*
X469903Y239696D01*
X469685D01*
X468909Y239713D01*
X468262Y239767D01*
X468040Y239801D01*
X467920Y239828D01*
X467920Y240011D01*
X467508Y240032D01*
X467458Y240011D01*
X467420Y240011D01*
X464947D01*
X464848Y240087D01*
X464143Y240379D01*
X463386Y240479D01*
X455512D01*
X454755Y240379D01*
X454049Y240087D01*
X453443Y239622D01*
X453330Y239475D01*
X451941D01*
Y235328D01*
X453649D01*
X454049Y235021D01*
X454755Y234729D01*
X455512Y234629D01*
X458459D01*
Y234487D01*
X467420D01*
X467458Y234487D01*
X467508Y234466D01*
X467920Y234487D01*
Y234670D01*
X468022Y234693D01*
X469643Y234802D01*
X470320D01*
X470389Y234816D01*
X471603Y234976D01*
X472798Y235471D01*
X473825Y236259D01*
X474613Y237285D01*
X475108Y238481D01*
X475268Y239695D01*
X475282Y239764D01*
Y264961D01*
X475282D01*
X475092Y266409D01*
X474533Y267759D01*
X473643Y268919D01*
X472484Y269808D01*
X471134Y270367D01*
X469685Y270558D01*
Y270557D01*
X468133D01*
Y270720D01*
X464527D01*
X464007Y270936D01*
X463250Y271035D01*
D02*
G37*
G36*
X449634Y239475D02*
X445684D01*
Y235328D01*
X446601D01*
X446613Y235322D01*
X446637Y235319D01*
X446645Y235305D01*
X446667Y235251D01*
X446690Y235165D01*
X446709Y235051D01*
X446721Y234908D01*
X446726Y234729D01*
X446741Y234695D01*
Y233837D01*
X446734D01*
X446832Y233094D01*
X447119Y232401D01*
X447575Y231806D01*
X448170Y231350D01*
X448863Y231063D01*
X449606Y230965D01*
Y230972D01*
X455130D01*
X455166Y230957D01*
X455277Y230955D01*
X455483Y230942D01*
X455564Y230932D01*
X455733Y230902D01*
X455797Y230885D01*
X455860Y230865D01*
X455916Y230844D01*
X455979Y230815D01*
X456013Y230814D01*
X456069Y230776D01*
X456693Y230652D01*
X457317Y230776D01*
X457846Y231130D01*
X458200Y231659D01*
X458324Y232283D01*
X458200Y232908D01*
X457846Y233437D01*
X457317Y233791D01*
X456693Y233915D01*
X456069Y233791D01*
X455539Y233437D01*
X455276Y233043D01*
X455229Y233006D01*
X455201Y232955D01*
X455185Y232934D01*
X455167Y232916D01*
X455144Y232898D01*
X455113Y232881D01*
X455072Y232863D01*
X455018Y232847D01*
X454951Y232835D01*
X454871Y232826D01*
X454763Y232822D01*
X454730Y232807D01*
X449606D01*
Y232820D01*
X449217Y232898D01*
X448887Y233118D01*
X448667Y233448D01*
X448589Y233837D01*
X448576D01*
Y234695D01*
X448592Y234729D01*
X448596Y234908D01*
X448609Y235051D01*
X448628Y235165D01*
X448650Y235251D01*
X448672Y235305D01*
X448681Y235319D01*
X448705Y235322D01*
X448717Y235328D01*
X449634D01*
Y239475D01*
D02*
G37*
G36*
X463780Y221581D02*
X455905D01*
X455149Y221482D01*
X454443Y221189D01*
X453837Y220725D01*
X453724Y220577D01*
X452335D01*
Y216431D01*
X454042D01*
X454443Y216123D01*
X455149Y215831D01*
X455905Y215731D01*
X463780D01*
X464537Y215831D01*
X464689Y215894D01*
X467904D01*
Y221419D01*
X464689D01*
X464537Y221482D01*
X463780Y221581D01*
D02*
G37*
G36*
X483098Y179239D02*
X479148D01*
Y178026D01*
X479142Y178014D01*
X479139Y177991D01*
X479125Y177982D01*
X479071Y177960D01*
X478986Y177937D01*
X478871Y177918D01*
X478728Y177906D01*
X478549Y177901D01*
X478515Y177886D01*
X476399D01*
X476365Y177901D01*
X476187Y177906D01*
X475766Y178132D01*
Y178133D01*
X475766D01*
X475766Y178353D01*
X475354Y178374D01*
X475344Y178370D01*
X475306Y178371D01*
X475273Y178353D01*
X470242D01*
Y175584D01*
X475266D01*
X475273Y175584D01*
X475306Y175566D01*
X475344Y175567D01*
X475354Y175563D01*
X475766Y175584D01*
Y175804D01*
X475766D01*
Y175805D01*
X476187Y176031D01*
X476365Y176036D01*
X476399Y176051D01*
X478515D01*
X478549Y176036D01*
X478728Y176031D01*
X478871Y176019D01*
X478986Y176000D01*
X479071Y175977D01*
X479125Y175955D01*
X479139Y175946D01*
X479142Y175923D01*
X479148Y175911D01*
Y175092D01*
X483098D01*
Y179239D01*
D02*
G37*
G36*
X428392Y191050D02*
X414128D01*
Y185328D01*
X428392D01*
Y186089D01*
X428411Y186123D01*
X428425Y186262D01*
X428450Y186333D01*
X428492Y186396D01*
X428563Y186461D01*
X428676Y186530D01*
X428839Y186597D01*
X429052Y186654D01*
X429315Y186698D01*
X429625Y186726D01*
X429991Y186735D01*
X430004Y186741D01*
X441195D01*
X441207Y186735D01*
X441914Y186713D01*
X442188Y186688D01*
X442385Y186658D01*
X442809Y186414D01*
Y186414D01*
X442809D01*
Y186193D01*
X443221Y186172D01*
X443259Y186188D01*
X443300Y186180D01*
X443321Y186193D01*
X446955D01*
Y187089D01*
X446974Y187123D01*
X446976Y187148D01*
X446989Y187155D01*
X447042Y187177D01*
X447125Y187199D01*
X447238Y187218D01*
X447378Y187231D01*
X447495Y187234D01*
X447750Y187235D01*
X447787Y187250D01*
X454004D01*
X454042Y187258D01*
X455778Y187087D01*
X457484Y186570D01*
X459056Y185729D01*
X460434Y184598D01*
X461565Y183220D01*
X462405Y181648D01*
X462923Y179942D01*
X463094Y178207D01*
X463086Y178168D01*
Y175246D01*
X463071Y175212D01*
X463066Y175033D01*
X463054Y174890D01*
X463035Y174776D01*
X463012Y174690D01*
X462991Y174636D01*
X462982Y174622D01*
X462958Y174619D01*
X462946Y174613D01*
X461242D01*
Y171844D01*
X466766D01*
Y174613D01*
X465062D01*
X465050Y174619D01*
X465026Y174622D01*
X465017Y174636D01*
X464995Y174690D01*
X464973Y174776D01*
X464954Y174890D01*
X464941Y175033D01*
X464937Y175212D01*
X464922Y175246D01*
Y178168D01*
X464938D01*
X464803Y179878D01*
X464402Y181547D01*
X463746Y183132D01*
X462850Y184595D01*
X461735Y185899D01*
X460431Y187014D01*
X458968Y187910D01*
X457383Y188567D01*
X455714Y188967D01*
X454004Y189102D01*
Y189086D01*
X447787D01*
X447750Y189101D01*
X447495Y189102D01*
X447378Y189105D01*
X447238Y189118D01*
X447125Y189137D01*
X447042Y189159D01*
X446989Y189181D01*
X446976Y189189D01*
X446974Y189213D01*
X446955Y189248D01*
Y190143D01*
X443321D01*
X443300Y190156D01*
X443259Y190148D01*
X443221Y190164D01*
X442809Y190143D01*
Y189923D01*
X442809D01*
Y189923D01*
X442385Y189679D01*
X442193Y189649D01*
X441582Y189606D01*
X441214Y189601D01*
X441202Y189595D01*
X430004D01*
X429991Y189601D01*
X429625Y189611D01*
X429315Y189638D01*
X429052Y189682D01*
X428839Y189739D01*
X428676Y189806D01*
X428563Y189875D01*
X428492Y189941D01*
X428450Y190003D01*
X428425Y190074D01*
X428411Y190213D01*
X428392Y190248D01*
Y191050D01*
D02*
G37*
G36*
X446850Y311080D02*
X446226Y310956D01*
X445697Y310602D01*
X445343Y310073D01*
X445219Y309449D01*
X445343Y308824D01*
X445690Y308305D01*
X445693Y308297D01*
X445744Y308243D01*
X445777Y308199D01*
X445807Y308152D01*
X445834Y308100D01*
X445857Y308041D01*
X445878Y307976D01*
X445894Y307903D01*
X445907Y307822D01*
X445915Y307734D01*
X445918Y307626D01*
X445933Y307592D01*
Y280098D01*
X445921D01*
X446039Y279200D01*
X446385Y278364D01*
X446937Y277645D01*
X447655Y277094D01*
X448492Y276748D01*
X449390Y276629D01*
Y276641D01*
X503152D01*
Y276629D01*
X503549Y276550D01*
X503885Y276326D01*
X504109Y275990D01*
X504188Y275593D01*
X504201D01*
Y174016D01*
X504201Y174015D01*
X504071Y173030D01*
X503691Y172112D01*
X503086Y171324D01*
X502297Y170719D01*
X501379Y170338D01*
X500394Y170209D01*
X500394Y170209D01*
X489989D01*
X489955Y170224D01*
X489776Y170229D01*
X489633Y170241D01*
X489518Y170260D01*
X489433Y170283D01*
X489379Y170305D01*
X489364Y170313D01*
X489362Y170337D01*
X489356Y170349D01*
Y171365D01*
X488439D01*
X488426Y171371D01*
X488403Y171374D01*
X488394Y171388D01*
X488372Y171442D01*
X488349Y171528D01*
X488331Y171642D01*
X488318Y171785D01*
X488313Y171964D01*
X488298Y171998D01*
Y174459D01*
X488313Y174493D01*
X488318Y174670D01*
X488331Y174809D01*
X488349Y174922D01*
X488372Y175005D01*
X488393Y175058D01*
X488401Y175071D01*
X488426Y175074D01*
X488460Y175092D01*
X489356D01*
Y179239D01*
X485406D01*
Y175092D01*
X486301D01*
X486335Y175074D01*
X486360Y175071D01*
X486368Y175058D01*
X486390Y175005D01*
X486412Y174922D01*
X486431Y174809D01*
X486443Y174670D01*
X486448Y174493D01*
X486463Y174459D01*
Y171998D01*
X486448Y171964D01*
X486443Y171785D01*
X486431Y171642D01*
X486412Y171528D01*
X486389Y171442D01*
X486367Y171388D01*
X486359Y171374D01*
X486335Y171371D01*
X486323Y171365D01*
X485406D01*
Y167218D01*
X489356D01*
Y168234D01*
X489362Y168245D01*
X489364Y168269D01*
X489379Y168278D01*
X489433Y168300D01*
X489518Y168323D01*
X489633Y168342D01*
X489776Y168354D01*
X489955Y168359D01*
X489989Y168374D01*
X500394D01*
Y168343D01*
X501862Y168536D01*
X503230Y169103D01*
X504405Y170004D01*
X505307Y171179D01*
X505873Y172547D01*
X506067Y174016D01*
X506036D01*
Y275593D01*
X506043D01*
X505944Y276341D01*
X505656Y277039D01*
X505196Y277637D01*
X504598Y278097D01*
X503900Y278385D01*
X503152Y278484D01*
Y278477D01*
X449390D01*
Y278478D01*
X448770Y278601D01*
X448244Y278953D01*
X447893Y279478D01*
X447769Y280098D01*
X447768D01*
Y307592D01*
X447783Y307626D01*
X447786Y307734D01*
X447794Y307822D01*
X447807Y307903D01*
X447823Y307976D01*
X447844Y308041D01*
X447867Y308100D01*
X447894Y308152D01*
X447924Y308199D01*
X447957Y308242D01*
X448008Y308297D01*
X448011Y308305D01*
X448358Y308824D01*
X448482Y309449D01*
X448358Y310073D01*
X448004Y310602D01*
X447475Y310956D01*
X446850Y311080D01*
D02*
G37*
G36*
X446955Y183886D02*
X442809D01*
Y179936D01*
X443824D01*
X443836Y179929D01*
X443860Y179927D01*
X443868Y179913D01*
X443890Y179858D01*
X443913Y179773D01*
X443932Y179658D01*
X443944Y179516D01*
X443949Y179337D01*
X443964Y179303D01*
Y173750D01*
X443949Y173716D01*
X443944Y173537D01*
X443932Y173394D01*
X443913Y173280D01*
X443890Y173194D01*
X443868Y173140D01*
X443860Y173126D01*
X443836Y173123D01*
X443824Y173117D01*
X441588D01*
Y167750D01*
X448176D01*
Y173117D01*
X445940D01*
X445928Y173123D01*
X445904Y173126D01*
X445895Y173140D01*
X445873Y173194D01*
X445851Y173280D01*
X445832Y173394D01*
X445819Y173537D01*
X445815Y173716D01*
X445799Y173750D01*
Y179303D01*
X445815Y179337D01*
X445819Y179516D01*
X445832Y179658D01*
X445851Y179773D01*
X445873Y179858D01*
X445895Y179913D01*
X445904Y179927D01*
X445928Y179929D01*
X445940Y179936D01*
X446955D01*
Y183886D01*
D02*
G37*
G36*
X451181Y282340D02*
X450557Y282216D01*
X450028Y281862D01*
X449674Y281333D01*
X449550Y280709D01*
X449674Y280084D01*
X450028Y279555D01*
X450557Y279202D01*
X451181Y279077D01*
X451805Y279202D01*
X452325Y279549D01*
X452333Y279552D01*
X452387Y279602D01*
X452431Y279635D01*
X452478Y279665D01*
X452530Y279692D01*
X452589Y279715D01*
X452654Y279736D01*
X452727Y279753D01*
X452808Y279765D01*
X452896Y279773D01*
X453004Y279776D01*
X453038Y279791D01*
X503543D01*
Y279788D01*
X504426Y279672D01*
X505248Y279331D01*
X505955Y278789D01*
X506496Y278083D01*
X506837Y277260D01*
X506953Y276378D01*
X506956D01*
Y162992D01*
X506953D01*
X506837Y162110D01*
X506496Y161287D01*
X505955Y160581D01*
X505248Y160039D01*
X504426Y159698D01*
X503543Y159582D01*
Y159579D01*
X475984D01*
X475966Y159575D01*
X475192Y159729D01*
X474520Y160178D01*
X474072Y160849D01*
X473918Y161623D01*
X473922Y161642D01*
Y167471D01*
X473937Y167505D01*
X473941Y167684D01*
X473954Y167826D01*
X473973Y167941D01*
X473995Y168026D01*
X474017Y168081D01*
X474026Y168095D01*
X474050Y168097D01*
X474062Y168104D01*
X475266D01*
X475273Y168104D01*
X475306Y168086D01*
X475344Y168087D01*
X475354Y168083D01*
X475766Y168104D01*
Y168324D01*
X475766D01*
Y168324D01*
X476187Y168551D01*
X476365Y168555D01*
X476399Y168571D01*
X478515D01*
X478549Y168555D01*
X478728Y168551D01*
X478871Y168538D01*
X478986Y168519D01*
X479071Y168497D01*
X479125Y168475D01*
X479139Y168466D01*
X479142Y168442D01*
X479148Y168430D01*
Y167218D01*
X483098D01*
Y171365D01*
X479148D01*
Y170546D01*
X479142Y170534D01*
X479139Y170510D01*
X479125Y170502D01*
X479071Y170480D01*
X478986Y170457D01*
X478871Y170438D01*
X478728Y170426D01*
X478549Y170421D01*
X478515Y170406D01*
X476399D01*
X476365Y170421D01*
X476187Y170425D01*
X475766Y170652D01*
Y170652D01*
X475766D01*
X475766Y170872D01*
X475354Y170893D01*
X475344Y170889D01*
X475306Y170891D01*
X475273Y170872D01*
X470242D01*
Y168104D01*
X471946D01*
X471958Y168097D01*
X471982Y168095D01*
X471990Y168081D01*
X472012Y168026D01*
X472035Y167941D01*
X472054Y167826D01*
X472066Y167684D01*
X472071Y167505D01*
X472086Y167471D01*
Y161642D01*
X472070D01*
X472204Y160629D01*
X472595Y159685D01*
X473217Y158874D01*
X474027Y158252D01*
X474971Y157861D01*
X475984Y157728D01*
Y157744D01*
X503543D01*
Y157716D01*
X504909Y157896D01*
X506181Y158423D01*
X507274Y159262D01*
X508112Y160354D01*
X508639Y161627D01*
X508819Y162992D01*
X508792D01*
Y276378D01*
X508819D01*
X508639Y277743D01*
X508112Y279016D01*
X507274Y280108D01*
X506181Y280947D01*
X504909Y281474D01*
X503543Y281654D01*
Y281626D01*
X453038D01*
X453004Y281641D01*
X452896Y281645D01*
X452808Y281652D01*
X452727Y281665D01*
X452654Y281681D01*
X452589Y281702D01*
X452530Y281725D01*
X452478Y281752D01*
X452431Y281782D01*
X452388Y281815D01*
X452333Y281866D01*
X452325Y281869D01*
X451805Y282216D01*
X451181Y282340D01*
D02*
G37*
%LPD*%
G36*
X475364Y418009D02*
X475394Y417928D01*
X475444Y417857D01*
X475514Y417796D01*
X475604Y417744D01*
X475714Y417702D01*
X475844Y417668D01*
X475994Y417645D01*
X476164Y417631D01*
X476354Y417626D01*
Y416626D01*
X476164Y416621D01*
X475994Y416607D01*
X475844Y416583D01*
X475714Y416550D01*
X475604Y416508D01*
X475514Y416456D01*
X475444Y416395D01*
X475394Y416324D01*
X475364Y416244D01*
X475354Y416154D01*
Y418098D01*
X475364Y418009D01*
D02*
G37*
G36*
X479572Y416126D02*
X479562Y416221D01*
X479532Y416306D01*
X479481Y416381D01*
X479411Y416446D01*
X479319Y416501D01*
X479208Y416546D01*
X479077Y416581D01*
X478925Y416606D01*
X478753Y416621D01*
X478560Y416626D01*
Y417626D01*
X478753Y417631D01*
X478925Y417646D01*
X479077Y417671D01*
X479208Y417706D01*
X479319Y417751D01*
X479411Y417806D01*
X479481Y417871D01*
X479532Y417946D01*
X479562Y418031D01*
X479572Y418126D01*
Y416126D01*
D02*
G37*
G36*
X475364Y410528D02*
X475394Y410448D01*
X475444Y410377D01*
X475514Y410316D01*
X475604Y410264D01*
X475714Y410221D01*
X475844Y410188D01*
X475994Y410165D01*
X476164Y410150D01*
X476354Y410146D01*
Y409146D01*
X476164Y409141D01*
X475994Y409127D01*
X475844Y409103D01*
X475714Y409070D01*
X475604Y409028D01*
X475514Y408976D01*
X475444Y408914D01*
X475394Y408843D01*
X475364Y408763D01*
X475354Y408673D01*
Y410618D01*
X475364Y410528D01*
D02*
G37*
G36*
X479572Y408646D02*
X479562Y408741D01*
X479532Y408826D01*
X479481Y408901D01*
X479411Y408966D01*
X479319Y409021D01*
X479208Y409066D01*
X479077Y409101D01*
X478925Y409126D01*
X478753Y409141D01*
X478560Y409146D01*
Y410146D01*
X478753Y410151D01*
X478925Y410166D01*
X479077Y410191D01*
X479208Y410226D01*
X479319Y410271D01*
X479411Y410326D01*
X479481Y410391D01*
X479532Y410466D01*
X479562Y410551D01*
X479572Y410646D01*
Y408646D01*
D02*
G37*
G36*
X482028Y407778D02*
X481943Y407748D01*
X481868Y407698D01*
X481803Y407628D01*
X481748Y407538D01*
X481703Y407428D01*
X481668Y407298D01*
X481643Y407148D01*
X481628Y406978D01*
X481623Y406788D01*
X480623D01*
X480618Y406978D01*
X480603Y407148D01*
X480578Y407298D01*
X480543Y407428D01*
X480498Y407538D01*
X480443Y407628D01*
X480378Y407698D01*
X480303Y407748D01*
X480218Y407778D01*
X480123Y407788D01*
X482123D01*
X482028Y407778D01*
D02*
G37*
G36*
X506409Y308383D02*
X506419Y308267D01*
X506436Y308157D01*
X506460Y308053D01*
X506491Y307955D01*
X506528Y307862D01*
X506572Y307776D01*
X506623Y307695D01*
X506681Y307619D01*
X506745Y307550D01*
X505065D01*
X505130Y307619D01*
X505188Y307695D01*
X505239Y307776D01*
X505283Y307862D01*
X505321Y307955D01*
X505351Y308053D01*
X505375Y308157D01*
X505392Y308267D01*
X505402Y308383D01*
X505406Y308504D01*
X506405D01*
X506409Y308383D01*
D02*
G37*
G36*
X482029Y426760D02*
X482104Y426702D01*
X482185Y426651D01*
X482272Y426607D01*
X482364Y426569D01*
X482463Y426539D01*
X482567Y426515D01*
X482677Y426498D01*
X482792Y426488D01*
X482913Y426484D01*
Y425484D01*
X482792Y425481D01*
X482677Y425471D01*
X482567Y425454D01*
X482463Y425430D01*
X482364Y425399D01*
X482272Y425362D01*
X482185Y425318D01*
X482104Y425267D01*
X482029Y425209D01*
X481959Y425144D01*
Y426824D01*
X482029Y426760D01*
D02*
G37*
G36*
X502472Y411138D02*
X502482Y411023D01*
X502499Y410913D01*
X502523Y410809D01*
X502554Y410711D01*
X502591Y410618D01*
X502635Y410532D01*
X502686Y410451D01*
X502744Y410375D01*
X502809Y410306D01*
X501128D01*
X501193Y410375D01*
X501251Y410451D01*
X501302Y410532D01*
X501346Y410618D01*
X501383Y410711D01*
X501414Y410809D01*
X501438Y410913D01*
X501455Y411023D01*
X501465Y411138D01*
X501469Y411260D01*
X502468D01*
X502472Y411138D01*
D02*
G37*
G36*
X488286Y415652D02*
X488201Y415622D01*
X488126Y415572D01*
X488061Y415502D01*
X488006Y415412D01*
X487961Y415302D01*
X487926Y415172D01*
X487901Y415022D01*
X487886Y414852D01*
X487881Y414662D01*
X486881D01*
X486876Y414852D01*
X486861Y415022D01*
X486836Y415172D01*
X486801Y415302D01*
X486756Y415412D01*
X486701Y415502D01*
X486636Y415572D01*
X486561Y415622D01*
X486476Y415652D01*
X486381Y415662D01*
X488381D01*
X488286Y415652D01*
D02*
G37*
G36*
X487886Y411918D02*
X487901Y411746D01*
X487926Y411594D01*
X487961Y411462D01*
X488006Y411351D01*
X488061Y411260D01*
X488126Y411189D01*
X488201Y411138D01*
X488286Y411108D01*
X488381Y411098D01*
X486381D01*
X486476Y411108D01*
X486561Y411138D01*
X486636Y411189D01*
X486701Y411260D01*
X486756Y411351D01*
X486801Y411462D01*
X486836Y411594D01*
X486861Y411746D01*
X486876Y411918D01*
X486881Y412110D01*
X487881D01*
X487886Y411918D01*
D02*
G37*
G36*
X491041Y408543D02*
X490998Y408620D01*
X490946Y408689D01*
X490886Y408750D01*
X490816Y408803D01*
X490737Y408847D01*
X490650Y408884D01*
X490554Y408912D01*
X490448Y408933D01*
X490334Y408945D01*
X490211Y408949D01*
X490605Y409949D01*
X490727Y409951D01*
X491062Y409978D01*
X491163Y409994D01*
X491350Y410038D01*
X491436Y410065D01*
X491517Y410095D01*
X491592Y410130D01*
X491041Y408543D01*
D02*
G37*
G36*
X488942Y410354D02*
X488972Y410269D01*
X489022Y410194D01*
X489093Y410129D01*
X489185Y410074D01*
X489296Y410029D01*
X489427Y409994D01*
X489579Y409969D01*
X489751Y409954D01*
X489944Y409949D01*
Y408949D01*
X489751Y408944D01*
X489579Y408929D01*
X489427Y408904D01*
X489296Y408869D01*
X489185Y408824D01*
X489093Y408769D01*
X489022Y408704D01*
X488972Y408629D01*
X488942Y408544D01*
X488932Y408449D01*
Y410449D01*
X488942Y410354D01*
D02*
G37*
G36*
X475364Y374701D02*
X475394Y374621D01*
X475444Y374550D01*
X475514Y374489D01*
X475604Y374437D01*
X475714Y374394D01*
X475844Y374361D01*
X475994Y374338D01*
X476164Y374324D01*
X476354Y374319D01*
Y373319D01*
X476164Y373314D01*
X475994Y373300D01*
X475844Y373276D01*
X475714Y373243D01*
X475604Y373201D01*
X475514Y373149D01*
X475444Y373088D01*
X475394Y373017D01*
X475364Y372936D01*
X475354Y372847D01*
Y374791D01*
X475364Y374701D01*
D02*
G37*
G36*
X479572Y372819D02*
X479562Y372914D01*
X479532Y372999D01*
X479481Y373074D01*
X479411Y373139D01*
X479319Y373194D01*
X479208Y373239D01*
X479077Y373274D01*
X478925Y373299D01*
X478753Y373314D01*
X478560Y373319D01*
Y374319D01*
X478753Y374324D01*
X478925Y374339D01*
X479077Y374364D01*
X479208Y374399D01*
X479319Y374444D01*
X479411Y374499D01*
X479481Y374564D01*
X479532Y374639D01*
X479562Y374724D01*
X479572Y374819D01*
Y372819D01*
D02*
G37*
G36*
X475364Y367047D02*
X475394Y366962D01*
X475444Y366887D01*
X475514Y366822D01*
X475604Y366767D01*
X475714Y366722D01*
X475844Y366687D01*
X475994Y366662D01*
X476164Y366647D01*
X476354Y366642D01*
Y365642D01*
X476164Y365639D01*
X475844Y365617D01*
X475714Y365598D01*
X475604Y365573D01*
X475514Y365543D01*
X475444Y365507D01*
X475394Y365465D01*
X475364Y365419D01*
X475354Y365366D01*
Y367142D01*
X475364Y367047D01*
D02*
G37*
G36*
X479572Y365142D02*
X479562Y365237D01*
X479532Y365322D01*
X479481Y365397D01*
X479411Y365462D01*
X479319Y365517D01*
X479208Y365562D01*
X479077Y365597D01*
X478925Y365622D01*
X478753Y365637D01*
X478560Y365642D01*
Y366642D01*
X478753Y366647D01*
X478925Y366662D01*
X479077Y366687D01*
X479208Y366722D01*
X479319Y366767D01*
X479411Y366822D01*
X479481Y366887D01*
X479532Y366962D01*
X479562Y367047D01*
X479572Y367142D01*
Y365142D01*
D02*
G37*
G36*
X482007Y364471D02*
X481922Y364440D01*
X481847Y364390D01*
X481782Y364320D01*
X481727Y364230D01*
X481682Y364121D01*
X481647Y363990D01*
X481622Y363841D01*
X481607Y363670D01*
X481602Y363480D01*
X480602D01*
X480597Y363670D01*
X480582Y363841D01*
X480557Y363990D01*
X480522Y364121D01*
X480477Y364230D01*
X480422Y364320D01*
X480357Y364390D01*
X480282Y364440D01*
X480197Y364471D01*
X480102Y364480D01*
X482102D01*
X482007Y364471D01*
D02*
G37*
G36*
X481606Y359564D02*
X481616Y359448D01*
X481633Y359338D01*
X481657Y359234D01*
X481687Y359136D01*
X481725Y359044D01*
X481769Y358957D01*
X481820Y358876D01*
X481878Y358801D01*
X481942Y358731D01*
X480262D01*
X480327Y358801D01*
X480385Y358876D01*
X480436Y358957D01*
X480480Y359044D01*
X480517Y359136D01*
X480548Y359234D01*
X480572Y359338D01*
X480589Y359448D01*
X480599Y359564D01*
X480602Y359685D01*
X481602D01*
X481606Y359564D01*
D02*
G37*
G36*
X488177Y337656D02*
X488119Y337581D01*
X488068Y337500D01*
X488024Y337413D01*
X487987Y337321D01*
X487956Y337222D01*
X487932Y337118D01*
X487915Y337009D01*
X487905Y336893D01*
X487902Y336772D01*
X486902D01*
X486898Y336893D01*
X486888Y337009D01*
X486871Y337118D01*
X486847Y337222D01*
X486817Y337321D01*
X486779Y337413D01*
X486735Y337500D01*
X486684Y337581D01*
X486626Y337656D01*
X486562Y337726D01*
X488242D01*
X488177Y337656D01*
D02*
G37*
G36*
X487905Y327280D02*
X487915Y327165D01*
X487932Y327055D01*
X487956Y326951D01*
X487987Y326853D01*
X488024Y326760D01*
X488068Y326673D01*
X488119Y326592D01*
X488177Y326517D01*
X488242Y326448D01*
X486562D01*
X486626Y326517D01*
X486684Y326592D01*
X486735Y326673D01*
X486779Y326760D01*
X486817Y326853D01*
X486847Y326951D01*
X486871Y327055D01*
X486888Y327165D01*
X486898Y327280D01*
X486902Y327401D01*
X487902D01*
X487905Y327280D01*
D02*
G37*
G36*
X493425Y334287D02*
X493340Y334256D01*
X493265Y334206D01*
X493200Y334135D01*
X493145Y334044D01*
X493100Y333933D01*
X493065Y333801D01*
X493040Y333649D01*
X493025Y333477D01*
X493020Y333285D01*
X492020D01*
X492015Y333477D01*
X492000Y333649D01*
X491975Y333801D01*
X491940Y333933D01*
X491895Y334044D01*
X491840Y334135D01*
X491775Y334206D01*
X491700Y334256D01*
X491615Y334287D01*
X491520Y334297D01*
X493520D01*
X493425Y334287D01*
D02*
G37*
G36*
X447777Y323610D02*
X447852Y323552D01*
X447933Y323501D01*
X448020Y323457D01*
X448112Y323420D01*
X448211Y323389D01*
X448315Y323365D01*
X448424Y323348D01*
X448540Y323338D01*
X448661Y323335D01*
Y322335D01*
X448540Y322331D01*
X448424Y322321D01*
X448315Y322304D01*
X448211Y322280D01*
X448112Y322250D01*
X448020Y322212D01*
X447933Y322168D01*
X447852Y322117D01*
X447777Y322059D01*
X447707Y321995D01*
Y323675D01*
X447777Y323610D01*
D02*
G37*
G36*
X493023Y308776D02*
X493033Y308661D01*
X493050Y308551D01*
X493074Y308447D01*
X493105Y308349D01*
X493142Y308256D01*
X493186Y308169D01*
X493237Y308088D01*
X493295Y308013D01*
X493360Y307944D01*
X491680D01*
X491744Y308013D01*
X491802Y308088D01*
X491853Y308169D01*
X491897Y308256D01*
X491935Y308349D01*
X491965Y308447D01*
X491989Y308551D01*
X492006Y308661D01*
X492016Y308776D01*
X492020Y308897D01*
X493020D01*
X493023Y308776D01*
D02*
G37*
G36*
X497113Y293322D02*
X497053Y293387D01*
X496987Y293448D01*
X496913Y293505D01*
X496833Y293558D01*
X496745Y293607D01*
X496650Y293653D01*
X496548Y293695D01*
X496439Y293733D01*
X496201Y293797D01*
X496272Y294808D01*
X496387Y294783D01*
X496499Y294769D01*
X496606Y294764D01*
X496709Y294769D01*
X496808Y294783D01*
X496903Y294807D01*
X496993Y294840D01*
X497080Y294883D01*
X497163Y294935D01*
X497241Y294997D01*
X497113Y293322D01*
D02*
G37*
G36*
X502744Y386081D02*
X502686Y386006D01*
X502635Y385925D01*
X502591Y385838D01*
X502554Y385746D01*
X502523Y385648D01*
X502499Y385543D01*
X502482Y385434D01*
X502472Y385318D01*
X502468Y385197D01*
X501469D01*
X501465Y385318D01*
X501455Y385434D01*
X501438Y385543D01*
X501414Y385648D01*
X501383Y385746D01*
X501346Y385838D01*
X501302Y385925D01*
X501251Y386006D01*
X501193Y386081D01*
X501128Y386151D01*
X502809D01*
X502744Y386081D01*
D02*
G37*
G36*
X502472Y308383D02*
X502482Y308267D01*
X502499Y308157D01*
X502523Y308053D01*
X502554Y307955D01*
X502591Y307862D01*
X502635Y307776D01*
X502686Y307695D01*
X502744Y307619D01*
X502809Y307550D01*
X501128D01*
X501193Y307619D01*
X501251Y307695D01*
X501302Y307776D01*
X501346Y307862D01*
X501383Y307955D01*
X501414Y308053D01*
X501438Y308157D01*
X501455Y308267D01*
X501465Y308383D01*
X501469Y308504D01*
X502468D01*
X502472Y308383D01*
D02*
G37*
G36*
X498807Y356947D02*
X498749Y356872D01*
X498698Y356791D01*
X498654Y356704D01*
X498617Y356612D01*
X498586Y356514D01*
X498562Y356410D01*
X498545Y356300D01*
X498535Y356184D01*
X498531Y356063D01*
X497532D01*
X497528Y356184D01*
X497518Y356300D01*
X497501Y356410D01*
X497477Y356514D01*
X497446Y356612D01*
X497409Y356704D01*
X497365Y356791D01*
X497314Y356872D01*
X497256Y356947D01*
X497191Y357017D01*
X498872D01*
X498807Y356947D01*
D02*
G37*
G36*
X498535Y300902D02*
X498545Y300787D01*
X498562Y300677D01*
X498586Y300573D01*
X498617Y300475D01*
X498654Y300382D01*
X498698Y300295D01*
X498749Y300214D01*
X498807Y300139D01*
X498872Y300070D01*
X497191D01*
X497256Y300139D01*
X497314Y300214D01*
X497365Y300295D01*
X497409Y300382D01*
X497446Y300475D01*
X497477Y300573D01*
X497501Y300677D01*
X497518Y300787D01*
X497528Y300902D01*
X497532Y301024D01*
X498531D01*
X498535Y300902D01*
D02*
G37*
G36*
X447777Y315342D02*
X447852Y315284D01*
X447933Y315233D01*
X448020Y315189D01*
X448112Y315152D01*
X448211Y315121D01*
X448315Y315097D01*
X448424Y315080D01*
X448540Y315070D01*
X448661Y315067D01*
Y314067D01*
X448540Y314064D01*
X448424Y314053D01*
X448315Y314036D01*
X448211Y314013D01*
X448112Y313982D01*
X448020Y313945D01*
X447933Y313900D01*
X447852Y313849D01*
X447777Y313791D01*
X447707Y313727D01*
Y315407D01*
X447777Y315342D01*
D02*
G37*
G36*
X487905Y300115D02*
X487915Y299999D01*
X487932Y299890D01*
X487956Y299785D01*
X487987Y299687D01*
X488024Y299595D01*
X488068Y299508D01*
X488119Y299427D01*
X488177Y299352D01*
X488242Y299282D01*
X486562D01*
X486626Y299352D01*
X486684Y299427D01*
X486735Y299508D01*
X486779Y299595D01*
X486817Y299687D01*
X486847Y299785D01*
X486871Y299890D01*
X486888Y299999D01*
X486898Y300115D01*
X486902Y300236D01*
X487902D01*
X487905Y300115D01*
D02*
G37*
G36*
X398807Y334113D02*
X398749Y334038D01*
X398698Y333957D01*
X398654Y333870D01*
X398617Y333777D01*
X398586Y333679D01*
X398562Y333575D01*
X398545Y333465D01*
X398535Y333350D01*
X398532Y333228D01*
X397532D01*
X397528Y333350D01*
X397518Y333465D01*
X397501Y333575D01*
X397477Y333679D01*
X397446Y333777D01*
X397409Y333870D01*
X397365Y333957D01*
X397314Y334038D01*
X397256Y334113D01*
X397192Y334182D01*
X398871D01*
X398807Y334113D01*
D02*
G37*
G36*
X481606Y186335D02*
X481616Y186220D01*
X481633Y186110D01*
X481657Y186006D01*
X481687Y185908D01*
X481725Y185815D01*
X481769Y185729D01*
X481820Y185647D01*
X481878Y185572D01*
X481942Y185503D01*
X480262D01*
X480327Y185572D01*
X480385Y185647D01*
X480436Y185729D01*
X480480Y185815D01*
X480517Y185908D01*
X480548Y186006D01*
X480572Y186110D01*
X480589Y186220D01*
X480599Y186335D01*
X480602Y186457D01*
X481602D01*
X481606Y186335D01*
D02*
G37*
G36*
X442000Y161425D02*
X441980Y161615D01*
X441920Y161785D01*
X441820Y161935D01*
X441680Y162065D01*
X441500Y162175D01*
X441280Y162265D01*
X441020Y162335D01*
X440720Y162385D01*
X440380Y162415D01*
X440000Y162425D01*
Y164425D01*
X440380Y164435D01*
X440720Y164465D01*
X441020Y164515D01*
X441280Y164585D01*
X441500Y164675D01*
X441680Y164785D01*
X441820Y164915D01*
X441920Y165065D01*
X441980Y165235D01*
X442000Y165425D01*
Y161425D01*
D02*
G37*
G36*
X445787Y161156D02*
X445702Y161125D01*
X445627Y161075D01*
X445562Y161004D01*
X445507Y160913D01*
X445462Y160801D01*
X445427Y160670D01*
X445402Y160518D01*
X445387Y160346D01*
X445382Y160154D01*
X444382D01*
X444377Y160346D01*
X444362Y160518D01*
X444337Y160670D01*
X444302Y160801D01*
X444257Y160913D01*
X444202Y161004D01*
X444137Y161075D01*
X444062Y161125D01*
X443977Y161156D01*
X443882Y161166D01*
X445882D01*
X445787Y161156D01*
D02*
G37*
G36*
X504820Y148700D02*
X504778Y148777D01*
X504726Y148846D01*
X504665Y148907D01*
X504596Y148960D01*
X504517Y149005D01*
X504429Y149041D01*
X504333Y149070D01*
X504228Y149090D01*
X504113Y149102D01*
X503990Y149106D01*
X504385Y150106D01*
X504507Y150108D01*
X504842Y150135D01*
X504943Y150152D01*
X505130Y150195D01*
X505216Y150222D01*
X505296Y150253D01*
X505372Y150287D01*
X504820Y148700D01*
D02*
G37*
G36*
X393701Y176181D02*
X428150D01*
Y142717D01*
X220472D01*
Y283465D01*
X393701D01*
Y176181D01*
D02*
G37*
G36*
X216535Y283465D02*
X216535Y216535D01*
Y142717D01*
X157480D01*
X157480Y283465D01*
X216535Y283465D01*
D02*
G37*
G36*
X455836Y255065D02*
X455766Y255130D01*
X455691Y255188D01*
X455610Y255239D01*
X455523Y255283D01*
X455431Y255321D01*
X455333Y255351D01*
X455229Y255375D01*
X455119Y255392D01*
X455003Y255402D01*
X454882Y255405D01*
Y256405D01*
X455003Y256409D01*
X455119Y256419D01*
X455229Y256436D01*
X455333Y256460D01*
X455431Y256490D01*
X455523Y256528D01*
X455610Y256572D01*
X455691Y256623D01*
X455766Y256681D01*
X455836Y256746D01*
Y255065D01*
D02*
G37*
G36*
X446108Y248213D02*
X446098Y248308D01*
X446067Y248393D01*
X446017Y248468D01*
X445946Y248533D01*
X445855Y248588D01*
X445744Y248633D01*
X445612Y248668D01*
X445460Y248693D01*
X445288Y248708D01*
X445096Y248713D01*
Y249713D01*
X445288Y249718D01*
X445460Y249733D01*
X445612Y249758D01*
X445744Y249793D01*
X445855Y249838D01*
X445946Y249893D01*
X446017Y249958D01*
X446067Y250033D01*
X446098Y250118D01*
X446108Y250213D01*
Y248213D01*
D02*
G37*
G36*
X443643Y249988D02*
X443718Y249930D01*
X443799Y249879D01*
X443886Y249835D01*
X443979Y249798D01*
X444077Y249767D01*
X444181Y249743D01*
X444291Y249726D01*
X444406Y249716D01*
X444527Y249713D01*
Y248713D01*
X444406Y248709D01*
X444291Y248699D01*
X444181Y248682D01*
X444077Y248658D01*
X443979Y248628D01*
X443886Y248590D01*
X443799Y248546D01*
X443718Y248495D01*
X443643Y248437D01*
X443635Y248430D01*
X443634Y248428D01*
X443588Y248346D01*
X443547Y248259D01*
X443511Y248168D01*
X443481Y248071D01*
X443457Y247970D01*
X443438Y247864D01*
X443424Y247752D01*
X443413Y247516D01*
X442413Y247332D01*
X442410Y247454D01*
X442398Y247569D01*
X442379Y247676D01*
X442352Y247777D01*
X442317Y247870D01*
X442275Y247956D01*
X442225Y248036D01*
X442167Y248107D01*
X442102Y248172D01*
X442029Y248229D01*
X443574Y248486D01*
Y250053D01*
X443643Y249988D01*
D02*
G37*
G36*
X446502Y217504D02*
X446491Y217599D01*
X446461Y217684D01*
X446411Y217759D01*
X446340Y217824D01*
X446249Y217879D01*
X446137Y217924D01*
X446006Y217959D01*
X445854Y217984D01*
X445682Y217999D01*
X445490Y218004D01*
Y219004D01*
X445682Y219009D01*
X445854Y219024D01*
X446006Y219049D01*
X446137Y219084D01*
X446249Y219129D01*
X446340Y219184D01*
X446411Y219249D01*
X446461Y219324D01*
X446491Y219409D01*
X446502Y219504D01*
Y217504D01*
D02*
G37*
G36*
X467536Y239533D02*
X467621Y239473D01*
X467761Y239421D01*
X467958Y239375D01*
X468211Y239337D01*
X468886Y239281D01*
X470320Y239249D01*
Y235249D01*
X469786Y235246D01*
X467958Y235123D01*
X467761Y235078D01*
X467621Y235025D01*
X467536Y234965D01*
X467508Y234899D01*
Y239599D01*
X467536Y239533D01*
D02*
G37*
G36*
X448564Y235742D02*
X448479Y235712D01*
X448404Y235661D01*
X448339Y235590D01*
X448284Y235499D01*
X448239Y235388D01*
X448204Y235257D01*
X448179Y235105D01*
X448164Y234933D01*
X448159Y234740D01*
X447159D01*
X447154Y234933D01*
X447139Y235105D01*
X447114Y235257D01*
X447079Y235388D01*
X447034Y235499D01*
X446979Y235590D01*
X446914Y235661D01*
X446839Y235712D01*
X446754Y235742D01*
X446659Y235752D01*
X448659D01*
X448564Y235742D01*
D02*
G37*
G36*
X456159Y231209D02*
X456083Y231243D01*
X456003Y231274D01*
X455917Y231301D01*
X455826Y231325D01*
X455629Y231361D01*
X455522Y231374D01*
X455294Y231388D01*
X455172Y231390D01*
X454778Y232390D01*
X454901Y232394D01*
X455015Y232406D01*
X455121Y232426D01*
X455217Y232455D01*
X455304Y232491D01*
X455383Y232536D01*
X455452Y232589D01*
X455513Y232650D01*
X455565Y232719D01*
X455608Y232796D01*
X456159Y231209D01*
D02*
G37*
G36*
X475364Y177851D02*
X475394Y177771D01*
X475444Y177700D01*
X475514Y177638D01*
X475604Y177587D01*
X475714Y177544D01*
X475844Y177511D01*
X475994Y177487D01*
X476164Y177473D01*
X476354Y177469D01*
Y176469D01*
X476164Y176464D01*
X475994Y176450D01*
X475844Y176426D01*
X475714Y176393D01*
X475604Y176350D01*
X475514Y176298D01*
X475444Y176237D01*
X475394Y176166D01*
X475364Y176086D01*
X475354Y175996D01*
Y177941D01*
X475364Y177851D01*
D02*
G37*
G36*
X479572Y175969D02*
X479562Y176064D01*
X479532Y176148D01*
X479481Y176224D01*
X479411Y176288D01*
X479319Y176344D01*
X479208Y176389D01*
X479077Y176424D01*
X478925Y176449D01*
X478753Y176463D01*
X478560Y176469D01*
Y177469D01*
X478753Y177473D01*
X478925Y177489D01*
X479077Y177514D01*
X479208Y177549D01*
X479319Y177594D01*
X479411Y177648D01*
X479481Y177714D01*
X479532Y177788D01*
X479562Y177874D01*
X479572Y177969D01*
Y175969D01*
D02*
G37*
G36*
X446553Y189073D02*
X446583Y188988D01*
X446633Y188913D01*
X446703Y188848D01*
X446793Y188793D01*
X446903Y188748D01*
X447033Y188713D01*
X447183Y188688D01*
X447353Y188673D01*
X447488Y188670D01*
X447748Y188668D01*
Y187668D01*
X447488Y187667D01*
X447353Y187663D01*
X447183Y187648D01*
X447033Y187623D01*
X446903Y187588D01*
X446793Y187543D01*
X446703Y187488D01*
X446633Y187423D01*
X446583Y187348D01*
X446553Y187263D01*
X446543Y187168D01*
Y187611D01*
X445870Y187566D01*
X445741Y187535D01*
X445648Y187500D01*
X445589Y187460D01*
Y188876D01*
X445648Y188836D01*
X445741Y188801D01*
X445870Y188770D01*
X446034Y188743D01*
X446466Y188701D01*
X446543Y188699D01*
Y189168D01*
X446553Y189073D01*
D02*
G37*
G36*
X443221Y186605D02*
X443201Y186712D01*
X443141Y186808D01*
X443041Y186892D01*
X442901Y186966D01*
X442721Y187027D01*
X442501Y187078D01*
X442241Y187117D01*
X441941Y187146D01*
X441221Y187168D01*
Y189168D01*
X441601Y189174D01*
X442241Y189219D01*
X442501Y189258D01*
X442721Y189309D01*
X442901Y189371D01*
X443041Y189444D01*
X443141Y189528D01*
X443201Y189624D01*
X443221Y189731D01*
Y186605D01*
D02*
G37*
G36*
X428000Y189978D02*
X428060Y189808D01*
X428160Y189658D01*
X428300Y189528D01*
X428480Y189418D01*
X428700Y189328D01*
X428960Y189258D01*
X429260Y189208D01*
X429600Y189178D01*
X429980Y189168D01*
Y187168D01*
X429600Y187158D01*
X429260Y187128D01*
X428960Y187078D01*
X428700Y187008D01*
X428480Y186918D01*
X428300Y186808D01*
X428160Y186678D01*
X428060Y186528D01*
X428000Y186358D01*
X427980Y186168D01*
Y190168D01*
X428000Y189978D01*
D02*
G37*
G36*
X464509Y175008D02*
X464524Y174836D01*
X464549Y174685D01*
X464584Y174553D01*
X464629Y174442D01*
X464684Y174351D01*
X464749Y174280D01*
X464824Y174229D01*
X464909Y174199D01*
X465004Y174189D01*
X463004D01*
X463099Y174199D01*
X463184Y174229D01*
X463259Y174280D01*
X463324Y174351D01*
X463379Y174442D01*
X463424Y174553D01*
X463459Y174685D01*
X463484Y174836D01*
X463499Y175008D01*
X463504Y175201D01*
X464504D01*
X464509Y175008D01*
D02*
G37*
G36*
X447626Y308522D02*
X447568Y308447D01*
X447517Y308366D01*
X447473Y308279D01*
X447435Y308187D01*
X447405Y308088D01*
X447381Y307984D01*
X447364Y307875D01*
X447354Y307759D01*
X447350Y307638D01*
X446350D01*
X446347Y307759D01*
X446337Y307875D01*
X446320Y307984D01*
X446296Y308088D01*
X446265Y308187D01*
X446228Y308279D01*
X446184Y308366D01*
X446133Y308447D01*
X446075Y308522D01*
X446010Y308592D01*
X447690D01*
X447626Y308522D01*
D02*
G37*
G36*
X488286Y175494D02*
X488201Y175464D01*
X488126Y175414D01*
X488061Y175344D01*
X488006Y175254D01*
X487961Y175144D01*
X487926Y175014D01*
X487901Y174864D01*
X487886Y174694D01*
X487881Y174504D01*
X486881D01*
X486876Y174694D01*
X486861Y174864D01*
X486836Y175014D01*
X486801Y175144D01*
X486756Y175254D01*
X486701Y175344D01*
X486636Y175414D01*
X486561Y175464D01*
X486476Y175494D01*
X486381Y175504D01*
X488381D01*
X488286Y175494D01*
D02*
G37*
G36*
X487886Y171760D02*
X487901Y171588D01*
X487926Y171436D01*
X487961Y171305D01*
X488006Y171194D01*
X488061Y171102D01*
X488126Y171032D01*
X488201Y170981D01*
X488286Y170951D01*
X488381Y170941D01*
X486381D01*
X486476Y170951D01*
X486561Y170981D01*
X486636Y171032D01*
X486701Y171102D01*
X486756Y171194D01*
X486801Y171305D01*
X486836Y171436D01*
X486861Y171588D01*
X486876Y171760D01*
X486881Y171953D01*
X487881D01*
X487886Y171760D01*
D02*
G37*
G36*
X488942Y170196D02*
X488972Y170111D01*
X489022Y170036D01*
X489093Y169971D01*
X489185Y169916D01*
X489296Y169871D01*
X489427Y169836D01*
X489579Y169811D01*
X489751Y169796D01*
X489944Y169791D01*
Y168791D01*
X489751Y168786D01*
X489579Y168771D01*
X489427Y168746D01*
X489296Y168711D01*
X489185Y168666D01*
X489093Y168611D01*
X489022Y168546D01*
X488972Y168471D01*
X488942Y168386D01*
X488932Y168291D01*
Y170291D01*
X488942Y170196D01*
D02*
G37*
G36*
X445787Y180350D02*
X445702Y180319D01*
X445627Y180269D01*
X445562Y180198D01*
X445507Y180107D01*
X445462Y179996D01*
X445427Y179864D01*
X445402Y179712D01*
X445387Y179540D01*
X445382Y179348D01*
X444382D01*
X444377Y179540D01*
X444362Y179712D01*
X444337Y179864D01*
X444302Y179996D01*
X444257Y180107D01*
X444202Y180198D01*
X444137Y180269D01*
X444062Y180319D01*
X443977Y180350D01*
X443882Y180360D01*
X445882D01*
X445787Y180350D01*
D02*
G37*
G36*
X445387Y173512D02*
X445402Y173340D01*
X445427Y173188D01*
X445462Y173057D01*
X445507Y172945D01*
X445562Y172854D01*
X445627Y172784D01*
X445702Y172733D01*
X445787Y172703D01*
X445882Y172693D01*
X443882D01*
X443977Y172703D01*
X444062Y172733D01*
X444137Y172784D01*
X444202Y172854D01*
X444257Y172945D01*
X444302Y173057D01*
X444337Y173188D01*
X444362Y173340D01*
X444377Y173512D01*
X444382Y173705D01*
X445382D01*
X445387Y173512D01*
D02*
G37*
G36*
X452108Y281484D02*
X452183Y281426D01*
X452264Y281375D01*
X452351Y281331D01*
X452443Y281294D01*
X452541Y281263D01*
X452645Y281239D01*
X452755Y281222D01*
X452871Y281212D01*
X452992Y281209D01*
Y280209D01*
X452871Y280205D01*
X452755Y280195D01*
X452645Y280178D01*
X452541Y280154D01*
X452443Y280124D01*
X452351Y280086D01*
X452264Y280042D01*
X452183Y279991D01*
X452108Y279933D01*
X452038Y279869D01*
Y281549D01*
X452108Y281484D01*
D02*
G37*
G36*
X475364Y170371D02*
X475394Y170290D01*
X475444Y170220D01*
X475514Y170158D01*
X475604Y170106D01*
X475714Y170064D01*
X475844Y170031D01*
X475994Y170007D01*
X476164Y169993D01*
X476354Y169988D01*
Y168988D01*
X476164Y168983D01*
X475994Y168969D01*
X475844Y168946D01*
X475714Y168913D01*
X475604Y168870D01*
X475514Y168818D01*
X475444Y168757D01*
X475394Y168686D01*
X475364Y168606D01*
X475354Y168516D01*
Y170460D01*
X475364Y170371D01*
D02*
G37*
G36*
X479572Y168488D02*
X479562Y168583D01*
X479532Y168668D01*
X479481Y168743D01*
X479411Y168808D01*
X479319Y168863D01*
X479208Y168908D01*
X479077Y168943D01*
X478925Y168968D01*
X478753Y168983D01*
X478560Y168988D01*
Y169988D01*
X478753Y169993D01*
X478925Y170008D01*
X479077Y170033D01*
X479208Y170068D01*
X479319Y170113D01*
X479411Y170168D01*
X479481Y170233D01*
X479532Y170308D01*
X479562Y170393D01*
X479572Y170488D01*
Y168488D01*
D02*
G37*
G36*
X473909Y168518D02*
X473824Y168488D01*
X473749Y168437D01*
X473684Y168366D01*
X473629Y168275D01*
X473584Y168164D01*
X473549Y168032D01*
X473524Y167880D01*
X473509Y167708D01*
X473504Y167516D01*
X472504D01*
X472499Y167708D01*
X472484Y167880D01*
X472459Y168032D01*
X472424Y168164D01*
X472379Y168275D01*
X472324Y168366D01*
X472259Y168437D01*
X472184Y168488D01*
X472099Y168518D01*
X472004Y168528D01*
X474004D01*
X473909Y168518D01*
D02*
G37*
D12*
X464173Y255512D02*
G03*
X456693Y262992I-7480J0D01*
G01*
X436221Y267323D02*
G03*
X440551Y262992I4331J0D01*
G01*
X468504Y427953D02*
G03*
X460630Y435827I-7874J0D01*
G01*
X458504Y392126D02*
G03*
X468504Y402126I0J10000D01*
G01*
X412992Y445827D02*
G03*
X422992Y435827I10000J0D01*
G01*
X444882Y358701D02*
G03*
X443307Y357126I0J-1575D01*
G01*
X421260Y359449D02*
G03*
X422008Y358701I748J0D01*
G01*
X481102Y194331D02*
G03*
X471102Y204331I-10000J0D01*
G01*
X398031Y214331D02*
G03*
X408032Y204331I10000J0D01*
G01*
X421260Y163779D02*
G03*
X421614Y163425I354J0D01*
G01*
X481123Y397223D02*
G03*
X485039Y393307I3916J0D01*
G01*
X481123Y409449D02*
G03*
X480926Y409646I-197J0D01*
G01*
X505905Y389370D02*
G03*
X501968Y393307I-3937J0D01*
G01*
X444882Y152362D02*
G03*
X447638Y149606I2756J0D01*
G01*
X501968Y415984D02*
G03*
X491968Y425984I-10000J0D01*
G01*
X473004Y366339D02*
G03*
X473201Y366142I197J0D01*
G01*
X490158Y301969D02*
G03*
X498032Y294094I7874J0D01*
G01*
X490158Y312835D02*
G03*
X480158Y322835I-10000J0D01*
G01*
X451181Y280709D02*
G03*
X450787Y280315I0J-394D01*
G01*
X507874Y276378D02*
G03*
X503543Y280709I-4331J0D01*
G01*
Y158661D02*
G03*
X507874Y162992I0J4331D01*
G01*
X473004Y161642D02*
G03*
X475984Y158661I2980J0D01*
G01*
X505118Y275593D02*
G03*
X503152Y277559I-1966J0D01*
G01*
X446850Y280098D02*
G03*
X449390Y277559I2539J0D01*
G01*
X500394Y169291D02*
G03*
X505118Y174016I0J4724D01*
G01*
X464004Y418326D02*
G03*
X454004Y428326I-10000J0D01*
G01*
X464004Y375019D02*
G03*
X454004Y385018I-10000J0D01*
G01*
X456299Y231890D02*
G03*
X456693Y232283I0J394D01*
G01*
X447659Y233837D02*
G03*
X449606Y231890I1948J0D01*
G01*
X447659Y237402D02*
G03*
X447244Y236987I0J-415D01*
G01*
X440484Y255906D02*
G03*
X437795Y253217I0J-2688D01*
G01*
X463555Y268110D02*
G03*
X463402Y267958I0J-152D01*
G01*
D02*
G03*
X463250Y268110I-152J0D01*
G01*
X464004Y178168D02*
G03*
X454004Y188168I-10000J0D01*
G01*
X480926Y176969D02*
G03*
X481123Y177165I0J197D01*
G01*
Y169291D02*
G03*
X480926Y169488I-197J0D01*
G01*
X492126Y409055D02*
G03*
X491732Y409449I-394J0D01*
G01*
X480926Y373819D02*
G03*
X481123Y374016I0J197D01*
G01*
X480926Y417126D02*
G03*
X481123Y417323I0J197D01*
G01*
X481102Y350787D02*
G03*
X487402Y357087I0J6299D01*
G01*
Y306922D02*
G03*
X479757Y314567I-7645J0D01*
G01*
X492520Y323249D02*
G03*
X492126Y323643I-394J0D01*
G01*
X442913Y249016D02*
G03*
X442717Y249213I-197J0D01*
G01*
X443701D02*
G03*
X443307Y248819I0J-394D01*
G01*
X442913Y220866D02*
G03*
X445276Y218504I2362J0D01*
G01*
X454069Y249365D02*
G03*
X453916Y249213I0J-152D01*
G01*
X433465Y392126D02*
X458504D01*
X440551Y262992D02*
X456693D01*
X436221Y267323D02*
Y347638D01*
X468504Y402126D02*
Y427953D01*
X422992Y435827D02*
X460630D01*
X412992Y445827D02*
Y456299D01*
X481102Y184646D02*
Y194331D01*
X408032Y204331D02*
X471102D01*
X398031Y214331D02*
Y335039D01*
X485039Y393307D02*
X501968D01*
X473004Y409646D02*
X480926D01*
X481123Y397223D02*
Y409449D01*
X505905Y306693D02*
Y389370D01*
X444882Y152362D02*
Y161850D01*
X447638Y149606D02*
X505512D01*
X505905Y149213D01*
X501968Y409449D02*
Y415984D01*
X481102Y425984D02*
X491968D01*
X481102Y357874D02*
Y366142D01*
X473201D02*
X481102D01*
X446850Y322835D02*
X480158D01*
X490158Y301969D02*
Y312835D01*
X492520Y307087D02*
Y323249D01*
X481102Y366142D02*
X481123D01*
X498032Y299213D02*
Y357874D01*
X443307Y280709D02*
Y357126D01*
X451181Y280709D02*
X503543D01*
X507874Y162992D02*
Y276378D01*
X475984Y158661D02*
X503543D01*
X473004Y169488D02*
X480926D01*
X473004Y161642D02*
Y169488D01*
X449390Y277559D02*
X503152D01*
X446850Y280098D02*
Y309449D01*
X505118Y174016D02*
Y275593D01*
X487381Y169291D02*
X500394D01*
X501968Y306693D02*
Y387008D01*
X444882Y428326D02*
X454004D01*
X464004Y413386D02*
Y418326D01*
X444882Y385018D02*
X454004D01*
X464004Y370079D02*
Y375019D01*
X449606Y231890D02*
X456299D01*
X447659Y233837D02*
Y237402D01*
X440484Y255906D02*
X456693D01*
X437795Y251969D02*
Y253217D01*
X444882Y181911D02*
X444882D01*
X444882Y168858D02*
Y181911D01*
X444882Y188168D02*
X454004D01*
X464004Y173228D02*
Y178168D01*
X473004Y176969D02*
X480926D01*
X487381Y409449D02*
X491732D01*
X444882Y378761D02*
X444882D01*
X444882Y365709D02*
Y378761D01*
X473004Y373819D02*
X480926D01*
X444882Y422068D02*
X444882D01*
X444882Y408583D02*
Y422068D01*
X473004Y417126D02*
X480926D01*
X487402Y357087D02*
Y366142D01*
X453937Y350787D02*
X481102D01*
X487381Y366142D02*
X487402D01*
X487381Y409449D02*
Y417323D01*
Y366142D02*
Y374016D01*
X487402Y298425D02*
Y306922D01*
X487381Y169291D02*
Y177165D01*
X446850Y314567D02*
X479757D01*
X492520Y323249D02*
Y335848D01*
X442717Y249213D02*
X442913D01*
X443701D02*
X447659D01*
X442913Y220866D02*
Y249016D01*
X445276Y218504D02*
X448052D01*
X487402Y325590D02*
Y338583D01*
X492520Y335848D02*
Y336221D01*
D18*
X464004Y413386D02*
D03*
X473004Y409646D02*
D03*
Y417126D02*
D03*
X464004Y370079D02*
D03*
X473004Y366339D02*
D03*
Y373819D02*
D03*
X464004Y173228D02*
D03*
X473004Y169488D02*
D03*
Y176969D02*
D03*
D19*
X487381Y409449D02*
D03*
X481123D02*
D03*
X487381Y417323D02*
D03*
X481123D02*
D03*
X487381Y366142D02*
D03*
X481123D02*
D03*
X487381Y374016D02*
D03*
X481123D02*
D03*
X487381Y169291D02*
D03*
X481123D02*
D03*
X487381Y177165D02*
D03*
X481123D02*
D03*
X447659Y237402D02*
D03*
X453916D02*
D03*
X453522Y268110D02*
D03*
X447265D02*
D03*
X448052Y218504D02*
D03*
X454310D02*
D03*
X447659Y249213D02*
D03*
X453916D02*
D03*
D20*
X444882Y428326D02*
D03*
Y422068D02*
D03*
Y385018D02*
D03*
Y378761D02*
D03*
Y188168D02*
D03*
Y181911D02*
D03*
X492520Y335848D02*
D03*
Y342105D02*
D03*
D22*
X444882Y408583D02*
D03*
Y401575D02*
D03*
X444882Y365709D02*
D03*
Y358701D02*
D03*
Y170433D02*
D03*
Y163425D02*
D03*
D24*
X421260Y403150D02*
D03*
Y427559D02*
D03*
Y359449D02*
D03*
Y383858D02*
D03*
Y163779D02*
D03*
Y188189D02*
D03*
D27*
X263779Y160039D02*
D03*
Y469882D02*
D03*
X177165Y160039D02*
D03*
Y469882D02*
D03*
X350394Y160039D02*
D03*
Y469882D02*
D03*
D43*
X472835Y264961D02*
G03*
X469685Y268110I-3150J0D01*
G01*
X470320Y237249D02*
G03*
X472835Y239764I0J2515D01*
G01*
Y264961D01*
X442520Y268110D02*
X446063D01*
X463555D02*
X469685D01*
X463190Y237249D02*
X470320D01*
X405118Y262205D02*
X415748D01*
D44*
X422008Y358701D02*
X444882D01*
X423228Y401968D02*
X445276D01*
X421614Y163425D02*
X444882D01*
X422856Y428326D02*
X445276D01*
X422462Y385018D02*
X444882D01*
X422462Y188168D02*
X444882D01*
D45*
X415118Y403150D02*
X421260D01*
X454724Y268110D02*
X463250D01*
X455512Y237554D02*
X463386D01*
X455905Y218656D02*
X463780D01*
X455512Y249365D02*
X463386D01*
D46*
X125984Y413386D02*
D03*
D47*
Y216535D02*
D03*
D48*
X469291Y481102D02*
D03*
D49*
X456693Y462992D02*
D03*
X481102D02*
D03*
D50*
X492126Y492126D02*
D03*
Y137795D02*
D03*
X137795Y492126D02*
D03*
Y137795D02*
D03*
D51*
X465551Y499016D02*
D03*
X460630Y503937D02*
D03*
Y499016D02*
D03*
X465551Y503937D02*
D03*
X470472D02*
D03*
Y499016D02*
D03*
X398622D02*
D03*
X393701Y503937D02*
D03*
Y499016D02*
D03*
X398622Y503937D02*
D03*
X403543D02*
D03*
Y499016D02*
D03*
X375000D02*
D03*
X370079Y503937D02*
D03*
Y499016D02*
D03*
X375000Y503937D02*
D03*
X379921D02*
D03*
Y499016D02*
D03*
X351378D02*
D03*
X346457Y503937D02*
D03*
Y499016D02*
D03*
X351378Y503937D02*
D03*
X356299D02*
D03*
Y499016D02*
D03*
X327756D02*
D03*
X322835Y503937D02*
D03*
Y499016D02*
D03*
X327756Y503937D02*
D03*
X332677D02*
D03*
Y499016D02*
D03*
X304134D02*
D03*
X299213Y503937D02*
D03*
Y499016D02*
D03*
X304134Y503937D02*
D03*
X309055D02*
D03*
Y499016D02*
D03*
X280512D02*
D03*
X275590Y503937D02*
D03*
Y499016D02*
D03*
X280512Y503937D02*
D03*
X285433D02*
D03*
Y499016D02*
D03*
X256890D02*
D03*
X251969Y503937D02*
D03*
Y499016D02*
D03*
X256890Y503937D02*
D03*
X261811D02*
D03*
Y499016D02*
D03*
X233268D02*
D03*
X228346Y503937D02*
D03*
Y499016D02*
D03*
X233268Y503937D02*
D03*
X238189D02*
D03*
Y499016D02*
D03*
X209646D02*
D03*
X204724Y503937D02*
D03*
Y499016D02*
D03*
X209646Y503937D02*
D03*
X214567D02*
D03*
Y499016D02*
D03*
X186024D02*
D03*
X181102Y503937D02*
D03*
Y499016D02*
D03*
X186024Y503937D02*
D03*
X190945D02*
D03*
Y499016D02*
D03*
X162402D02*
D03*
X157480Y503937D02*
D03*
Y499016D02*
D03*
X162402Y503937D02*
D03*
X167323D02*
D03*
Y499016D02*
D03*
X469488Y125000D02*
D03*
X464567Y129921D02*
D03*
Y125000D02*
D03*
X469488Y129921D02*
D03*
X474409D02*
D03*
Y125000D02*
D03*
X445866D02*
D03*
X440945Y129921D02*
D03*
Y125000D02*
D03*
X445866Y129921D02*
D03*
X450787D02*
D03*
Y125000D02*
D03*
X422244D02*
D03*
X417323Y129921D02*
D03*
Y125000D02*
D03*
X422244Y129921D02*
D03*
X427165D02*
D03*
Y125000D02*
D03*
X398622D02*
D03*
X393701Y129921D02*
D03*
Y125000D02*
D03*
X398622Y129921D02*
D03*
X403543D02*
D03*
Y125000D02*
D03*
X375000D02*
D03*
X370079Y129921D02*
D03*
Y125000D02*
D03*
X375000Y129921D02*
D03*
X379921D02*
D03*
Y125000D02*
D03*
X351378D02*
D03*
X346457Y129921D02*
D03*
Y125000D02*
D03*
X351378Y129921D02*
D03*
X356299D02*
D03*
Y125000D02*
D03*
X327756D02*
D03*
X322835Y129921D02*
D03*
Y125000D02*
D03*
X327756Y129921D02*
D03*
X332677D02*
D03*
Y125000D02*
D03*
X304134D02*
D03*
X299213Y129921D02*
D03*
Y125000D02*
D03*
X304134Y129921D02*
D03*
X309055D02*
D03*
Y125000D02*
D03*
X280512D02*
D03*
X275590Y129921D02*
D03*
Y125000D02*
D03*
X280512Y129921D02*
D03*
X285433D02*
D03*
Y125000D02*
D03*
X256890D02*
D03*
X251969Y129921D02*
D03*
Y125000D02*
D03*
X256890Y129921D02*
D03*
X261811D02*
D03*
Y125000D02*
D03*
X233268D02*
D03*
X228346Y129921D02*
D03*
Y125000D02*
D03*
X233268Y129921D02*
D03*
X238189D02*
D03*
Y125000D02*
D03*
X209646D02*
D03*
X204724Y129921D02*
D03*
Y125000D02*
D03*
X209646Y129921D02*
D03*
X214567D02*
D03*
Y125000D02*
D03*
X186024D02*
D03*
X181102Y129921D02*
D03*
Y125000D02*
D03*
X186024Y129921D02*
D03*
X190945D02*
D03*
Y125000D02*
D03*
X162402D02*
D03*
X157480Y129921D02*
D03*
Y125000D02*
D03*
X162402Y129921D02*
D03*
X167323D02*
D03*
Y125000D02*
D03*
X385827Y390748D02*
D03*
X380906D02*
D03*
Y385827D02*
D03*
X385827Y380906D02*
D03*
X380906D02*
D03*
X385827Y385827D02*
D03*
X375000Y390748D02*
D03*
X370079D02*
D03*
Y385827D02*
D03*
X375000Y380906D02*
D03*
X370079D02*
D03*
X375000Y385827D02*
D03*
X364173Y390748D02*
D03*
X359252D02*
D03*
Y385827D02*
D03*
X364173Y380906D02*
D03*
X359252D02*
D03*
X364173Y385827D02*
D03*
X353346Y390748D02*
D03*
X348425D02*
D03*
Y385827D02*
D03*
X353346Y380906D02*
D03*
X348425D02*
D03*
X353346Y385827D02*
D03*
X332677Y390748D02*
D03*
X327756D02*
D03*
Y385827D02*
D03*
X332677Y380906D02*
D03*
X327756D02*
D03*
X332677Y385827D02*
D03*
X342520Y390748D02*
D03*
X337598D02*
D03*
Y385827D02*
D03*
X342520Y380906D02*
D03*
X337598D02*
D03*
X342520Y385827D02*
D03*
X321850Y390748D02*
D03*
X316929D02*
D03*
Y385827D02*
D03*
X321850Y380906D02*
D03*
X316929D02*
D03*
X321850Y385827D02*
D03*
X433465Y392126D02*
D03*
X299213Y390748D02*
D03*
X294291D02*
D03*
Y385827D02*
D03*
X299213Y380906D02*
D03*
X294291D02*
D03*
X299213Y385827D02*
D03*
X211614Y224410D02*
D03*
X206693Y229331D02*
D03*
Y224410D02*
D03*
Y219488D02*
D03*
X211614D02*
D03*
Y229331D02*
D03*
X196850Y224410D02*
D03*
X187008Y219488D02*
D03*
X191929D02*
D03*
X196850D02*
D03*
X201772D02*
D03*
Y224410D02*
D03*
X191929D02*
D03*
X187008D02*
D03*
Y229331D02*
D03*
X191929D02*
D03*
X196850D02*
D03*
X201772D02*
D03*
X166339Y223425D02*
D03*
X161417Y228346D02*
D03*
Y223425D02*
D03*
Y218504D02*
D03*
X166339D02*
D03*
Y228346D02*
D03*
X171260D02*
D03*
Y223425D02*
D03*
Y218504D02*
D03*
X191929Y185039D02*
D03*
X187008Y194882D02*
D03*
Y189961D02*
D03*
Y185039D02*
D03*
X191929Y189961D02*
D03*
Y194882D02*
D03*
X196850D02*
D03*
Y189961D02*
D03*
Y185039D02*
D03*
X166339D02*
D03*
X161417Y194882D02*
D03*
Y189961D02*
D03*
Y185039D02*
D03*
X166339Y189961D02*
D03*
Y194882D02*
D03*
X171260D02*
D03*
Y189961D02*
D03*
Y185039D02*
D03*
X166339Y204724D02*
D03*
X161417Y214567D02*
D03*
Y209646D02*
D03*
Y204724D02*
D03*
Y199803D02*
D03*
X166339D02*
D03*
Y209646D02*
D03*
Y214567D02*
D03*
X171260D02*
D03*
Y209646D02*
D03*
Y204724D02*
D03*
Y199803D02*
D03*
X191929Y204724D02*
D03*
X187008Y214567D02*
D03*
Y209646D02*
D03*
Y204724D02*
D03*
Y199803D02*
D03*
X191929D02*
D03*
Y209646D02*
D03*
Y214567D02*
D03*
X196850D02*
D03*
Y209646D02*
D03*
Y204724D02*
D03*
Y199803D02*
D03*
X206693Y204724D02*
D03*
X201772Y214567D02*
D03*
Y209646D02*
D03*
Y204724D02*
D03*
Y199803D02*
D03*
X206693D02*
D03*
Y209646D02*
D03*
Y214567D02*
D03*
X211614D02*
D03*
Y209646D02*
D03*
Y204724D02*
D03*
Y199803D02*
D03*
X206693Y185039D02*
D03*
X201772Y194882D02*
D03*
Y189961D02*
D03*
Y185039D02*
D03*
X206693Y189961D02*
D03*
Y194882D02*
D03*
X211614D02*
D03*
Y189961D02*
D03*
Y185039D02*
D03*
X412992Y456299D02*
D03*
X398031Y335039D02*
D03*
X505905Y306693D02*
D03*
Y149213D02*
D03*
X498032Y294094D02*
D03*
X492520Y307087D02*
D03*
X436221Y347638D02*
D03*
X464173Y255512D02*
D03*
X481102Y357874D02*
D03*
X498032D02*
D03*
Y299213D02*
D03*
X443307Y280709D02*
D03*
X451181D02*
D03*
X481102Y425984D02*
D03*
X501968Y409449D02*
D03*
Y387008D02*
D03*
Y306693D02*
D03*
X442520Y268110D02*
D03*
X416142Y262205D02*
D03*
X456693Y232283D02*
D03*
X481102Y184646D02*
D03*
X492126Y409055D02*
D03*
X453937Y350787D02*
D03*
X446850Y309449D02*
D03*
X487402Y298425D02*
D03*
X446850Y322835D02*
D03*
Y314567D02*
D03*
X456693Y255906D02*
D03*
X442717Y249213D02*
D03*
X437795Y251969D02*
D03*
X405118Y262205D02*
D03*
X487402Y338583D02*
D03*
Y325590D02*
D03*
D52*
X490945Y258661D02*
D03*
X490732Y227953D02*
D03*
D53*
X463386Y249365D02*
D03*
X463402Y267958D02*
D03*
X463173Y218656D02*
D03*
X463190Y237249D02*
D03*
M02*
