M48
;Layer_Color=9474304
;FILE_FORMAT=2:5
INCH,LZ
;TYPE=PLATED
T1F00S00C0.01200
T3F00S00C0.03543
T5F00S00C0.07874
%
T01
X015748Y0125
X0162402
Y0129921
X015748
X0167323
Y0125
X0181102
X0186024
Y0129921
X0181102
X0190945
Y0125
X0204724
X0209646
Y0129921
X0204724
X0214567
Y0125
X0228346
X0233268
Y0129921
X0228346
X0238189
Y0125
X0251969
X025689
Y0129921
X0251969
X0261811
Y0125
X027559
X0280512
Y0129921
X027559
X0285433
Y0125
X0299213
X0304134
Y0129921
X0299213
X0309055
Y0125
X0322835
X0327756
Y0129921
X0322835
X0332677
Y0125
X0346457
X0351378
Y0129921
X0346457
X0356299
Y0125
X0370079
X0375
Y0129921
X0370079
X0379921
Y0125
X0393701
X0398622
Y0129921
X0393701
X0403543
Y0125
X0417323
X0422244
Y0129921
X0417323
X0427165
Y0125
X0440945
X0445866
Y0129921
X0440945
X0450787
Y0125
X0464567
Y0129921
X0469488
Y0125
X0474409
Y0129921
X0505905Y0149213
X0481102Y0184646
X0487402Y0298425
X0498032Y0299213
Y0294094
X0501968Y0306693
X0505905
X049252Y0307087
X044685Y0309449
X0443307Y0280709
X0451181
X044252Y026811
X0442717Y0249213
X0437795Y0251969
X0456693Y0255906
X0464173Y0255512
X0456693Y0232283
X0416142Y0262205
X0405118
X0211614Y0229331
Y022441
X0206693
Y0229331
X0201772
Y022441
X019685
Y0219488
X0191929
X0187008
Y022441
X0191929
Y0229331
X0187008
X019685
X0201772Y0219488
X0206693
X0211614
Y0214567
X0206693
X0201772
X019685
X0191929
X0187008
Y0209646
Y0204724
X0191929
Y0199803
Y0194882
X0187008
Y0189961
Y0185039
X0191929
Y0189961
X019685
Y0194882
Y0199803
Y0204724
Y0209646
X0191929
X0201772
Y0204724
X0206693
Y0199803
X0201772
Y0194882
Y0189961
Y0185039
X019685
X0206693
Y0189961
Y0194882
X0211614
Y0199803
Y0204724
Y0209646
X0206693
X0211614Y0189961
Y0185039
X0187008Y0199803
X017126
Y0194882
X0166339
X0161417
Y0189961
Y0185039
X0166339
Y0189961
X017126
Y0185039
X0166339Y0199803
Y0204724
X0161417
Y0209646
Y0214567
Y0218504
Y0223425
X0166339
Y0218504
Y0214567
Y0209646
X017126
Y0214567
Y0218504
Y0223425
Y0228346
X0166339
X0161417
Y0199803
X017126Y0204724
X0294291Y0380906
Y0385827
Y0390748
X0299213
Y0385827
Y0380906
X0316929
Y0385827
Y0390748
X032185
Y0385827
Y0380906
X0327756
Y0385827
Y0390748
X0332677
Y0385827
Y0380906
X0337598
Y0385827
Y0390748
X034252
Y0385827
Y0380906
X0348425
Y0385827
Y0390748
X0353346
Y0385827
Y0380906
X0359252
Y0385827
Y0390748
X0364173
Y0385827
Y0380906
X0370079
Y0385827
Y0390748
X0375
Y0385827
Y0380906
X0380906
Y0385827
Y0390748
X0385827
Y0385827
Y0380906
X0398031Y0335039
X0436221Y0347638
X0453937Y0350787
X044685Y0322835
Y0314567
X0433465Y0392126
X0412992Y0456299
X0481102Y0425984
X0492126Y0409055
X0501968Y0409449
Y0387008
X0498032Y0357874
X0481102
X0487402Y0338583
Y032559
X0470472Y0499016
Y0503937
X0465551
Y0499016
X046063
Y0503937
X0403543
X0398622
Y0499016
X0393701
Y0503937
X0379921
X0375
Y0499016
X0370079
Y0503937
X0356299
X0351378
Y0499016
X0346457
Y0503937
X0332677
X0327756
Y0499016
X0322835
Y0503937
X0332677Y0499016
X0356299
X0379921
X0403543
X0309055
X0304134
X0299213
Y0503937
X0304134
X0309055
X0285433
X0280512
Y0499016
X027559
Y0503937
X0261811
X025689
Y0499016
X0251969
Y0503937
X0238189
X0233268
Y0499016
X0228346
Y0503937
X0214567
X0209646
Y0499016
X0204724
Y0503937
X0190945
X0186024
Y0499016
X0181102
Y0503937
X0167323
X0162402
Y0499016
X015748
Y0503937
X0167323Y0499016
X0190945
X0214567
X0238189
X0261811
X0285433
T03
X0125984Y0216535
Y0413386
T05
X0137795Y0137795
X0492126
Y0492126
X0137795
M30
