G04*
G04 #@! TF.GenerationSoftware,Altium Limited,Altium Designer,20.0.2 (26)*
G04*
G04 Layer_Color=32896*
%FSLAX25Y25*%
%MOIN*%
G70*
G01*
G75*
%ADD10C,0.00984*%
%ADD11C,0.00787*%
%ADD12C,0.01000*%
%ADD14C,0.01575*%
%ADD16C,0.00600*%
%ADD17R,0.06299X0.01181*%
G36*
X415719Y325472D02*
X415857Y325453D01*
X415987Y325426D01*
X416107Y325398D01*
X416320Y325305D01*
X416505Y325203D01*
X416579Y325148D01*
X416653Y325102D01*
X416708Y325056D01*
X416755Y325009D01*
X416801Y324981D01*
X416829Y324954D01*
X416838Y324935D01*
X416847Y324926D01*
X416940Y324824D01*
X417014Y324704D01*
X417078Y324593D01*
X417134Y324473D01*
X417226Y324232D01*
X417282Y324010D01*
X417310Y323908D01*
X417319Y323807D01*
X417328Y323724D01*
X417337Y323650D01*
X417347Y323585D01*
Y323501D01*
X417337Y323252D01*
X417300Y323030D01*
X417245Y322826D01*
X417189Y322651D01*
X417134Y322512D01*
X417106Y322456D01*
X417078Y322410D01*
X417060Y322373D01*
X417041Y322345D01*
X417032Y322336D01*
Y322327D01*
X416967Y322243D01*
X416912Y322169D01*
X416847Y322105D01*
X416782Y322059D01*
X416653Y321966D01*
X416533Y321911D01*
X416422Y321883D01*
X416338Y321864D01*
X416283Y321855D01*
X416274D01*
X416264D01*
X416144Y321873D01*
X416042Y321901D01*
X416005Y321920D01*
X415978Y321929D01*
X415959Y321948D01*
X415950D01*
X415894Y321994D01*
X415848Y322040D01*
X415765Y322160D01*
X415728Y322216D01*
X415700Y322262D01*
X415691Y322299D01*
X415682Y322308D01*
X415839Y322401D01*
X415968Y322493D01*
X416079Y322586D01*
X416163Y322660D01*
X416227Y322725D01*
X416274Y322780D01*
X416301Y322817D01*
X416311Y322826D01*
X416375Y322937D01*
X416422Y323048D01*
X416449Y323159D01*
X416477Y323261D01*
X416486Y323344D01*
X416496Y323418D01*
Y323483D01*
X416486Y323659D01*
X416459Y323807D01*
X416412Y323936D01*
X416366Y324047D01*
X416311Y324131D01*
X416274Y324195D01*
X416237Y324241D01*
X416227Y324251D01*
X416116Y324353D01*
X416005Y324427D01*
X415894Y324473D01*
X415783Y324510D01*
X415682Y324528D01*
X415608Y324547D01*
X415552D01*
X415543D01*
X415534D01*
X415441D01*
X415339Y324528D01*
X415154Y324482D01*
X414969Y324417D01*
X414812Y324343D01*
X414673Y324260D01*
X414618Y324223D01*
X414562Y324195D01*
X414525Y324167D01*
X414498Y324149D01*
X414479Y324140D01*
X414470Y324131D01*
X414368Y324047D01*
X414257Y323955D01*
X414044Y323751D01*
X413841Y323529D01*
X413647Y323307D01*
X413489Y323113D01*
X413415Y323021D01*
X413360Y322947D01*
X413304Y322882D01*
X413267Y322835D01*
X413249Y322808D01*
X413240Y322798D01*
X413147Y322678D01*
X413055Y322567D01*
X413027Y322521D01*
X412999Y322484D01*
X412981Y322456D01*
X412971Y322447D01*
X412860Y322299D01*
X412740Y322160D01*
X412638Y322049D01*
X412537Y321948D01*
X412444Y321864D01*
X412352Y321799D01*
X412268Y321744D01*
X412194Y321698D01*
X412130Y321661D01*
X412065Y321633D01*
X411972Y321596D01*
X411935D01*
X411908Y321587D01*
X411898D01*
X411889D01*
X411815Y321596D01*
X411741Y321605D01*
X411686Y321615D01*
X411676D01*
X411667D01*
X411575Y321642D01*
X411491Y321679D01*
X411454Y321698D01*
X411427Y321716D01*
X411408Y321726D01*
X411399D01*
X411408Y321920D01*
X411417Y322012D01*
Y322086D01*
X411427Y322151D01*
Y322234D01*
X411436Y322419D01*
X411445Y322502D01*
Y323002D01*
X411436Y323150D01*
Y323428D01*
X411427Y323529D01*
Y323844D01*
X411417Y324038D01*
Y324584D01*
X411427Y324750D01*
X411436Y324889D01*
X411454Y325009D01*
X411482Y325102D01*
X411501Y325176D01*
X411519Y325222D01*
X411528Y325250D01*
X411538Y325259D01*
X411593Y325324D01*
X411658Y325379D01*
X411723Y325416D01*
X411797Y325435D01*
X411861Y325453D01*
X411917Y325463D01*
X411954D01*
X411963D01*
X412046D01*
X412130Y325453D01*
X412185Y325444D01*
X412194Y325435D01*
X412204D01*
X412315Y325407D01*
X412416Y325361D01*
X412463Y325342D01*
X412500Y325333D01*
X412527Y325314D01*
X412537D01*
X412481Y325185D01*
X412435Y325046D01*
X412398Y324907D01*
X412370Y324787D01*
X412342Y324667D01*
X412324Y324584D01*
Y324547D01*
X412315Y324519D01*
Y324500D01*
X412296Y324316D01*
X412278Y324103D01*
X412268Y323899D01*
X412259Y323696D01*
X412250Y323520D01*
Y322595D01*
X412416Y322863D01*
X412574Y323113D01*
X412731Y323344D01*
X412888Y323557D01*
X413036Y323751D01*
X413175Y323927D01*
X413314Y324094D01*
X413434Y324232D01*
X413545Y324362D01*
X413656Y324473D01*
X413739Y324565D01*
X413813Y324639D01*
X413878Y324695D01*
X413924Y324732D01*
X413952Y324760D01*
X413961Y324769D01*
X414118Y324898D01*
X414266Y325000D01*
X414424Y325102D01*
X414562Y325185D01*
X414710Y325250D01*
X414840Y325305D01*
X414969Y325352D01*
X415080Y325389D01*
X415191Y325426D01*
X415284Y325444D01*
X415376Y325463D01*
X415441Y325472D01*
X415506Y325481D01*
X415543D01*
X415571D01*
X415580D01*
X415719Y325472D01*
D02*
G37*
G36*
Y320717D02*
X415857Y320699D01*
X415987Y320671D01*
X416107Y320643D01*
X416320Y320551D01*
X416505Y320449D01*
X416579Y320393D01*
X416653Y320347D01*
X416708Y320301D01*
X416755Y320255D01*
X416801Y320227D01*
X416829Y320199D01*
X416838Y320181D01*
X416847Y320171D01*
X416940Y320070D01*
X417014Y319950D01*
X417078Y319839D01*
X417134Y319718D01*
X417226Y319478D01*
X417282Y319256D01*
X417310Y319154D01*
X417319Y319052D01*
X417328Y318969D01*
X417337Y318895D01*
X417347Y318830D01*
Y318747D01*
X417337Y318497D01*
X417300Y318275D01*
X417245Y318072D01*
X417189Y317896D01*
X417134Y317757D01*
X417106Y317702D01*
X417078Y317655D01*
X417060Y317618D01*
X417041Y317591D01*
X417032Y317582D01*
Y317572D01*
X416967Y317489D01*
X416912Y317415D01*
X416847Y317350D01*
X416782Y317304D01*
X416653Y317212D01*
X416533Y317156D01*
X416422Y317128D01*
X416338Y317110D01*
X416283Y317101D01*
X416274D01*
X416264D01*
X416144Y317119D01*
X416042Y317147D01*
X416005Y317165D01*
X415978Y317175D01*
X415959Y317193D01*
X415950D01*
X415894Y317239D01*
X415848Y317285D01*
X415765Y317406D01*
X415728Y317461D01*
X415700Y317508D01*
X415691Y317545D01*
X415682Y317554D01*
X415839Y317646D01*
X415968Y317739D01*
X416079Y317831D01*
X416163Y317905D01*
X416227Y317970D01*
X416274Y318025D01*
X416301Y318062D01*
X416311Y318072D01*
X416375Y318183D01*
X416422Y318294D01*
X416449Y318405D01*
X416477Y318507D01*
X416486Y318590D01*
X416496Y318664D01*
Y318728D01*
X416486Y318904D01*
X416459Y319052D01*
X416412Y319182D01*
X416366Y319293D01*
X416311Y319376D01*
X416274Y319441D01*
X416237Y319487D01*
X416227Y319496D01*
X416116Y319598D01*
X416005Y319672D01*
X415894Y319718D01*
X415783Y319755D01*
X415682Y319774D01*
X415608Y319792D01*
X415552D01*
X415543D01*
X415534D01*
X415441D01*
X415339Y319774D01*
X415154Y319727D01*
X414969Y319663D01*
X414812Y319589D01*
X414673Y319506D01*
X414618Y319468D01*
X414562Y319441D01*
X414525Y319413D01*
X414498Y319394D01*
X414479Y319385D01*
X414470Y319376D01*
X414368Y319293D01*
X414257Y319200D01*
X414044Y318997D01*
X413841Y318775D01*
X413647Y318553D01*
X413489Y318358D01*
X413415Y318266D01*
X413360Y318192D01*
X413304Y318127D01*
X413267Y318081D01*
X413249Y318053D01*
X413240Y318044D01*
X413147Y317924D01*
X413055Y317813D01*
X413027Y317766D01*
X412999Y317729D01*
X412981Y317702D01*
X412971Y317692D01*
X412860Y317545D01*
X412740Y317406D01*
X412638Y317295D01*
X412537Y317193D01*
X412444Y317110D01*
X412352Y317045D01*
X412268Y316989D01*
X412194Y316943D01*
X412130Y316906D01*
X412065Y316879D01*
X411972Y316842D01*
X411935D01*
X411908Y316832D01*
X411898D01*
X411889D01*
X411815Y316842D01*
X411741Y316851D01*
X411686Y316860D01*
X411676D01*
X411667D01*
X411575Y316888D01*
X411491Y316925D01*
X411454Y316943D01*
X411427Y316962D01*
X411408Y316971D01*
X411399D01*
X411408Y317165D01*
X411417Y317258D01*
Y317332D01*
X411427Y317396D01*
Y317480D01*
X411436Y317665D01*
X411445Y317748D01*
Y318248D01*
X411436Y318395D01*
Y318673D01*
X411427Y318775D01*
Y319089D01*
X411417Y319284D01*
Y319829D01*
X411427Y319996D01*
X411436Y320134D01*
X411454Y320255D01*
X411482Y320347D01*
X411501Y320421D01*
X411519Y320467D01*
X411528Y320495D01*
X411538Y320504D01*
X411593Y320569D01*
X411658Y320625D01*
X411723Y320662D01*
X411797Y320680D01*
X411861Y320699D01*
X411917Y320708D01*
X411954D01*
X411963D01*
X412046D01*
X412130Y320699D01*
X412185Y320690D01*
X412194Y320680D01*
X412204D01*
X412315Y320653D01*
X412416Y320606D01*
X412463Y320588D01*
X412500Y320579D01*
X412527Y320560D01*
X412537D01*
X412481Y320430D01*
X412435Y320292D01*
X412398Y320153D01*
X412370Y320033D01*
X412342Y319913D01*
X412324Y319829D01*
Y319792D01*
X412315Y319764D01*
Y319746D01*
X412296Y319561D01*
X412278Y319348D01*
X412268Y319145D01*
X412259Y318941D01*
X412250Y318765D01*
Y317841D01*
X412416Y318109D01*
X412574Y318358D01*
X412731Y318590D01*
X412888Y318802D01*
X413036Y318997D01*
X413175Y319173D01*
X413314Y319339D01*
X413434Y319478D01*
X413545Y319607D01*
X413656Y319718D01*
X413739Y319811D01*
X413813Y319885D01*
X413878Y319940D01*
X413924Y319977D01*
X413952Y320005D01*
X413961Y320014D01*
X414118Y320144D01*
X414266Y320246D01*
X414424Y320347D01*
X414562Y320430D01*
X414710Y320495D01*
X414840Y320551D01*
X414969Y320597D01*
X415080Y320634D01*
X415191Y320671D01*
X415284Y320690D01*
X415376Y320708D01*
X415441Y320717D01*
X415506Y320726D01*
X415543D01*
X415571D01*
X415580D01*
X415719Y320717D01*
D02*
G37*
G36*
X414784Y316314D02*
X415006Y316296D01*
X415219Y316268D01*
X415413Y316240D01*
X415598Y316194D01*
X415765Y316148D01*
X415913Y316102D01*
X416052Y316046D01*
X416172Y315990D01*
X416283Y315944D01*
X416366Y315898D01*
X416440Y315852D01*
X416505Y315824D01*
X416542Y315796D01*
X416570Y315778D01*
X416579Y315769D01*
X416708Y315657D01*
X416819Y315546D01*
X416921Y315426D01*
X417004Y315297D01*
X417078Y315167D01*
X417143Y315038D01*
X417189Y314908D01*
X417226Y314788D01*
X417254Y314668D01*
X417282Y314566D01*
X417300Y314464D01*
X417310Y314381D01*
X417319Y314307D01*
Y314214D01*
X417310Y314020D01*
X417282Y313835D01*
X417245Y313669D01*
X417189Y313502D01*
X417125Y313354D01*
X417051Y313215D01*
X416977Y313095D01*
X416893Y312975D01*
X416810Y312882D01*
X416736Y312790D01*
X416662Y312716D01*
X416597Y312651D01*
X416551Y312605D01*
X416505Y312568D01*
X416477Y312549D01*
X416468Y312540D01*
X416301Y312429D01*
X416126Y312337D01*
X415941Y312253D01*
X415746Y312189D01*
X415552Y312124D01*
X415367Y312078D01*
X415173Y312041D01*
X414997Y312004D01*
X414821Y311985D01*
X414664Y311967D01*
X414516Y311948D01*
X414396Y311939D01*
X414294Y311930D01*
X414220D01*
X414174D01*
X414155D01*
X413924Y311939D01*
X413693Y311958D01*
X413489Y311985D01*
X413286Y312022D01*
X413101Y312059D01*
X412934Y312115D01*
X412777Y312161D01*
X412638Y312216D01*
X412509Y312272D01*
X412398Y312318D01*
X412305Y312374D01*
X412222Y312411D01*
X412167Y312448D01*
X412120Y312475D01*
X412093Y312494D01*
X412083Y312503D01*
X411945Y312614D01*
X411824Y312735D01*
X411723Y312855D01*
X411630Y312984D01*
X411556Y313114D01*
X411501Y313243D01*
X411445Y313364D01*
X411408Y313484D01*
X411371Y313604D01*
X411343Y313706D01*
X411334Y313798D01*
X411316Y313881D01*
Y313946D01*
X411306Y313993D01*
Y314039D01*
X411316Y314224D01*
X411343Y314409D01*
X411390Y314575D01*
X411445Y314733D01*
X411519Y314880D01*
X411593Y315010D01*
X411667Y315140D01*
X411760Y315250D01*
X411843Y315352D01*
X411917Y315445D01*
X412000Y315519D01*
X412065Y315583D01*
X412120Y315630D01*
X412167Y315667D01*
X412194Y315685D01*
X412204Y315694D01*
X412379Y315806D01*
X412564Y315898D01*
X412759Y315990D01*
X412953Y316055D01*
X413147Y316120D01*
X413341Y316166D01*
X413536Y316213D01*
X413711Y316249D01*
X413887Y316268D01*
X414044Y316286D01*
X414183Y316305D01*
X414303Y316314D01*
X414405Y316323D01*
X414479D01*
X414525D01*
X414544D01*
X414784Y316314D01*
D02*
G37*
G36*
X415719Y311051D02*
X415857Y311033D01*
X415987Y311005D01*
X416107Y310977D01*
X416320Y310884D01*
X416505Y310783D01*
X416579Y310727D01*
X416653Y310681D01*
X416708Y310635D01*
X416755Y310589D01*
X416801Y310561D01*
X416829Y310533D01*
X416838Y310514D01*
X416847Y310505D01*
X416940Y310403D01*
X417014Y310283D01*
X417078Y310172D01*
X417134Y310052D01*
X417226Y309811D01*
X417282Y309590D01*
X417310Y309488D01*
X417319Y309386D01*
X417328Y309303D01*
X417337Y309229D01*
X417347Y309164D01*
Y309081D01*
X417337Y308831D01*
X417300Y308609D01*
X417245Y308405D01*
X417189Y308230D01*
X417134Y308091D01*
X417106Y308035D01*
X417078Y307989D01*
X417060Y307952D01*
X417041Y307925D01*
X417032Y307915D01*
Y307906D01*
X416967Y307823D01*
X416912Y307749D01*
X416847Y307684D01*
X416782Y307638D01*
X416653Y307545D01*
X416533Y307490D01*
X416422Y307462D01*
X416338Y307443D01*
X416283Y307434D01*
X416274D01*
X416264D01*
X416144Y307453D01*
X416042Y307481D01*
X416005Y307499D01*
X415978Y307508D01*
X415959Y307527D01*
X415950D01*
X415894Y307573D01*
X415848Y307619D01*
X415765Y307739D01*
X415728Y307795D01*
X415700Y307841D01*
X415691Y307878D01*
X415682Y307888D01*
X415839Y307980D01*
X415968Y308072D01*
X416079Y308165D01*
X416163Y308239D01*
X416227Y308304D01*
X416274Y308359D01*
X416301Y308396D01*
X416311Y308405D01*
X416375Y308517D01*
X416422Y308628D01*
X416449Y308738D01*
X416477Y308840D01*
X416486Y308924D01*
X416496Y308998D01*
Y309062D01*
X416486Y309238D01*
X416459Y309386D01*
X416412Y309516D01*
X416366Y309627D01*
X416311Y309710D01*
X416274Y309774D01*
X416237Y309821D01*
X416227Y309830D01*
X416116Y309932D01*
X416005Y310006D01*
X415894Y310052D01*
X415783Y310089D01*
X415682Y310107D01*
X415608Y310126D01*
X415552D01*
X415543D01*
X415534D01*
X415441D01*
X415339Y310107D01*
X415154Y310061D01*
X414969Y309997D01*
X414812Y309923D01*
X414673Y309839D01*
X414618Y309802D01*
X414562Y309774D01*
X414525Y309747D01*
X414498Y309728D01*
X414479Y309719D01*
X414470Y309710D01*
X414368Y309627D01*
X414257Y309534D01*
X414044Y309331D01*
X413841Y309108D01*
X413647Y308887D01*
X413489Y308692D01*
X413415Y308600D01*
X413360Y308526D01*
X413304Y308461D01*
X413267Y308415D01*
X413249Y308387D01*
X413240Y308378D01*
X413147Y308258D01*
X413055Y308147D01*
X413027Y308100D01*
X412999Y308063D01*
X412981Y308035D01*
X412971Y308026D01*
X412860Y307878D01*
X412740Y307739D01*
X412638Y307628D01*
X412537Y307527D01*
X412444Y307443D01*
X412352Y307379D01*
X412268Y307323D01*
X412194Y307277D01*
X412130Y307240D01*
X412065Y307212D01*
X411972Y307175D01*
X411935D01*
X411908Y307166D01*
X411898D01*
X411889D01*
X411815Y307175D01*
X411741Y307185D01*
X411686Y307194D01*
X411676D01*
X411667D01*
X411575Y307222D01*
X411491Y307259D01*
X411454Y307277D01*
X411427Y307295D01*
X411408Y307305D01*
X411399D01*
X411408Y307499D01*
X411417Y307592D01*
Y307665D01*
X411427Y307730D01*
Y307814D01*
X411436Y307998D01*
X411445Y308082D01*
Y308581D01*
X411436Y308729D01*
Y309007D01*
X411427Y309108D01*
Y309423D01*
X411417Y309617D01*
Y310163D01*
X411427Y310330D01*
X411436Y310468D01*
X411454Y310589D01*
X411482Y310681D01*
X411501Y310755D01*
X411519Y310801D01*
X411528Y310829D01*
X411538Y310838D01*
X411593Y310903D01*
X411658Y310959D01*
X411723Y310996D01*
X411797Y311014D01*
X411861Y311033D01*
X411917Y311042D01*
X411954D01*
X411963D01*
X412046D01*
X412130Y311033D01*
X412185Y311023D01*
X412194Y311014D01*
X412204D01*
X412315Y310986D01*
X412416Y310940D01*
X412463Y310922D01*
X412500Y310912D01*
X412527Y310894D01*
X412537D01*
X412481Y310764D01*
X412435Y310626D01*
X412398Y310487D01*
X412370Y310367D01*
X412342Y310246D01*
X412324Y310163D01*
Y310126D01*
X412315Y310098D01*
Y310080D01*
X412296Y309895D01*
X412278Y309682D01*
X412268Y309478D01*
X412259Y309275D01*
X412250Y309099D01*
Y308174D01*
X412416Y308442D01*
X412574Y308692D01*
X412731Y308924D01*
X412888Y309136D01*
X413036Y309331D01*
X413175Y309506D01*
X413314Y309673D01*
X413434Y309811D01*
X413545Y309941D01*
X413656Y310052D01*
X413739Y310144D01*
X413813Y310219D01*
X413878Y310274D01*
X413924Y310311D01*
X413952Y310339D01*
X413961Y310348D01*
X414118Y310477D01*
X414266Y310579D01*
X414424Y310681D01*
X414562Y310764D01*
X414710Y310829D01*
X414840Y310884D01*
X414969Y310931D01*
X415080Y310968D01*
X415191Y311005D01*
X415284Y311023D01*
X415376Y311042D01*
X415441Y311051D01*
X415506Y311060D01*
X415543D01*
X415571D01*
X415580D01*
X415719Y311051D01*
D02*
G37*
G36*
X416838Y303688D02*
X416949Y303670D01*
X417032Y303651D01*
X417097Y303632D01*
X417134Y303614D01*
X417162Y303605D01*
X417171Y303595D01*
X417226Y303549D01*
X417263Y303485D01*
X417300Y303420D01*
X417319Y303364D01*
X417328Y303299D01*
X417337Y303253D01*
Y303207D01*
X417328Y303105D01*
X417310Y303004D01*
X417300Y302966D01*
X417291Y302939D01*
X417282Y302920D01*
Y302911D01*
X417236Y302791D01*
X417171Y302671D01*
X417143Y302615D01*
X417115Y302569D01*
X417106Y302541D01*
X417097Y302532D01*
X416940Y302596D01*
X416782Y302661D01*
X416625Y302708D01*
X416468Y302745D01*
X416338Y302772D01*
X416237Y302791D01*
X416200Y302800D01*
X416172Y302809D01*
X416153D01*
X416144D01*
X416033Y302828D01*
X415922Y302837D01*
X415663Y302855D01*
X415404Y302874D01*
X415145Y302883D01*
X415025D01*
X414914Y302892D01*
X414812D01*
X414729D01*
X414655D01*
X414599D01*
X414562D01*
X414553D01*
X414424D01*
X414294D01*
X414165D01*
X414044D01*
X413933Y302883D01*
X413850D01*
X413795D01*
X413785D01*
X413776D01*
X413434Y302874D01*
X413267D01*
X413119D01*
X412990Y302865D01*
X412897D01*
X412860D01*
X412833D01*
X412814D01*
X412805D01*
X413193Y302541D01*
X413573Y302226D01*
X413943Y301912D01*
X414294Y301616D01*
X414627Y301339D01*
X414951Y301070D01*
X415247Y300811D01*
X415524Y300580D01*
X415774Y300367D01*
X415996Y300182D01*
X416200Y300016D01*
X416366Y299868D01*
X416496Y299757D01*
X416551Y299710D01*
X416588Y299674D01*
X416625Y299646D01*
X416653Y299627D01*
X416662Y299618D01*
X416671Y299609D01*
X416736Y299563D01*
X416782Y299525D01*
X416819Y299498D01*
X416847Y299470D01*
X416884Y299442D01*
X416893Y299433D01*
X416967Y299368D01*
X417032Y299304D01*
X417088Y299248D01*
X417125Y299202D01*
X417162Y299155D01*
X417180Y299128D01*
X417199Y299109D01*
Y299100D01*
X417254Y298998D01*
X417282Y298906D01*
X417291Y298869D01*
Y298748D01*
X417273Y298693D01*
X417245Y298591D01*
X417226Y298554D01*
X417208Y298527D01*
X417199Y298508D01*
X417189Y298499D01*
X417143Y298443D01*
X417088Y298378D01*
X416958Y298268D01*
X416903Y298221D01*
X416847Y298184D01*
X416810Y298156D01*
X416801Y298147D01*
X416727Y298240D01*
X416653Y298314D01*
X416570Y298378D01*
X416486Y298425D01*
X416412Y298462D01*
X416357Y298489D01*
X416320Y298508D01*
X416301D01*
X416237Y298527D01*
X416163Y298545D01*
X415996Y298564D01*
X415811Y298582D01*
X415626Y298601D01*
X415450D01*
X415376Y298610D01*
X415312D01*
X415256D01*
X415219D01*
X415191D01*
X415182D01*
X414868D01*
X414581D01*
X414322Y298601D01*
X414072Y298591D01*
X413859D01*
X413656Y298582D01*
X413480Y298573D01*
X413323Y298564D01*
X413193Y298554D01*
X413073Y298545D01*
X412981Y298536D01*
X412907D01*
X412842Y298527D01*
X412805Y298517D01*
X412777D01*
X412768D01*
X412527Y298480D01*
X412315Y298434D01*
X412120Y298388D01*
X411963Y298341D01*
X411834Y298295D01*
X411741Y298258D01*
X411713Y298240D01*
X411686Y298231D01*
X411676Y298221D01*
X411667D01*
X411575Y298360D01*
X411519Y298480D01*
X411501Y298527D01*
X411482Y298564D01*
X411473Y298582D01*
Y298591D01*
X411445Y298721D01*
X411427Y298822D01*
X411417Y298869D01*
Y298924D01*
X411427Y299017D01*
X411445Y299100D01*
X411464Y299165D01*
X411491Y299220D01*
X411519Y299257D01*
X411547Y299285D01*
X411556Y299304D01*
X411565D01*
X411630Y299341D01*
X411713Y299368D01*
X411815Y299387D01*
X411908Y299405D01*
X412000D01*
X412074Y299414D01*
X412120D01*
X412139D01*
X412157D01*
X412176D01*
X412250D01*
X412333Y299405D01*
X412426D01*
X412518D01*
X412601Y299396D01*
X412657D01*
X412666D01*
X412675D01*
X413277Y299377D01*
X413563Y299368D01*
X413841D01*
X414109Y299359D01*
X414359Y299350D01*
X414599D01*
X414821D01*
X415025D01*
X415210Y299341D01*
X415367D01*
X415506D01*
X415608D01*
X415691D01*
X415737D01*
X415756D01*
X415626Y299442D01*
X415478Y299553D01*
X415321Y299683D01*
X415145Y299821D01*
X414794Y300117D01*
X414442Y300413D01*
X414276Y300552D01*
X414118Y300682D01*
X413980Y300802D01*
X413850Y300904D01*
X413748Y300996D01*
X413674Y301061D01*
X413628Y301098D01*
X413610Y301116D01*
X413341Y301348D01*
X413082Y301579D01*
X412851Y301782D01*
X412629Y301986D01*
X412426Y302162D01*
X412241Y302338D01*
X412074Y302485D01*
X411926Y302634D01*
X411797Y302754D01*
X411686Y302865D01*
X411593Y302957D01*
X411510Y303041D01*
X411445Y303096D01*
X411408Y303142D01*
X411380Y303170D01*
X411371Y303179D01*
X411630Y303707D01*
X411797Y303688D01*
X411954Y303679D01*
X412102Y303660D01*
X412231Y303651D01*
X412333Y303642D01*
X412416D01*
X412472Y303632D01*
X412490D01*
X412657Y303623D01*
X412823D01*
X412981D01*
X413129Y303614D01*
X413258D01*
X413351D01*
X413388D01*
X413415D01*
X413434D01*
X413443D01*
X413748D01*
X414063Y303623D01*
X414368Y303632D01*
X414516D01*
X414655Y303642D01*
X414784D01*
X414895D01*
X415006Y303651D01*
X415090D01*
X415164Y303660D01*
X415219D01*
X415256D01*
X415265D01*
X415450Y303670D01*
X415617Y303679D01*
X415765D01*
X415904Y303688D01*
X416024D01*
X416126Y303697D01*
X416218D01*
X416292D01*
X416357Y303707D01*
X416412D01*
X416459D01*
X416486D01*
X416533D01*
X416542D01*
X416699D01*
X416838Y303688D01*
D02*
G37*
G36*
X411787Y297232D02*
X411917Y297185D01*
X412056Y297158D01*
X412176Y297130D01*
X412296Y297111D01*
X412379Y297093D01*
X412416D01*
X412444Y297083D01*
X412453D01*
X412463D01*
X412564Y297074D01*
X412666Y297065D01*
X412897Y297056D01*
X413129Y297037D01*
X413360D01*
X413462D01*
X413563Y297028D01*
X413647D01*
X413730D01*
X413795D01*
X413841D01*
X413869D01*
X413878D01*
X414220D01*
X414562Y297037D01*
X414877D01*
X415025Y297046D01*
X415164D01*
X415284D01*
X415395Y297056D01*
X415497D01*
X415589D01*
X415654Y297065D01*
X415700D01*
X415737D01*
X415746D01*
X415913Y297074D01*
X416061Y297083D01*
X416190D01*
X416292Y297093D01*
X416385D01*
X416468Y297102D01*
X416533D01*
X416579D01*
X416625Y297111D01*
X416653D01*
X416690D01*
X416708D01*
X416829D01*
X416921Y297093D01*
X417004Y297074D01*
X417078Y297056D01*
X417125Y297037D01*
X417162Y297019D01*
X417180Y297009D01*
X417189Y297000D01*
X417245Y296954D01*
X417282Y296899D01*
X417310Y296843D01*
X417328Y296778D01*
X417337Y296723D01*
X417347Y296686D01*
Y296639D01*
X417337Y296519D01*
X417319Y296417D01*
X417310Y296371D01*
X417300Y296334D01*
X417291Y296316D01*
Y296306D01*
X417263Y296242D01*
X417236Y296168D01*
X417162Y296038D01*
X417134Y295983D01*
X417106Y295936D01*
X417088Y295900D01*
X417078Y295890D01*
X416958Y295936D01*
X416829Y295964D01*
X416699Y296001D01*
X416570Y296020D01*
X416449Y296038D01*
X416357Y296057D01*
X416320D01*
X416292Y296066D01*
X416283D01*
X416274D01*
X416172Y296075D01*
X416061Y296084D01*
X415830Y296103D01*
X415589Y296112D01*
X415349Y296122D01*
X415247D01*
X415145Y296131D01*
X415053D01*
X414969D01*
X414905D01*
X414858D01*
X414821D01*
X414812D01*
X414525D01*
X414239Y296122D01*
X413952D01*
X413702Y296112D01*
X413582D01*
X413480Y296103D01*
X413378D01*
X413304D01*
X413240Y296094D01*
X413184D01*
X413156D01*
X413147D01*
X412990Y296084D01*
X412842D01*
X412712Y296075D01*
X412592D01*
X412490Y296066D01*
X412407D01*
X412333D01*
X412268D01*
X412213Y296057D01*
X412167D01*
X412111D01*
X412074D01*
X412065D01*
X411935D01*
X411834Y296075D01*
X411741Y296084D01*
X411676Y296103D01*
X411621Y296122D01*
X411584Y296131D01*
X411565Y296149D01*
X411556D01*
X411510Y296196D01*
X411473Y296242D01*
X411454Y296297D01*
X411436Y296362D01*
X411427Y296417D01*
X411417Y296464D01*
Y296501D01*
X411427Y296630D01*
X411445Y296741D01*
Y296788D01*
X411454Y296825D01*
X411464Y296843D01*
Y296852D01*
X411519Y297000D01*
X411584Y297139D01*
X411621Y297195D01*
X411639Y297241D01*
X411658Y297269D01*
X411667Y297278D01*
X411787Y297232D01*
D02*
G37*
G36*
X411935Y295354D02*
X412019Y295344D01*
X412056Y295335D01*
X412083Y295326D01*
X412093Y295317D01*
X412102D01*
X412213Y295280D01*
X412324Y295224D01*
X412370Y295197D01*
X412407Y295169D01*
X412426Y295160D01*
X412435Y295150D01*
X412352Y294937D01*
X412324Y294836D01*
X412296Y294734D01*
X412278Y294660D01*
X412268Y294595D01*
X412259Y294558D01*
Y294540D01*
X412241Y294410D01*
X412231Y294271D01*
X412222Y294124D01*
Y293985D01*
X412213Y293855D01*
Y293328D01*
X412222Y293226D01*
Y293162D01*
X412231Y293115D01*
Y293097D01*
X412888D01*
X413471D01*
X414044Y293106D01*
X414322Y293115D01*
X414590D01*
X414840Y293125D01*
X415080Y293134D01*
X415302D01*
X415506Y293143D01*
X415682D01*
X415830Y293152D01*
X415950D01*
X416042Y293162D01*
X416098D01*
X416116D01*
X416274Y293171D01*
X416403Y293180D01*
X416496D01*
X416570Y293189D01*
X416616D01*
X416653D01*
X416671D01*
X416801D01*
X416912Y293171D01*
X416995Y293152D01*
X417069Y293134D01*
X417125Y293115D01*
X417162Y293097D01*
X417180Y293088D01*
X417189Y293078D01*
X417236Y293032D01*
X417273Y292976D01*
X417300Y292912D01*
X417319Y292847D01*
X417328Y292792D01*
X417337Y292745D01*
Y292699D01*
X417328Y292579D01*
X417310Y292468D01*
X417300Y292422D01*
X417291Y292385D01*
X417282Y292366D01*
Y292357D01*
X417226Y292218D01*
X417162Y292089D01*
X417125Y292033D01*
X417106Y291987D01*
X417088Y291959D01*
X417078Y291950D01*
X416949Y291996D01*
X416810Y292042D01*
X416662Y292070D01*
X416523Y292098D01*
X416394Y292116D01*
X416292Y292135D01*
X416255D01*
X416227Y292144D01*
X416209D01*
X416200D01*
X416089Y292153D01*
X415968Y292162D01*
X415709Y292181D01*
X415441Y292190D01*
X415182Y292199D01*
X415062D01*
X414951Y292209D01*
X414849D01*
X414757D01*
X414683D01*
X414627D01*
X414590D01*
X414581D01*
X414155D01*
X413730Y292199D01*
X413323Y292190D01*
X413138Y292181D01*
X412962Y292172D01*
X412796Y292162D01*
X412648D01*
X412518Y292153D01*
X412398Y292144D01*
X412305D01*
X412241Y292135D01*
X412204D01*
X412185D01*
X412074Y292126D01*
X411982D01*
X411908D01*
X411852Y292116D01*
X411815D01*
X411787D01*
X411769D01*
X411704D01*
X411639Y292126D01*
X411593Y292144D01*
X411556Y292153D01*
X411510Y292181D01*
X411491Y292190D01*
X411464Y292218D01*
X411445Y292264D01*
X411417Y292348D01*
Y292385D01*
X411408Y292412D01*
Y292551D01*
X411417Y292616D01*
Y292792D01*
X411427Y293041D01*
X411436Y293152D01*
Y293864D01*
X411427Y293957D01*
Y294216D01*
X411417Y294327D01*
Y294743D01*
X411427Y294864D01*
X411445Y294965D01*
X411464Y295048D01*
X411473Y295113D01*
X411491Y295150D01*
X411501Y295178D01*
Y295187D01*
X411538Y295243D01*
X411593Y295289D01*
X411649Y295317D01*
X411704Y295344D01*
X411750Y295354D01*
X411797Y295363D01*
X411824D01*
X411834D01*
X411935Y295354D01*
D02*
G37*
G36*
X417032Y291182D02*
X417097Y291163D01*
X417152Y291145D01*
X417199Y291117D01*
X417236Y291080D01*
X417254Y291062D01*
X417273Y291043D01*
Y291034D01*
X417300Y290969D01*
X417328Y290886D01*
X417356Y290729D01*
X417365Y290655D01*
Y290479D01*
X417356Y290442D01*
Y290340D01*
X417347Y290303D01*
Y290266D01*
X417328Y289906D01*
X417319Y289563D01*
X417300Y289240D01*
Y288823D01*
X417291Y288703D01*
Y287769D01*
X417125Y287796D01*
X416949Y287815D01*
X416764Y287833D01*
X416597Y287852D01*
X416449Y287861D01*
X416385Y287871D01*
X416329D01*
X416283Y287880D01*
X416246D01*
X416227D01*
X416218D01*
X416098Y287889D01*
X415959Y287898D01*
X415682Y287908D01*
X415395Y287917D01*
X415127D01*
X415006Y287926D01*
X414886D01*
X414784D01*
X414692D01*
X414618D01*
X414562D01*
X414525D01*
X414516D01*
X414109D01*
X413693Y287917D01*
X413304Y287908D01*
X413119Y287898D01*
X412953D01*
X412786Y287889D01*
X412648Y287880D01*
X412518D01*
X412407Y287871D01*
X412315D01*
X412250Y287861D01*
X412213D01*
X412194D01*
X412074Y287852D01*
X411982D01*
X411908D01*
X411852Y287843D01*
X411815D01*
X411787D01*
X411769D01*
X411704D01*
X411639Y287852D01*
X411593Y287871D01*
X411556Y287880D01*
X411510Y287908D01*
X411491Y287917D01*
X411445Y287991D01*
X411417Y288074D01*
Y288120D01*
X411408Y288148D01*
Y288287D01*
X411417Y288444D01*
Y288601D01*
X411427Y288740D01*
Y289480D01*
X411417Y289563D01*
Y289831D01*
X411408Y289952D01*
Y290276D01*
X411417Y290423D01*
X411427Y290544D01*
X411445Y290646D01*
X411464Y290729D01*
X411482Y290793D01*
X411491Y290830D01*
X411510Y290858D01*
Y290867D01*
X411556Y290923D01*
X411612Y290969D01*
X411667Y290997D01*
X411723Y291025D01*
X411778Y291034D01*
X411824Y291043D01*
X411852D01*
X411861D01*
X411935Y291034D01*
X412009Y291025D01*
X412065Y291006D01*
X412074Y290997D01*
X412083D01*
X412139Y290979D01*
X412194Y290951D01*
X412305Y290895D01*
X412352Y290867D01*
X412389Y290840D01*
X412416Y290830D01*
X412426Y290821D01*
X412352Y290609D01*
X412324Y290507D01*
X412296Y290414D01*
X412278Y290340D01*
X412268Y290285D01*
X412259Y290238D01*
Y290229D01*
X412241Y290118D01*
X412231Y289998D01*
X412222Y289878D01*
Y289767D01*
X412213Y289665D01*
Y289165D01*
X412222Y289045D01*
Y288740D01*
X412416Y288749D01*
X412611D01*
X412786Y288758D01*
X412953D01*
X413082Y288768D01*
X413147D01*
X413193D01*
X413230D01*
X413258D01*
X413277D01*
X413286D01*
X413480Y288777D01*
X413656D01*
X413804Y288786D01*
X413924D01*
X414017D01*
X414081D01*
X414128D01*
X414137D01*
Y288888D01*
X414146Y288981D01*
Y289610D01*
X414137Y289693D01*
Y289943D01*
X414128Y290044D01*
Y290276D01*
X414137Y290387D01*
X414146Y290479D01*
X414165Y290562D01*
X414183Y290627D01*
X414202Y290683D01*
X414211Y290720D01*
X414229Y290738D01*
Y290747D01*
X414276Y290803D01*
X414322Y290840D01*
X414387Y290867D01*
X414442Y290886D01*
X414488Y290895D01*
X414535Y290904D01*
X414562D01*
X414572D01*
X414627D01*
X414683Y290895D01*
X414720Y290886D01*
X414738Y290877D01*
X414821Y290849D01*
X414905Y290812D01*
X414942Y290793D01*
X414979Y290775D01*
X414997Y290766D01*
X415006D01*
X414988Y290673D01*
X414969Y290581D01*
X414960Y290488D01*
X414951Y290396D01*
X414942Y290322D01*
X414932Y290257D01*
Y290201D01*
X414923Y290072D01*
Y289785D01*
X414914Y289647D01*
Y288795D01*
X416514Y288823D01*
Y288934D01*
X416523Y289110D01*
Y289267D01*
X416533Y289387D01*
Y289804D01*
X416523Y289952D01*
X416514Y290072D01*
Y290183D01*
X416505Y290266D01*
X416496Y290331D01*
X416486Y290377D01*
Y290387D01*
X416440Y290599D01*
X416422Y290701D01*
X416394Y290784D01*
X416375Y290858D01*
X416357Y290914D01*
X416348Y290951D01*
X416338Y290960D01*
X416486Y291043D01*
X416542Y291071D01*
X416597Y291099D01*
X416634Y291117D01*
X416662Y291126D01*
X416681Y291136D01*
X416690D01*
X416792Y291173D01*
X416875Y291182D01*
X416930Y291191D01*
X416940D01*
X416949D01*
X417032Y291182D01*
D02*
G37*
G36*
X417060Y284531D02*
X417115Y284522D01*
X417199Y284485D01*
X417245Y284439D01*
X417263Y284430D01*
Y284420D01*
X417300Y284374D01*
X417319Y284328D01*
X417356Y284226D01*
Y284180D01*
X417365Y284152D01*
Y284032D01*
X417356Y283958D01*
X417347Y283893D01*
Y283875D01*
X417328Y283773D01*
X417300Y283671D01*
X417282Y283625D01*
X417273Y283588D01*
X417263Y283560D01*
Y283551D01*
X417199Y283560D01*
X417162D01*
X417143D01*
X417134D01*
X417106Y283569D01*
X417097D01*
X416995Y283560D01*
X416875Y283523D01*
X416745Y283468D01*
X416616Y283412D01*
X416496Y283356D01*
X416394Y283301D01*
X416357Y283282D01*
X416329Y283264D01*
X416311Y283255D01*
X416301D01*
X416190Y283190D01*
X416070Y283116D01*
X415802Y282959D01*
X415515Y282783D01*
X415238Y282616D01*
X415108Y282533D01*
X414988Y282459D01*
X414877Y282385D01*
X414784Y282330D01*
X414710Y282283D01*
X414646Y282237D01*
X414609Y282219D01*
X414599Y282209D01*
X414969Y281988D01*
X415339Y281775D01*
X415700Y281562D01*
X415867Y281469D01*
X416024Y281377D01*
X416172Y281294D01*
X416311Y281220D01*
X416431Y281146D01*
X416533Y281090D01*
X416616Y281044D01*
X416671Y281007D01*
X416718Y280989D01*
X416727Y280979D01*
X416838Y280914D01*
X416921Y280868D01*
X416986Y280831D01*
X417032Y280803D01*
X417069Y280776D01*
X417088Y280767D01*
X417097Y280757D01*
X417199Y280683D01*
X417263Y280609D01*
X417310Y280563D01*
X417319Y280554D01*
Y280544D01*
X417365Y280461D01*
X417384Y280387D01*
X417393Y280332D01*
Y280313D01*
X417384Y280230D01*
X417365Y280156D01*
X417328Y280091D01*
X417300Y280036D01*
X417263Y279990D01*
X417226Y279953D01*
X417208Y279934D01*
X417199Y279925D01*
X417115Y279869D01*
X417014Y279814D01*
X416810Y279740D01*
X416708Y279703D01*
X416634Y279684D01*
X416579Y279675D01*
X416570Y279666D01*
X416560D01*
X416551Y279721D01*
X416523Y279777D01*
X416486Y279841D01*
X416440Y279906D01*
X416329Y280036D01*
X416200Y280156D01*
X416070Y280267D01*
X415959Y280360D01*
X415922Y280397D01*
X415885Y280424D01*
X415867Y280434D01*
X415857Y280443D01*
X415728Y280535D01*
X415580Y280637D01*
X415432Y280748D01*
X415265Y280850D01*
X414942Y281063D01*
X414618Y281257D01*
X414470Y281349D01*
X414331Y281433D01*
X414202Y281506D01*
X414091Y281571D01*
X414007Y281627D01*
X413933Y281664D01*
X413896Y281692D01*
X413878Y281701D01*
X413665Y281692D01*
X413452Y281682D01*
X413249D01*
X413064Y281673D01*
X412907Y281664D01*
X412842D01*
X412786D01*
X412740Y281655D01*
X412703D01*
X412685D01*
X412675D01*
X412564D01*
X412472Y281645D01*
X412379D01*
X412305Y281636D01*
X412241D01*
X412185D01*
X412102Y281627D01*
X412046D01*
X412009D01*
X411991D01*
X411880D01*
X411797Y281645D01*
X411713Y281655D01*
X411658Y281673D01*
X411612Y281692D01*
X411575Y281701D01*
X411556Y281719D01*
X411547D01*
X411501Y281766D01*
X411473Y281821D01*
X411436Y281932D01*
X411427Y281988D01*
X411417Y282034D01*
Y282071D01*
X411427Y282191D01*
X411445Y282302D01*
Y282339D01*
X411454Y282376D01*
X411464Y282395D01*
Y282404D01*
X411482Y282469D01*
X411510Y282542D01*
X411575Y282681D01*
X411612Y282737D01*
X411630Y282792D01*
X411649Y282820D01*
X411658Y282829D01*
X411769Y282783D01*
X411889Y282746D01*
X412000Y282718D01*
X412111Y282691D01*
X412204Y282672D01*
X412278Y282653D01*
X412324Y282644D01*
X412342D01*
X412509Y282626D01*
X412685Y282616D01*
X412870Y282607D01*
X413045D01*
X413203Y282598D01*
X413267D01*
X413332D01*
X413378D01*
X413415D01*
X413434D01*
X413443D01*
X413480D01*
X413526Y282589D01*
X413628D01*
X413674D01*
X413711D01*
X413739D01*
X413748D01*
X413822D01*
X413878Y282598D01*
X413915D01*
X413952D01*
X413961D01*
X413980D01*
X414072Y282663D01*
X414174Y282737D01*
X414396Y282885D01*
X414627Y283042D01*
X414849Y283199D01*
X414951Y283264D01*
X415043Y283338D01*
X415127Y283394D01*
X415201Y283449D01*
X415265Y283495D01*
X415312Y283523D01*
X415339Y283541D01*
X415349Y283551D01*
X415598Y283727D01*
X415830Y283875D01*
X416024Y284013D01*
X416200Y284124D01*
X416357Y284217D01*
X416496Y284300D01*
X416607Y284365D01*
X416699Y284420D01*
X416782Y284457D01*
X416847Y284485D01*
X416903Y284513D01*
X416940Y284522D01*
X416967Y284531D01*
X416986Y284541D01*
X416995D01*
X417060Y284531D01*
D02*
G37*
G36*
X413360Y279055D02*
X413517Y279018D01*
X413647Y278972D01*
X413767Y278917D01*
X413859Y278852D01*
X413924Y278805D01*
X413961Y278768D01*
X413980Y278759D01*
X414091Y278639D01*
X414183Y278500D01*
X414257Y278371D01*
X414313Y278241D01*
X414350Y278121D01*
X414377Y278028D01*
X414387Y277992D01*
X414396Y277964D01*
Y277945D01*
X414461Y278130D01*
X414535Y278288D01*
X414618Y278426D01*
X414701Y278537D01*
X414775Y278630D01*
X414840Y278695D01*
X414877Y278741D01*
X414895Y278750D01*
X415034Y278852D01*
X415182Y278926D01*
X415321Y278972D01*
X415450Y279009D01*
X415561Y279028D01*
X415645Y279046D01*
X415682D01*
X415709D01*
X415719D01*
X415728D01*
X415867Y279037D01*
X415987Y279018D01*
X416107Y278991D01*
X416227Y278944D01*
X416422Y278852D01*
X416597Y278731D01*
X416727Y278621D01*
X416782Y278565D01*
X416819Y278519D01*
X416856Y278472D01*
X416884Y278445D01*
X416893Y278426D01*
X416903Y278417D01*
X416977Y278297D01*
X417051Y278167D01*
X417162Y277899D01*
X417236Y277622D01*
X417291Y277353D01*
X417310Y277233D01*
X417328Y277113D01*
X417337Y277011D01*
Y276928D01*
X417347Y276854D01*
Y276733D01*
X417337Y276715D01*
Y276576D01*
X417319Y276142D01*
Y275929D01*
X417310Y275744D01*
Y275337D01*
X417162Y275383D01*
X416995Y275420D01*
X416838Y275457D01*
X416690Y275476D01*
X416560Y275494D01*
X416449Y275513D01*
X416412D01*
X416385Y275522D01*
X416366D01*
X416357D01*
X416246Y275531D01*
X416126Y275540D01*
X415867Y275559D01*
X415598Y275568D01*
X415330D01*
X415210Y275577D01*
X415099D01*
X414997D01*
X414905D01*
X414831D01*
X414775D01*
X414738D01*
X414729D01*
X414442D01*
X414155Y275568D01*
X413878D01*
X413628Y275559D01*
X413517D01*
X413415Y275550D01*
X413323D01*
X413249D01*
X413184Y275540D01*
X413138D01*
X413110D01*
X413101D01*
X412953Y275531D01*
X412814D01*
X412694Y275522D01*
X412592D01*
X412500Y275513D01*
X412426D01*
X412361D01*
X412305D01*
X412259Y275503D01*
X412222D01*
X412176D01*
X412157D01*
X412148D01*
X411991Y275513D01*
X411871Y275540D01*
X411760Y275568D01*
X411686Y275614D01*
X411621Y275651D01*
X411575Y275679D01*
X411556Y275707D01*
X411547Y275716D01*
X411491Y275818D01*
X411454Y275938D01*
X411427Y276077D01*
X411408Y276216D01*
X411399Y276345D01*
X411390Y276447D01*
Y276549D01*
X411399Y276743D01*
X411408Y276937D01*
X411436Y277113D01*
X411473Y277279D01*
X411510Y277436D01*
X411556Y277585D01*
X411602Y277723D01*
X411649Y277853D01*
X411695Y277964D01*
X411741Y278056D01*
X411787Y278139D01*
X411824Y278214D01*
X411861Y278269D01*
X411889Y278306D01*
X411898Y278334D01*
X411908Y278343D01*
X412009Y278472D01*
X412111Y278584D01*
X412222Y278676D01*
X412324Y278759D01*
X412435Y278833D01*
X412546Y278889D01*
X412648Y278935D01*
X412749Y278972D01*
X412925Y279028D01*
X412999Y279046D01*
X413064Y279055D01*
X413119Y279064D01*
X413156D01*
X413184D01*
X413193D01*
X413360Y279055D01*
D02*
G37*
G36*
X414794Y272016D02*
X415016Y271988D01*
X415219Y271933D01*
X415413Y271877D01*
X415598Y271803D01*
X415765Y271720D01*
X415913Y271637D01*
X416052Y271544D01*
X416181Y271452D01*
X416292Y271369D01*
X416385Y271285D01*
X416459Y271211D01*
X416514Y271156D01*
X416560Y271110D01*
X416588Y271073D01*
X416597Y271063D01*
X416736Y270878D01*
X416847Y270684D01*
X416958Y270471D01*
X417041Y270268D01*
X417115Y270055D01*
X417180Y269842D01*
X417226Y269630D01*
X417273Y269435D01*
X417300Y269250D01*
X417328Y269075D01*
X417337Y268917D01*
X417356Y268788D01*
Y268677D01*
X417365Y268594D01*
Y268492D01*
X417356Y268464D01*
Y268335D01*
X417347Y268233D01*
Y268131D01*
X417337Y268039D01*
Y267955D01*
X417328Y267539D01*
X417319Y267345D01*
Y267160D01*
X417310Y267012D01*
Y266780D01*
X417152Y266827D01*
X416995Y266855D01*
X416838Y266892D01*
X416681Y266910D01*
X416551Y266929D01*
X416449Y266947D01*
X416412D01*
X416385Y266956D01*
X416366D01*
X416357D01*
X416246Y266966D01*
X416135Y266975D01*
X415885Y266993D01*
X415635Y267003D01*
X415395Y267012D01*
X415275D01*
X415173Y267021D01*
X415080D01*
X414997D01*
X414932D01*
X414886D01*
X414849D01*
X414840D01*
X414507D01*
X414183Y267012D01*
X413878D01*
X413739Y267003D01*
X413610D01*
X413480D01*
X413369Y266993D01*
X413277D01*
X413193D01*
X413129Y266984D01*
X413073D01*
X413045D01*
X413036D01*
X412879Y266975D01*
X412731D01*
X412611Y266966D01*
X412500D01*
X412407Y266956D01*
X412333D01*
X412268D01*
X412213D01*
X412176Y266947D01*
X412148D01*
X412102D01*
X412083D01*
X411945Y266956D01*
X411824Y266993D01*
X411723Y267039D01*
X411649Y267086D01*
X411593Y267141D01*
X411556Y267178D01*
X411538Y267215D01*
X411528Y267225D01*
X411501Y267280D01*
X411482Y267354D01*
X411445Y267520D01*
X411427Y267705D01*
X411408Y267891D01*
X411399Y268057D01*
X411390Y268131D01*
Y268335D01*
X411399Y268631D01*
X411417Y268899D01*
X411454Y269148D01*
X411473Y269260D01*
X411491Y269361D01*
X411510Y269454D01*
X411528Y269537D01*
X411547Y269611D01*
X411565Y269676D01*
X411575Y269722D01*
X411584Y269759D01*
X411593Y269777D01*
Y269787D01*
X411686Y270027D01*
X411778Y270240D01*
X411889Y270434D01*
X411991Y270601D01*
X412083Y270740D01*
X412120Y270795D01*
X412157Y270841D01*
X412185Y270878D01*
X412204Y270906D01*
X412222Y270915D01*
Y270924D01*
X412398Y271110D01*
X412583Y271276D01*
X412759Y271415D01*
X412916Y271535D01*
X413064Y271618D01*
X413119Y271655D01*
X413175Y271683D01*
X413221Y271711D01*
X413249Y271729D01*
X413267Y271739D01*
X413277D01*
X413508Y271831D01*
X413730Y271905D01*
X413952Y271951D01*
X414146Y271988D01*
X414229Y271997D01*
X414313Y272007D01*
X414387Y272016D01*
X414442Y272025D01*
X414498D01*
X414535D01*
X414553D01*
X414562D01*
X414794Y272016D01*
D02*
G37*
G36*
X417032Y266013D02*
X417097Y265994D01*
X417152Y265976D01*
X417199Y265948D01*
X417236Y265911D01*
X417254Y265893D01*
X417273Y265874D01*
Y265865D01*
X417300Y265800D01*
X417328Y265717D01*
X417356Y265560D01*
X417365Y265486D01*
Y265310D01*
X417356Y265273D01*
Y265171D01*
X417347Y265134D01*
Y265097D01*
X417328Y264736D01*
X417319Y264394D01*
X417300Y264070D01*
Y263654D01*
X417291Y263534D01*
Y262599D01*
X417125Y262627D01*
X416949Y262646D01*
X416764Y262664D01*
X416597Y262683D01*
X416449Y262692D01*
X416385Y262701D01*
X416329D01*
X416283Y262710D01*
X416246D01*
X416227D01*
X416218D01*
X416098Y262720D01*
X415959Y262729D01*
X415682Y262738D01*
X415395Y262748D01*
X415127D01*
X415006Y262757D01*
X414886D01*
X414784D01*
X414692D01*
X414618D01*
X414562D01*
X414525D01*
X414516D01*
X414109D01*
X413693Y262748D01*
X413304Y262738D01*
X413119Y262729D01*
X412953D01*
X412786Y262720D01*
X412648Y262710D01*
X412518D01*
X412407Y262701D01*
X412315D01*
X412250Y262692D01*
X412213D01*
X412194D01*
X412074Y262683D01*
X411982D01*
X411908D01*
X411852Y262673D01*
X411815D01*
X411787D01*
X411769D01*
X411704D01*
X411639Y262683D01*
X411593Y262701D01*
X411556Y262710D01*
X411510Y262738D01*
X411491Y262748D01*
X411445Y262822D01*
X411417Y262905D01*
Y262951D01*
X411408Y262979D01*
Y263118D01*
X411417Y263275D01*
Y263432D01*
X411427Y263571D01*
Y264311D01*
X411417Y264394D01*
Y264662D01*
X411408Y264783D01*
Y265106D01*
X411417Y265254D01*
X411427Y265374D01*
X411445Y265476D01*
X411464Y265560D01*
X411482Y265624D01*
X411491Y265661D01*
X411510Y265689D01*
Y265698D01*
X411556Y265754D01*
X411612Y265800D01*
X411667Y265828D01*
X411723Y265856D01*
X411778Y265865D01*
X411824Y265874D01*
X411852D01*
X411861D01*
X411935Y265865D01*
X412009Y265856D01*
X412065Y265837D01*
X412074Y265828D01*
X412083D01*
X412139Y265809D01*
X412194Y265781D01*
X412305Y265726D01*
X412352Y265698D01*
X412389Y265670D01*
X412416Y265661D01*
X412426Y265652D01*
X412352Y265439D01*
X412324Y265337D01*
X412296Y265245D01*
X412278Y265171D01*
X412268Y265115D01*
X412259Y265069D01*
Y265060D01*
X412241Y264949D01*
X412231Y264829D01*
X412222Y264708D01*
Y264598D01*
X412213Y264496D01*
Y263996D01*
X412222Y263876D01*
Y263571D01*
X412416Y263580D01*
X412611D01*
X412786Y263589D01*
X412953D01*
X413082Y263598D01*
X413147D01*
X413193D01*
X413230D01*
X413258D01*
X413277D01*
X413286D01*
X413480Y263608D01*
X413656D01*
X413804Y263617D01*
X413924D01*
X414017D01*
X414081D01*
X414128D01*
X414137D01*
Y263719D01*
X414146Y263811D01*
Y264440D01*
X414137Y264524D01*
Y264773D01*
X414128Y264875D01*
Y265106D01*
X414137Y265217D01*
X414146Y265310D01*
X414165Y265393D01*
X414183Y265458D01*
X414202Y265513D01*
X414211Y265550D01*
X414229Y265569D01*
Y265578D01*
X414276Y265634D01*
X414322Y265670D01*
X414387Y265698D01*
X414442Y265717D01*
X414488Y265726D01*
X414535Y265735D01*
X414562D01*
X414572D01*
X414627D01*
X414683Y265726D01*
X414720Y265717D01*
X414738Y265707D01*
X414821Y265680D01*
X414905Y265643D01*
X414942Y265624D01*
X414979Y265606D01*
X414997Y265597D01*
X415006D01*
X414988Y265504D01*
X414969Y265411D01*
X414960Y265319D01*
X414951Y265227D01*
X414942Y265153D01*
X414932Y265088D01*
Y265032D01*
X414923Y264903D01*
Y264616D01*
X414914Y264477D01*
Y263626D01*
X416514Y263654D01*
Y263765D01*
X416523Y263941D01*
Y264098D01*
X416533Y264218D01*
Y264634D01*
X416523Y264783D01*
X416514Y264903D01*
Y265014D01*
X416505Y265097D01*
X416496Y265162D01*
X416486Y265208D01*
Y265217D01*
X416440Y265430D01*
X416422Y265532D01*
X416394Y265615D01*
X416375Y265689D01*
X416357Y265744D01*
X416348Y265781D01*
X416338Y265791D01*
X416486Y265874D01*
X416542Y265902D01*
X416597Y265930D01*
X416634Y265948D01*
X416662Y265957D01*
X416681Y265967D01*
X416690D01*
X416792Y266003D01*
X416875Y266013D01*
X416930Y266022D01*
X416940D01*
X416949D01*
X417032Y266013D01*
D02*
G37*
G36*
X416838Y261193D02*
X416949Y261175D01*
X417032Y261157D01*
X417097Y261138D01*
X417134Y261120D01*
X417162Y261110D01*
X417171Y261101D01*
X417226Y261055D01*
X417263Y260990D01*
X417300Y260925D01*
X417319Y260870D01*
X417328Y260805D01*
X417337Y260759D01*
Y260713D01*
X417328Y260611D01*
X417310Y260509D01*
X417300Y260472D01*
X417291Y260444D01*
X417282Y260426D01*
Y260417D01*
X417236Y260296D01*
X417171Y260176D01*
X417143Y260121D01*
X417115Y260074D01*
X417106Y260047D01*
X417097Y260037D01*
X416940Y260102D01*
X416782Y260167D01*
X416625Y260213D01*
X416468Y260250D01*
X416338Y260278D01*
X416237Y260296D01*
X416200Y260306D01*
X416172Y260315D01*
X416153D01*
X416144D01*
X416033Y260333D01*
X415922Y260343D01*
X415663Y260361D01*
X415404Y260380D01*
X415145Y260389D01*
X415025D01*
X414914Y260398D01*
X414812D01*
X414729D01*
X414655D01*
X414599D01*
X414562D01*
X414553D01*
X414424D01*
X414294D01*
X414165D01*
X414044D01*
X413933Y260389D01*
X413850D01*
X413795D01*
X413785D01*
X413776D01*
X413434Y260380D01*
X413267D01*
X413119D01*
X412990Y260370D01*
X412897D01*
X412860D01*
X412833D01*
X412814D01*
X412805D01*
X413193Y260047D01*
X413573Y259732D01*
X413943Y259418D01*
X414294Y259121D01*
X414627Y258844D01*
X414951Y258576D01*
X415247Y258317D01*
X415524Y258085D01*
X415774Y257873D01*
X415996Y257688D01*
X416200Y257521D01*
X416366Y257373D01*
X416496Y257262D01*
X416551Y257216D01*
X416588Y257179D01*
X416625Y257151D01*
X416653Y257133D01*
X416662Y257123D01*
X416671Y257114D01*
X416736Y257068D01*
X416782Y257031D01*
X416819Y257003D01*
X416847Y256976D01*
X416884Y256948D01*
X416893Y256939D01*
X416967Y256874D01*
X417032Y256809D01*
X417088Y256753D01*
X417125Y256707D01*
X417162Y256661D01*
X417180Y256633D01*
X417199Y256615D01*
Y256606D01*
X417254Y256504D01*
X417282Y256411D01*
X417291Y256374D01*
Y256254D01*
X417273Y256199D01*
X417245Y256097D01*
X417226Y256060D01*
X417208Y256032D01*
X417199Y256013D01*
X417189Y256004D01*
X417143Y255949D01*
X417088Y255884D01*
X416958Y255773D01*
X416903Y255727D01*
X416847Y255690D01*
X416810Y255662D01*
X416801Y255653D01*
X416727Y255745D01*
X416653Y255819D01*
X416570Y255884D01*
X416486Y255930D01*
X416412Y255967D01*
X416357Y255995D01*
X416320Y256013D01*
X416301D01*
X416237Y256032D01*
X416163Y256050D01*
X415996Y256069D01*
X415811Y256087D01*
X415626Y256106D01*
X415450D01*
X415376Y256115D01*
X415312D01*
X415256D01*
X415219D01*
X415191D01*
X415182D01*
X414868D01*
X414581D01*
X414322Y256106D01*
X414072Y256097D01*
X413859D01*
X413656Y256087D01*
X413480Y256078D01*
X413323Y256069D01*
X413193Y256060D01*
X413073Y256050D01*
X412981Y256041D01*
X412907D01*
X412842Y256032D01*
X412805Y256023D01*
X412777D01*
X412768D01*
X412527Y255986D01*
X412315Y255940D01*
X412120Y255893D01*
X411963Y255847D01*
X411834Y255801D01*
X411741Y255764D01*
X411713Y255745D01*
X411686Y255736D01*
X411676Y255727D01*
X411667D01*
X411575Y255866D01*
X411519Y255986D01*
X411501Y256032D01*
X411482Y256069D01*
X411473Y256087D01*
Y256097D01*
X411445Y256226D01*
X411427Y256328D01*
X411417Y256374D01*
Y256430D01*
X411427Y256522D01*
X411445Y256606D01*
X411464Y256670D01*
X411491Y256726D01*
X411519Y256763D01*
X411547Y256790D01*
X411556Y256809D01*
X411565D01*
X411630Y256846D01*
X411713Y256874D01*
X411815Y256892D01*
X411908Y256911D01*
X412000D01*
X412074Y256920D01*
X412120D01*
X412139D01*
X412157D01*
X412176D01*
X412250D01*
X412333Y256911D01*
X412426D01*
X412518D01*
X412601Y256902D01*
X412657D01*
X412666D01*
X412675D01*
X413277Y256883D01*
X413563Y256874D01*
X413841D01*
X414109Y256865D01*
X414359Y256855D01*
X414599D01*
X414821D01*
X415025D01*
X415210Y256846D01*
X415367D01*
X415506D01*
X415608D01*
X415691D01*
X415737D01*
X415756D01*
X415626Y256948D01*
X415478Y257059D01*
X415321Y257188D01*
X415145Y257327D01*
X414794Y257623D01*
X414442Y257919D01*
X414276Y258058D01*
X414118Y258187D01*
X413980Y258308D01*
X413850Y258409D01*
X413748Y258502D01*
X413674Y258566D01*
X413628Y258604D01*
X413610Y258622D01*
X413341Y258853D01*
X413082Y259085D01*
X412851Y259288D01*
X412629Y259491D01*
X412426Y259667D01*
X412241Y259843D01*
X412074Y259991D01*
X411926Y260139D01*
X411797Y260259D01*
X411686Y260370D01*
X411593Y260463D01*
X411510Y260546D01*
X411445Y260601D01*
X411408Y260648D01*
X411380Y260676D01*
X411371Y260685D01*
X411630Y261212D01*
X411797Y261193D01*
X411954Y261184D01*
X412102Y261166D01*
X412231Y261157D01*
X412333Y261147D01*
X412416D01*
X412472Y261138D01*
X412490D01*
X412657Y261129D01*
X412823D01*
X412981D01*
X413129Y261120D01*
X413258D01*
X413351D01*
X413388D01*
X413415D01*
X413434D01*
X413443D01*
X413748D01*
X414063Y261129D01*
X414368Y261138D01*
X414516D01*
X414655Y261147D01*
X414784D01*
X414895D01*
X415006Y261157D01*
X415090D01*
X415164Y261166D01*
X415219D01*
X415256D01*
X415265D01*
X415450Y261175D01*
X415617Y261184D01*
X415765D01*
X415904Y261193D01*
X416024D01*
X416126Y261203D01*
X416218D01*
X416292D01*
X416357Y261212D01*
X416412D01*
X416459D01*
X416486D01*
X416533D01*
X416542D01*
X416699D01*
X416838Y261193D01*
D02*
G37*
G36*
X413711Y254904D02*
X413850Y254894D01*
X413970Y254876D01*
X414072Y254848D01*
X414146Y254820D01*
X414202Y254802D01*
X414229Y254792D01*
X414239Y254783D01*
X414313Y254728D01*
X414359Y254672D01*
X414396Y254598D01*
X414424Y254534D01*
X414442Y254469D01*
X414451Y254413D01*
Y254367D01*
X414442Y254275D01*
X414414Y254191D01*
X414405Y254145D01*
X414387Y254117D01*
X414377Y254099D01*
Y254089D01*
X414350Y254025D01*
X414313Y253951D01*
X414229Y253821D01*
X414192Y253766D01*
X414165Y253719D01*
X414146Y253682D01*
X414137Y253673D01*
X413970Y253775D01*
X413887Y253812D01*
X413813Y253840D01*
X413748Y253868D01*
X413702Y253886D01*
X413665Y253895D01*
X413656D01*
X413554Y253914D01*
X413452Y253932D01*
X413351Y253941D01*
X413258Y253951D01*
X413175Y253960D01*
X413110D01*
X413064D01*
X413045D01*
X412888D01*
X412823Y253951D01*
X412759D01*
X412712D01*
X412675Y253941D01*
X412648D01*
X412638D01*
X412509Y253932D01*
X412416Y253923D01*
X412379Y253914D01*
X412352D01*
X412333Y253905D01*
X412324D01*
X412268Y253738D01*
X412250Y253655D01*
X412231Y253581D01*
X412213Y253516D01*
X412204Y253461D01*
X412194Y253424D01*
Y253414D01*
X412167Y253211D01*
X412157Y253118D01*
Y253026D01*
X412148Y252952D01*
Y252850D01*
X412157Y252637D01*
X412176Y252443D01*
X412194Y252249D01*
X412231Y252082D01*
X412268Y251916D01*
X412315Y251777D01*
X412370Y251638D01*
X412416Y251518D01*
X412463Y251416D01*
X412518Y251324D01*
X412564Y251240D01*
X412601Y251176D01*
X412638Y251130D01*
X412666Y251093D01*
X412675Y251074D01*
X412685Y251065D01*
X412786Y250954D01*
X412907Y250861D01*
X413027Y250778D01*
X413147Y250713D01*
X413277Y250648D01*
X413406Y250602D01*
X413647Y250528D01*
X413767Y250510D01*
X413869Y250491D01*
X413961Y250473D01*
X414044Y250464D01*
X414118Y250454D01*
X414165D01*
X414202D01*
X414211D01*
X414396Y250464D01*
X414572Y250482D01*
X414738Y250519D01*
X414905Y250565D01*
X415053Y250621D01*
X415182Y250676D01*
X415312Y250741D01*
X415423Y250815D01*
X415524Y250880D01*
X415617Y250944D01*
X415691Y251000D01*
X415756Y251056D01*
X415811Y251102D01*
X415848Y251139D01*
X415867Y251157D01*
X415876Y251167D01*
X415996Y251305D01*
X416089Y251453D01*
X416181Y251601D01*
X416255Y251759D01*
X416320Y251916D01*
X416375Y252064D01*
X416412Y252212D01*
X416449Y252360D01*
X416477Y252489D01*
X416496Y252619D01*
X416514Y252730D01*
X416523Y252822D01*
X416533Y252896D01*
Y253007D01*
X416523Y253155D01*
Y253211D01*
X416514Y253266D01*
X416505Y253312D01*
Y253349D01*
X416496Y253368D01*
Y253377D01*
X416468Y253516D01*
X416440Y253645D01*
X416431Y253692D01*
X416422Y253738D01*
X416412Y253766D01*
Y253775D01*
X416542Y253849D01*
X416644Y253895D01*
X416681Y253905D01*
X416718Y253914D01*
X416727Y253923D01*
X416736D01*
X416829Y253951D01*
X416903Y253960D01*
X416949Y253969D01*
X416967D01*
X417051Y253960D01*
X417134Y253941D01*
X417189Y253905D01*
X417245Y253868D01*
X417282Y253831D01*
X417310Y253794D01*
X417319Y253775D01*
X417328Y253766D01*
X417365Y253682D01*
X417393Y253590D01*
X417430Y253405D01*
Y253322D01*
X417439Y253257D01*
Y253192D01*
X417430Y252896D01*
X417393Y252609D01*
X417347Y252350D01*
X417319Y252230D01*
X417291Y252119D01*
X417263Y252017D01*
X417236Y251925D01*
X417208Y251842D01*
X417189Y251777D01*
X417171Y251722D01*
X417152Y251684D01*
X417143Y251657D01*
Y251647D01*
X417023Y251379D01*
X416884Y251139D01*
X416745Y250926D01*
X416616Y250741D01*
X416551Y250658D01*
X416496Y250593D01*
X416440Y250528D01*
X416403Y250473D01*
X416366Y250436D01*
X416338Y250408D01*
X416320Y250390D01*
X416311Y250380D01*
X416135Y250214D01*
X415950Y250066D01*
X415774Y249945D01*
X415617Y249844D01*
X415487Y249770D01*
X415432Y249742D01*
X415376Y249714D01*
X415339Y249696D01*
X415312Y249677D01*
X415293Y249668D01*
X415284D01*
X415071Y249594D01*
X414868Y249538D01*
X414664Y249492D01*
X414488Y249465D01*
X414331Y249446D01*
X414266D01*
X414211Y249437D01*
X414165D01*
X414128D01*
X414109D01*
X414100D01*
X413869Y249446D01*
X413656Y249474D01*
X413443Y249520D01*
X413249Y249585D01*
X413073Y249650D01*
X412907Y249733D01*
X412749Y249816D01*
X412620Y249899D01*
X412490Y249983D01*
X412379Y250066D01*
X412287Y250149D01*
X412213Y250214D01*
X412157Y250278D01*
X412111Y250325D01*
X412083Y250353D01*
X412074Y250362D01*
X411945Y250537D01*
X411824Y250732D01*
X411723Y250935D01*
X411639Y251139D01*
X411565Y251342D01*
X411501Y251546D01*
X411454Y251740D01*
X411408Y251934D01*
X411380Y252119D01*
X411353Y252286D01*
X411343Y252434D01*
X411325Y252563D01*
Y252665D01*
X411316Y252748D01*
Y252813D01*
X411325Y253035D01*
X411334Y253248D01*
X411353Y253424D01*
X411371Y253581D01*
X411390Y253710D01*
X411408Y253803D01*
X411417Y253831D01*
X411427Y253858D01*
Y253877D01*
X411473Y254034D01*
X411538Y254164D01*
X411593Y254275D01*
X411658Y254376D01*
X411713Y254450D01*
X411760Y254497D01*
X411787Y254534D01*
X411797Y254543D01*
X411871Y254598D01*
X411972Y254654D01*
X412083Y254700D01*
X412185Y254737D01*
X412287Y254774D01*
X412370Y254792D01*
X412426Y254811D01*
X412435D01*
X412444D01*
X412629Y254848D01*
X412814Y254867D01*
X412999Y254885D01*
X413175Y254904D01*
X413314D01*
X413378Y254913D01*
X413434D01*
X413480D01*
X413508D01*
X413526D01*
X413536D01*
X413711Y254904D01*
D02*
G37*
G36*
X411787Y248614D02*
X411917Y248567D01*
X412056Y248539D01*
X412176Y248512D01*
X412296Y248493D01*
X412379Y248475D01*
X412416D01*
X412444Y248465D01*
X412453D01*
X412463D01*
X412564Y248456D01*
X412666Y248447D01*
X412897Y248438D01*
X413129Y248419D01*
X413360D01*
X413462D01*
X413563Y248410D01*
X413647D01*
X413730D01*
X413795D01*
X413841D01*
X413869D01*
X413878D01*
X414220D01*
X414562Y248419D01*
X414877D01*
X415025Y248429D01*
X415164D01*
X415284D01*
X415395Y248438D01*
X415497D01*
X415589D01*
X415654Y248447D01*
X415700D01*
X415737D01*
X415746D01*
X415913Y248456D01*
X416061Y248465D01*
X416190D01*
X416292Y248475D01*
X416385D01*
X416468Y248484D01*
X416533D01*
X416579D01*
X416625Y248493D01*
X416653D01*
X416690D01*
X416708D01*
X416829D01*
X416921Y248475D01*
X417004Y248456D01*
X417078Y248438D01*
X417125Y248419D01*
X417162Y248401D01*
X417180Y248392D01*
X417189Y248382D01*
X417245Y248336D01*
X417282Y248281D01*
X417310Y248225D01*
X417328Y248160D01*
X417337Y248105D01*
X417347Y248068D01*
Y248022D01*
X417337Y247901D01*
X417319Y247799D01*
X417310Y247753D01*
X417300Y247716D01*
X417291Y247698D01*
Y247689D01*
X417263Y247624D01*
X417236Y247550D01*
X417162Y247420D01*
X417134Y247365D01*
X417106Y247319D01*
X417088Y247282D01*
X417078Y247272D01*
X416958Y247319D01*
X416829Y247346D01*
X416699Y247383D01*
X416570Y247402D01*
X416449Y247420D01*
X416357Y247439D01*
X416320D01*
X416292Y247448D01*
X416283D01*
X416274D01*
X416172Y247457D01*
X416061Y247466D01*
X415830Y247485D01*
X415589Y247494D01*
X415349Y247503D01*
X415247D01*
X415145Y247513D01*
X415053D01*
X414969D01*
X414905D01*
X414858D01*
X414821D01*
X414812D01*
X414525D01*
X414239Y247503D01*
X413952D01*
X413702Y247494D01*
X413582D01*
X413480Y247485D01*
X413378D01*
X413304D01*
X413240Y247476D01*
X413184D01*
X413156D01*
X413147D01*
X412990Y247466D01*
X412842D01*
X412712Y247457D01*
X412592D01*
X412490Y247448D01*
X412407D01*
X412333D01*
X412268D01*
X412213Y247439D01*
X412167D01*
X412111D01*
X412074D01*
X412065D01*
X411935D01*
X411834Y247457D01*
X411741Y247466D01*
X411676Y247485D01*
X411621Y247503D01*
X411584Y247513D01*
X411565Y247531D01*
X411556D01*
X411510Y247578D01*
X411473Y247624D01*
X411454Y247679D01*
X411436Y247744D01*
X411427Y247799D01*
X411417Y247846D01*
Y247883D01*
X411427Y248012D01*
X411445Y248123D01*
Y248169D01*
X411454Y248206D01*
X411464Y248225D01*
Y248234D01*
X411519Y248382D01*
X411584Y248521D01*
X411621Y248576D01*
X411639Y248623D01*
X411658Y248651D01*
X411667Y248660D01*
X411787Y248614D01*
D02*
G37*
G36*
X416986Y246430D02*
X417060Y246412D01*
X417125Y246375D01*
X417171Y246347D01*
X417208Y246310D01*
X417245Y246273D01*
X417254Y246255D01*
X417263Y246246D01*
X417310Y246171D01*
X417337Y246088D01*
X417374Y245913D01*
X417384Y245838D01*
X417393Y245774D01*
Y245718D01*
X417384Y245552D01*
X417365Y245394D01*
X417328Y245247D01*
X417300Y245117D01*
X417263Y245006D01*
X417226Y244923D01*
X417208Y244867D01*
X417199Y244858D01*
Y244849D01*
X417115Y244691D01*
X417023Y244544D01*
X416930Y244414D01*
X416829Y244294D01*
X416736Y244192D01*
X416662Y244109D01*
X416616Y244062D01*
X416607Y244053D01*
X416597Y244044D01*
X416523Y243961D01*
X416440Y243887D01*
X416357Y243831D01*
X416283Y243776D01*
X416218Y243739D01*
X416163Y243711D01*
X416116Y243692D01*
X416107Y243683D01*
X415996Y243637D01*
X415885Y243609D01*
X415783Y243582D01*
X415700Y243572D01*
X415617Y243563D01*
X415561Y243554D01*
X415524D01*
X415506D01*
X415376Y243563D01*
X415247Y243600D01*
X415117Y243655D01*
X414979Y243720D01*
X414849Y243804D01*
X414720Y243896D01*
X414488Y244090D01*
X414377Y244192D01*
X414276Y244285D01*
X414192Y244377D01*
X414118Y244460D01*
X414054Y244525D01*
X414007Y244581D01*
X413980Y244618D01*
X413970Y244627D01*
X413952Y244645D01*
Y244654D01*
X413850Y244775D01*
X413748Y244877D01*
X413656Y244969D01*
X413563Y245052D01*
X413480Y245117D01*
X413397Y245173D01*
X413323Y245219D01*
X413258Y245256D01*
X413147Y245302D01*
X413064Y245330D01*
X413008Y245339D01*
X412999D01*
X412990D01*
X412879Y245330D01*
X412777Y245302D01*
X412685Y245256D01*
X412611Y245219D01*
X412555Y245173D01*
X412509Y245126D01*
X412481Y245098D01*
X412472Y245089D01*
X412407Y244988D01*
X412361Y244877D01*
X412333Y244756D01*
X412315Y244645D01*
X412296Y244553D01*
X412287Y244469D01*
Y244395D01*
X412296Y244266D01*
X412305Y244155D01*
X412315Y244109D01*
Y244072D01*
X412324Y244053D01*
Y244044D01*
X412361Y243915D01*
X412407Y243785D01*
X412426Y243729D01*
X412444Y243683D01*
X412463Y243655D01*
Y243646D01*
X412333Y243563D01*
X412241Y243498D01*
X412204Y243480D01*
X412176Y243471D01*
X412157Y243461D01*
X412148D01*
X412056Y243443D01*
X411982Y243433D01*
X411926Y243424D01*
X411917D01*
X411908D01*
X411806Y243433D01*
X411723Y243452D01*
X411658Y243489D01*
X411593Y243526D01*
X411547Y243554D01*
X411519Y243591D01*
X411501Y243609D01*
X411491Y243618D01*
X411445Y243702D01*
X411417Y243794D01*
X411390Y243887D01*
X411380Y243979D01*
X411371Y244062D01*
X411362Y244127D01*
Y244192D01*
X411371Y244386D01*
X411390Y244562D01*
X411427Y244728D01*
X411464Y244877D01*
X411501Y244997D01*
X411538Y245089D01*
X411547Y245117D01*
X411556Y245145D01*
X411565Y245154D01*
Y245163D01*
X411649Y245321D01*
X411741Y245468D01*
X411834Y245589D01*
X411926Y245681D01*
X412009Y245764D01*
X412074Y245820D01*
X412111Y245857D01*
X412130Y245866D01*
X412231Y245950D01*
X412324Y246014D01*
X412416Y246070D01*
X412490Y246116D01*
X412555Y246153D01*
X412611Y246171D01*
X412638Y246190D01*
X412648D01*
X412823Y246246D01*
X412907Y246264D01*
X412981Y246273D01*
X413045Y246283D01*
X413092D01*
X413129D01*
X413138D01*
X413267Y246273D01*
X413397Y246236D01*
X413536Y246181D01*
X413674Y246107D01*
X413813Y246024D01*
X413943Y245922D01*
X414202Y245718D01*
X414313Y245617D01*
X414424Y245515D01*
X414516Y245413D01*
X414599Y245330D01*
X414664Y245256D01*
X414710Y245200D01*
X414747Y245163D01*
X414757Y245154D01*
X414803Y245098D01*
X414831Y245061D01*
X414849Y245034D01*
X414858Y245024D01*
X414951Y244923D01*
X415034Y244830D01*
X415108Y244756D01*
X415173Y244701D01*
X415228Y244664D01*
X415265Y244627D01*
X415284Y244618D01*
X415293Y244608D01*
X415367Y244571D01*
X415432Y244553D01*
X415571Y244516D01*
X415617D01*
X415663Y244507D01*
X415691D01*
X415700D01*
X415830Y244516D01*
X415941Y244544D01*
X416033Y244590D01*
X416116Y244636D01*
X416181Y244682D01*
X416227Y244728D01*
X416255Y244756D01*
X416264Y244765D01*
X416338Y244867D01*
X416385Y244988D01*
X416422Y245108D01*
X416449Y245228D01*
X416468Y245330D01*
X416477Y245422D01*
Y245496D01*
X416468Y245607D01*
X416459Y245709D01*
X416449Y245746D01*
Y245774D01*
X416440Y245792D01*
Y245801D01*
X416412Y245922D01*
X416385Y246051D01*
X416366Y246097D01*
X416357Y246144D01*
X416348Y246171D01*
Y246181D01*
X416477Y246273D01*
X416579Y246329D01*
X416616Y246347D01*
X416653Y246366D01*
X416662Y246375D01*
X416671D01*
X416764Y246412D01*
X416829Y246430D01*
X416875Y246440D01*
X416893D01*
X416986Y246430D01*
D02*
G37*
G36*
X417032Y242860D02*
X417097Y242842D01*
X417152Y242823D01*
X417199Y242795D01*
X417236Y242758D01*
X417254Y242740D01*
X417273Y242721D01*
Y242712D01*
X417300Y242647D01*
X417328Y242564D01*
X417356Y242407D01*
X417365Y242333D01*
Y242157D01*
X417356Y242120D01*
Y242018D01*
X417347Y241981D01*
Y241944D01*
X417328Y241583D01*
X417319Y241241D01*
X417300Y240917D01*
Y240501D01*
X417291Y240381D01*
Y239447D01*
X417125Y239475D01*
X416949Y239493D01*
X416764Y239511D01*
X416597Y239530D01*
X416449Y239539D01*
X416385Y239548D01*
X416329D01*
X416283Y239558D01*
X416246D01*
X416227D01*
X416218D01*
X416098Y239567D01*
X415959Y239576D01*
X415682Y239585D01*
X415395Y239595D01*
X415127D01*
X415006Y239604D01*
X414886D01*
X414784D01*
X414692D01*
X414618D01*
X414562D01*
X414525D01*
X414516D01*
X414109D01*
X413693Y239595D01*
X413304Y239585D01*
X413119Y239576D01*
X412953D01*
X412786Y239567D01*
X412648Y239558D01*
X412518D01*
X412407Y239548D01*
X412315D01*
X412250Y239539D01*
X412213D01*
X412194D01*
X412074Y239530D01*
X411982D01*
X411908D01*
X411852Y239521D01*
X411815D01*
X411787D01*
X411769D01*
X411704D01*
X411639Y239530D01*
X411593Y239548D01*
X411556Y239558D01*
X411510Y239585D01*
X411491Y239595D01*
X411445Y239669D01*
X411417Y239752D01*
Y239798D01*
X411408Y239826D01*
Y239965D01*
X411417Y240122D01*
Y240279D01*
X411427Y240418D01*
Y241158D01*
X411417Y241241D01*
Y241510D01*
X411408Y241630D01*
Y241953D01*
X411417Y242102D01*
X411427Y242222D01*
X411445Y242323D01*
X411464Y242407D01*
X411482Y242472D01*
X411491Y242509D01*
X411510Y242536D01*
Y242546D01*
X411556Y242601D01*
X411612Y242647D01*
X411667Y242675D01*
X411723Y242703D01*
X411778Y242712D01*
X411824Y242721D01*
X411852D01*
X411861D01*
X411935Y242712D01*
X412009Y242703D01*
X412065Y242684D01*
X412074Y242675D01*
X412083D01*
X412139Y242656D01*
X412194Y242629D01*
X412305Y242573D01*
X412352Y242546D01*
X412389Y242518D01*
X412416Y242509D01*
X412426Y242499D01*
X412352Y242286D01*
X412324Y242185D01*
X412296Y242092D01*
X412278Y242018D01*
X412268Y241963D01*
X412259Y241916D01*
Y241907D01*
X412241Y241796D01*
X412231Y241676D01*
X412222Y241556D01*
Y241445D01*
X412213Y241343D01*
Y240844D01*
X412222Y240723D01*
Y240418D01*
X412416Y240427D01*
X412611D01*
X412786Y240437D01*
X412953D01*
X413082Y240446D01*
X413147D01*
X413193D01*
X413230D01*
X413258D01*
X413277D01*
X413286D01*
X413480Y240455D01*
X413656D01*
X413804Y240464D01*
X413924D01*
X414017D01*
X414081D01*
X414128D01*
X414137D01*
Y240566D01*
X414146Y240658D01*
Y241287D01*
X414137Y241371D01*
Y241620D01*
X414128Y241722D01*
Y241953D01*
X414137Y242064D01*
X414146Y242157D01*
X414165Y242240D01*
X414183Y242305D01*
X414202Y242360D01*
X414211Y242397D01*
X414229Y242416D01*
Y242425D01*
X414276Y242481D01*
X414322Y242518D01*
X414387Y242546D01*
X414442Y242564D01*
X414488Y242573D01*
X414535Y242583D01*
X414562D01*
X414572D01*
X414627D01*
X414683Y242573D01*
X414720Y242564D01*
X414738Y242555D01*
X414821Y242527D01*
X414905Y242490D01*
X414942Y242472D01*
X414979Y242453D01*
X414997Y242444D01*
X415006D01*
X414988Y242351D01*
X414969Y242259D01*
X414960Y242166D01*
X414951Y242074D01*
X414942Y242000D01*
X414932Y241935D01*
Y241880D01*
X414923Y241750D01*
Y241463D01*
X414914Y241324D01*
Y240474D01*
X416514Y240501D01*
Y240612D01*
X416523Y240788D01*
Y240945D01*
X416533Y241066D01*
Y241482D01*
X416523Y241630D01*
X416514Y241750D01*
Y241861D01*
X416505Y241944D01*
X416496Y242009D01*
X416486Y242055D01*
Y242064D01*
X416440Y242277D01*
X416422Y242379D01*
X416394Y242462D01*
X416375Y242536D01*
X416357Y242592D01*
X416348Y242629D01*
X416338Y242638D01*
X416486Y242721D01*
X416542Y242749D01*
X416597Y242777D01*
X416634Y242795D01*
X416662Y242805D01*
X416681Y242814D01*
X416690D01*
X416792Y242851D01*
X416875Y242860D01*
X416930Y242869D01*
X416940D01*
X416949D01*
X417032Y242860D01*
D02*
G37*
G36*
X414794Y238494D02*
X415016Y238466D01*
X415219Y238411D01*
X415413Y238355D01*
X415598Y238281D01*
X415765Y238198D01*
X415913Y238115D01*
X416052Y238022D01*
X416181Y237930D01*
X416292Y237846D01*
X416385Y237763D01*
X416459Y237689D01*
X416514Y237634D01*
X416560Y237587D01*
X416588Y237550D01*
X416597Y237541D01*
X416736Y237356D01*
X416847Y237162D01*
X416958Y236949D01*
X417041Y236746D01*
X417115Y236533D01*
X417180Y236320D01*
X417226Y236107D01*
X417273Y235913D01*
X417300Y235728D01*
X417328Y235553D01*
X417337Y235395D01*
X417356Y235266D01*
Y235155D01*
X417365Y235071D01*
Y234970D01*
X417356Y234942D01*
Y234812D01*
X417347Y234711D01*
Y234609D01*
X417337Y234517D01*
Y234433D01*
X417328Y234017D01*
X417319Y233823D01*
Y233638D01*
X417310Y233490D01*
Y233259D01*
X417152Y233305D01*
X416995Y233332D01*
X416838Y233369D01*
X416681Y233388D01*
X416551Y233406D01*
X416449Y233425D01*
X416412D01*
X416385Y233434D01*
X416366D01*
X416357D01*
X416246Y233443D01*
X416135Y233453D01*
X415885Y233471D01*
X415635Y233481D01*
X415395Y233490D01*
X415275D01*
X415173Y233499D01*
X415080D01*
X414997D01*
X414932D01*
X414886D01*
X414849D01*
X414840D01*
X414507D01*
X414183Y233490D01*
X413878D01*
X413739Y233481D01*
X413610D01*
X413480D01*
X413369Y233471D01*
X413277D01*
X413193D01*
X413129Y233462D01*
X413073D01*
X413045D01*
X413036D01*
X412879Y233453D01*
X412731D01*
X412611Y233443D01*
X412500D01*
X412407Y233434D01*
X412333D01*
X412268D01*
X412213D01*
X412176Y233425D01*
X412148D01*
X412102D01*
X412083D01*
X411945Y233434D01*
X411824Y233471D01*
X411723Y233518D01*
X411649Y233564D01*
X411593Y233619D01*
X411556Y233656D01*
X411538Y233693D01*
X411528Y233702D01*
X411501Y233758D01*
X411482Y233832D01*
X411445Y233998D01*
X411427Y234184D01*
X411408Y234368D01*
X411399Y234535D01*
X411390Y234609D01*
Y234812D01*
X411399Y235108D01*
X411417Y235377D01*
X411454Y235627D01*
X411473Y235737D01*
X411491Y235839D01*
X411510Y235932D01*
X411528Y236015D01*
X411547Y236089D01*
X411565Y236154D01*
X411575Y236200D01*
X411584Y236237D01*
X411593Y236256D01*
Y236265D01*
X411686Y236505D01*
X411778Y236718D01*
X411889Y236912D01*
X411991Y237079D01*
X412083Y237217D01*
X412120Y237273D01*
X412157Y237319D01*
X412185Y237356D01*
X412204Y237384D01*
X412222Y237393D01*
Y237403D01*
X412398Y237587D01*
X412583Y237754D01*
X412759Y237893D01*
X412916Y238013D01*
X413064Y238096D01*
X413119Y238133D01*
X413175Y238161D01*
X413221Y238189D01*
X413249Y238207D01*
X413267Y238216D01*
X413277D01*
X413508Y238309D01*
X413730Y238383D01*
X413952Y238429D01*
X414146Y238466D01*
X414229Y238475D01*
X414313Y238485D01*
X414387Y238494D01*
X414442Y238503D01*
X414498D01*
X414535D01*
X414553D01*
X414562D01*
X414794Y238494D01*
D02*
G37*
G36*
X505349Y146653D02*
X505580Y146626D01*
X505793Y146589D01*
X505996Y146543D01*
X506181Y146478D01*
X506357Y146413D01*
X506514Y146339D01*
X506653Y146265D01*
X506782Y146200D01*
X506893Y146126D01*
X506986Y146062D01*
X507069Y145997D01*
X507125Y145950D01*
X507171Y145914D01*
X507199Y145886D01*
X507208Y145877D01*
X507338Y145719D01*
X507458Y145553D01*
X507559Y145377D01*
X507643Y145201D01*
X507717Y145026D01*
X507782Y144841D01*
X507828Y144665D01*
X507874Y144498D01*
X507902Y144332D01*
X507930Y144184D01*
X507939Y144054D01*
X507957Y143934D01*
Y143842D01*
X507967Y143767D01*
Y143712D01*
X507957Y143490D01*
X507948Y143268D01*
X507920Y143064D01*
X507893Y142870D01*
X507856Y142694D01*
X507819Y142519D01*
X507772Y142361D01*
X507726Y142223D01*
X507689Y142093D01*
X507643Y141982D01*
X507606Y141881D01*
X507569Y141797D01*
X507541Y141733D01*
X507513Y141686D01*
X507504Y141658D01*
X507495Y141649D01*
X504646D01*
Y144027D01*
X505626D01*
Y142870D01*
X506801D01*
X506847Y142991D01*
X506884Y143120D01*
X506912Y143249D01*
X506930Y143370D01*
X506940Y143481D01*
X506949Y143564D01*
Y143647D01*
X506940Y143795D01*
X506930Y143934D01*
X506875Y144184D01*
X506792Y144406D01*
X506745Y144498D01*
X506699Y144581D01*
X506653Y144656D01*
X506607Y144729D01*
X506561Y144785D01*
X506524Y144831D01*
X506496Y144868D01*
X506468Y144896D01*
X506459Y144905D01*
X506450Y144914D01*
X506348Y144998D01*
X506246Y145062D01*
X506135Y145127D01*
X506024Y145183D01*
X505784Y145266D01*
X505561Y145322D01*
X505460Y145340D01*
X505367Y145349D01*
X505275Y145359D01*
X505201Y145368D01*
X505136Y145377D01*
X505090D01*
X505062D01*
X505053D01*
X504886Y145368D01*
X504738Y145359D01*
X504590Y145331D01*
X504452Y145294D01*
X504331Y145257D01*
X504211Y145220D01*
X504100Y145174D01*
X504007Y145118D01*
X503924Y145072D01*
X503841Y145026D01*
X503776Y144989D01*
X503730Y144951D01*
X503684Y144914D01*
X503656Y144887D01*
X503638Y144878D01*
X503628Y144868D01*
X503536Y144766D01*
X503443Y144665D01*
X503378Y144554D01*
X503314Y144443D01*
X503258Y144332D01*
X503212Y144211D01*
X503147Y143999D01*
X503129Y143906D01*
X503110Y143814D01*
X503101Y143730D01*
X503092Y143666D01*
X503083Y143610D01*
Y143527D01*
X503101Y143185D01*
X503147Y142870D01*
X503175Y142722D01*
X503203Y142593D01*
X503240Y142463D01*
X503277Y142352D01*
X503314Y142251D01*
X503351Y142158D01*
X503378Y142084D01*
X503406Y142019D01*
X503434Y141964D01*
X503452Y141927D01*
X503462Y141908D01*
X503471Y141899D01*
X502315D01*
X502232Y142167D01*
X502167Y142436D01*
X502120Y142704D01*
X502083Y142954D01*
X502074Y143074D01*
X502065Y143175D01*
Y143268D01*
X502056Y143342D01*
Y143499D01*
X502065Y143758D01*
X502093Y144008D01*
X502130Y144239D01*
X502185Y144461D01*
X502250Y144665D01*
X502324Y144850D01*
X502398Y145026D01*
X502481Y145183D01*
X502564Y145322D01*
X502638Y145442D01*
X502712Y145544D01*
X502777Y145636D01*
X502823Y145701D01*
X502870Y145756D01*
X502898Y145784D01*
X502907Y145793D01*
X503073Y145950D01*
X503249Y146080D01*
X503425Y146200D01*
X503610Y146293D01*
X503795Y146376D01*
X503980Y146450D01*
X504155Y146505D01*
X504322Y146552D01*
X504489Y146589D01*
X504636Y146616D01*
X504766Y146635D01*
X504886Y146644D01*
X504979Y146653D01*
X505053Y146663D01*
X505090D01*
X505108D01*
X505349Y146653D01*
D02*
G37*
G36*
X507874Y139355D02*
X504627D01*
X504405D01*
X504220Y139365D01*
X504063D01*
X503933Y139374D01*
X503841Y139383D01*
X503767D01*
X503721Y139392D01*
X503712D01*
Y139374D01*
X503786Y139337D01*
X503860Y139290D01*
X504007Y139198D01*
X504072Y139161D01*
X504128Y139124D01*
X504165Y139105D01*
X504174Y139096D01*
X507874Y136673D01*
Y135424D01*
X502157D01*
Y136580D01*
X505413D01*
X505617D01*
X505784Y136571D01*
X505922D01*
X506033Y136562D01*
X506116Y136553D01*
X506172D01*
X506200Y136543D01*
X506209D01*
Y136562D01*
X506163Y136590D01*
X506098Y136627D01*
X506024Y136673D01*
X505950Y136728D01*
X505876Y136775D01*
X505811Y136811D01*
X505774Y136839D01*
X505756Y136848D01*
X502157Y139180D01*
Y140512D01*
X507874D01*
Y139355D01*
D02*
G37*
G36*
Y132122D02*
X507865Y131872D01*
X507837Y131641D01*
X507800Y131419D01*
X507754Y131206D01*
X507689Y131012D01*
X507624Y130836D01*
X507550Y130669D01*
X507476Y130512D01*
X507402Y130383D01*
X507328Y130262D01*
X507264Y130161D01*
X507199Y130078D01*
X507153Y130003D01*
X507116Y129957D01*
X507088Y129929D01*
X507079Y129920D01*
X506921Y129772D01*
X506755Y129643D01*
X506579Y129523D01*
X506403Y129430D01*
X506227Y129347D01*
X506052Y129273D01*
X505876Y129217D01*
X505710Y129171D01*
X505552Y129143D01*
X505404Y129115D01*
X505275Y129097D01*
X505164Y129078D01*
X505071D01*
X504997Y129069D01*
X504960D01*
X504942D01*
X504692Y129078D01*
X504452Y129106D01*
X504229Y129143D01*
X504026Y129199D01*
X503832Y129273D01*
X503647Y129347D01*
X503480Y129439D01*
X503332Y129541D01*
X503194Y129652D01*
X503064Y129772D01*
X502944Y129902D01*
X502833Y130031D01*
X502740Y130170D01*
X502657Y130309D01*
X502509Y130586D01*
X502389Y130873D01*
X502306Y131150D01*
X502241Y131410D01*
X502204Y131641D01*
X502185Y131743D01*
X502176Y131835D01*
X502167Y131909D01*
Y131983D01*
X502157Y132038D01*
Y134092D01*
X507874D01*
Y132122D01*
D02*
G37*
G36*
X126412Y147638D02*
X126643Y147610D01*
X126856Y147573D01*
X127059Y147527D01*
X127244Y147462D01*
X127420Y147397D01*
X127577Y147323D01*
X127716Y147249D01*
X127846Y147185D01*
X127956Y147110D01*
X128049Y147046D01*
X128132Y146981D01*
X128188Y146935D01*
X128234Y146898D01*
X128262Y146870D01*
X128271Y146861D01*
X128401Y146704D01*
X128521Y146537D01*
X128622Y146361D01*
X128706Y146186D01*
X128780Y146010D01*
X128844Y145825D01*
X128891Y145649D01*
X128937Y145483D01*
X128965Y145316D01*
X128992Y145168D01*
X129002Y145039D01*
X129020Y144918D01*
Y144826D01*
X129030Y144752D01*
Y144696D01*
X129020Y144474D01*
X129011Y144252D01*
X128983Y144049D01*
X128955Y143854D01*
X128919Y143679D01*
X128882Y143503D01*
X128835Y143346D01*
X128789Y143207D01*
X128752Y143078D01*
X128706Y142967D01*
X128669Y142865D01*
X128632Y142781D01*
X128604Y142717D01*
X128576Y142671D01*
X128567Y142643D01*
X128558Y142633D01*
X125709D01*
Y145011D01*
X126689D01*
Y143854D01*
X127864D01*
X127910Y143975D01*
X127947Y144104D01*
X127975Y144234D01*
X127994Y144354D01*
X128003Y144465D01*
X128012Y144548D01*
Y144632D01*
X128003Y144780D01*
X127994Y144918D01*
X127938Y145168D01*
X127855Y145390D01*
X127808Y145483D01*
X127762Y145566D01*
X127716Y145640D01*
X127670Y145714D01*
X127623Y145769D01*
X127586Y145816D01*
X127559Y145852D01*
X127531Y145880D01*
X127522Y145890D01*
X127513Y145899D01*
X127411Y145982D01*
X127309Y146047D01*
X127198Y146112D01*
X127087Y146167D01*
X126847Y146250D01*
X126625Y146306D01*
X126523Y146324D01*
X126430Y146334D01*
X126338Y146343D01*
X126264Y146352D01*
X126199Y146361D01*
X126153D01*
X126125D01*
X126116D01*
X125949Y146352D01*
X125801Y146343D01*
X125653Y146315D01*
X125514Y146278D01*
X125394Y146241D01*
X125274Y146204D01*
X125163Y146158D01*
X125071Y146102D01*
X124987Y146056D01*
X124904Y146010D01*
X124839Y145973D01*
X124793Y145936D01*
X124747Y145899D01*
X124719Y145871D01*
X124700Y145862D01*
X124691Y145852D01*
X124599Y145751D01*
X124506Y145649D01*
X124442Y145538D01*
X124377Y145427D01*
X124321Y145316D01*
X124275Y145196D01*
X124210Y144983D01*
X124192Y144891D01*
X124173Y144798D01*
X124164Y144715D01*
X124155Y144650D01*
X124145Y144595D01*
Y144511D01*
X124164Y144169D01*
X124210Y143854D01*
X124238Y143707D01*
X124266Y143577D01*
X124303Y143448D01*
X124340Y143337D01*
X124377Y143235D01*
X124414Y143142D01*
X124442Y143068D01*
X124469Y143003D01*
X124497Y142948D01*
X124515Y142911D01*
X124525Y142893D01*
X124534Y142883D01*
X123378D01*
X123294Y143151D01*
X123230Y143420D01*
X123184Y143688D01*
X123146Y143938D01*
X123137Y144058D01*
X123128Y144160D01*
Y144252D01*
X123119Y144326D01*
Y144483D01*
X123128Y144743D01*
X123156Y144992D01*
X123193Y145224D01*
X123248Y145446D01*
X123313Y145649D01*
X123387Y145834D01*
X123461Y146010D01*
X123544Y146167D01*
X123627Y146306D01*
X123702Y146426D01*
X123775Y146528D01*
X123840Y146620D01*
X123887Y146685D01*
X123933Y146741D01*
X123960Y146768D01*
X123970Y146777D01*
X124136Y146935D01*
X124312Y147064D01*
X124488Y147185D01*
X124673Y147277D01*
X124858Y147360D01*
X125043Y147434D01*
X125218Y147490D01*
X125385Y147536D01*
X125551Y147573D01*
X125699Y147601D01*
X125829Y147619D01*
X125949Y147628D01*
X126042Y147638D01*
X126116Y147647D01*
X126153D01*
X126171D01*
X126412Y147638D01*
D02*
G37*
G36*
X128937Y140340D02*
X125690D01*
X125468D01*
X125283Y140349D01*
X125126D01*
X124996Y140358D01*
X124904Y140367D01*
X124830D01*
X124784Y140376D01*
X124775D01*
Y140358D01*
X124848Y140321D01*
X124923Y140275D01*
X125071Y140182D01*
X125135Y140145D01*
X125191Y140108D01*
X125228Y140090D01*
X125237Y140080D01*
X128937Y137657D01*
Y136408D01*
X123221D01*
Y137565D01*
X126477D01*
X126680D01*
X126847Y137555D01*
X126985D01*
X127096Y137546D01*
X127180Y137537D01*
X127235D01*
X127263Y137528D01*
X127272D01*
Y137546D01*
X127226Y137574D01*
X127161Y137611D01*
X127087Y137657D01*
X127013Y137713D01*
X126939Y137759D01*
X126874Y137796D01*
X126837Y137824D01*
X126819Y137833D01*
X123221Y140164D01*
Y141496D01*
X128937D01*
Y140340D01*
D02*
G37*
G36*
Y133106D02*
X128928Y132856D01*
X128900Y132625D01*
X128863Y132403D01*
X128817Y132190D01*
X128752Y131996D01*
X128687Y131820D01*
X128613Y131654D01*
X128539Y131497D01*
X128465Y131367D01*
X128391Y131247D01*
X128326Y131145D01*
X128262Y131062D01*
X128216Y130988D01*
X128179Y130942D01*
X128151Y130914D01*
X128141Y130904D01*
X127984Y130756D01*
X127818Y130627D01*
X127642Y130507D01*
X127466Y130414D01*
X127290Y130331D01*
X127115Y130257D01*
X126939Y130201D01*
X126772Y130155D01*
X126615Y130128D01*
X126467Y130100D01*
X126338Y130081D01*
X126227Y130063D01*
X126134D01*
X126060Y130053D01*
X126023D01*
X126005D01*
X125755Y130063D01*
X125514Y130091D01*
X125293Y130128D01*
X125089Y130183D01*
X124895Y130257D01*
X124710Y130331D01*
X124543Y130424D01*
X124395Y130525D01*
X124257Y130636D01*
X124127Y130756D01*
X124007Y130886D01*
X123896Y131016D01*
X123803Y131154D01*
X123720Y131293D01*
X123572Y131571D01*
X123452Y131857D01*
X123369Y132135D01*
X123304Y132394D01*
X123267Y132625D01*
X123248Y132727D01*
X123239Y132819D01*
X123230Y132893D01*
Y132967D01*
X123221Y133023D01*
Y135076D01*
X128937D01*
Y133106D01*
D02*
G37*
G36*
X127953Y501120D02*
X126963D01*
Y503552D01*
X126898Y503543D01*
X126833Y503524D01*
X126704Y503450D01*
X126658Y503423D01*
X126611Y503386D01*
X126584Y503367D01*
X126575Y503358D01*
X126482Y503265D01*
X126380Y503145D01*
X126269Y503016D01*
X126168Y502886D01*
X126075Y502766D01*
X126001Y502664D01*
X125973Y502627D01*
X125955Y502599D01*
X125936Y502581D01*
Y502572D01*
X125779Y502359D01*
X125640Y502183D01*
X125520Y502035D01*
X125409Y501915D01*
X125326Y501823D01*
X125261Y501758D01*
X125215Y501712D01*
X125206Y501702D01*
X125085Y501601D01*
X124974Y501517D01*
X124863Y501452D01*
X124771Y501388D01*
X124678Y501341D01*
X124613Y501314D01*
X124576Y501295D01*
X124558Y501286D01*
X124419Y501240D01*
X124290Y501203D01*
X124160Y501175D01*
X124040Y501157D01*
X123938Y501147D01*
X123855Y501138D01*
X123800D01*
X123781D01*
X123642Y501147D01*
X123513Y501157D01*
X123272Y501212D01*
X123059Y501295D01*
X122893Y501388D01*
X122819Y501434D01*
X122754Y501480D01*
X122699Y501517D01*
X122662Y501564D01*
X122625Y501591D01*
X122597Y501619D01*
X122588Y501628D01*
X122579Y501638D01*
X122504Y501730D01*
X122431Y501832D01*
X122319Y502054D01*
X122246Y502276D01*
X122190Y502498D01*
X122171Y502599D01*
X122153Y502692D01*
X122144Y502775D01*
Y502849D01*
X122134Y502905D01*
Y502988D01*
X122144Y503164D01*
X122153Y503330D01*
X122208Y503645D01*
X122246Y503793D01*
X122292Y503932D01*
X122338Y504061D01*
X122375Y504181D01*
X122421Y504292D01*
X122468Y504385D01*
X122514Y504468D01*
X122551Y504542D01*
X122579Y504598D01*
X122606Y504635D01*
X122616Y504662D01*
X122625Y504671D01*
X123688D01*
X123587Y504542D01*
X123494Y504422D01*
X123411Y504292D01*
X123346Y504172D01*
X123291Y504052D01*
X123245Y503932D01*
X123170Y503719D01*
X123143Y503626D01*
X123124Y503534D01*
X123115Y503460D01*
X123106Y503395D01*
X123097Y503339D01*
Y503265D01*
X123106Y503118D01*
X123134Y502988D01*
X123170Y502877D01*
X123217Y502775D01*
X123272Y502701D01*
X123337Y502627D01*
X123411Y502572D01*
X123476Y502526D01*
X123550Y502498D01*
X123624Y502470D01*
X123744Y502433D01*
X123790D01*
X123827Y502424D01*
X123855D01*
X123864D01*
X123994Y502433D01*
X124123Y502461D01*
X124243Y502498D01*
X124345Y502535D01*
X124428Y502572D01*
X124493Y502609D01*
X124530Y502636D01*
X124549Y502646D01*
X124669Y502738D01*
X124799Y502858D01*
X124919Y502979D01*
X125030Y503108D01*
X125131Y503229D01*
X125206Y503321D01*
X125242Y503358D01*
X125261Y503386D01*
X125270Y503404D01*
X125279Y503413D01*
X125437Y503626D01*
X125575Y503811D01*
X125705Y503968D01*
X125816Y504089D01*
X125899Y504190D01*
X125973Y504255D01*
X126010Y504302D01*
X126029Y504311D01*
X126149Y504413D01*
X126269Y504505D01*
X126380Y504579D01*
X126491Y504644D01*
X126584Y504699D01*
X126648Y504736D01*
X126695Y504755D01*
X126713Y504764D01*
X126852Y504819D01*
X127000Y504856D01*
X127139Y504893D01*
X127259Y504912D01*
X127370Y504921D01*
X127462Y504930D01*
X127518D01*
X127527D01*
X127536D01*
X127953D01*
Y501120D01*
D02*
G37*
G36*
X126741Y497984D02*
X127953D01*
Y496892D01*
X126741D01*
Y496088D01*
X125872D01*
Y496892D01*
X122236D01*
Y498002D01*
X122532Y498150D01*
X122828Y498317D01*
X123124Y498483D01*
X123392Y498659D01*
X123522Y498733D01*
X123633Y498807D01*
X123735Y498872D01*
X123818Y498937D01*
X123892Y498983D01*
X123938Y499020D01*
X123975Y499038D01*
X123985Y499048D01*
X124345Y499306D01*
X124697Y499575D01*
X124854Y499704D01*
X125011Y499824D01*
X125159Y499945D01*
X125298Y500056D01*
X125418Y500157D01*
X125529Y500250D01*
X125622Y500333D01*
X125705Y500398D01*
X125770Y500463D01*
X125825Y500500D01*
X125853Y500527D01*
X125862Y500537D01*
X126741D01*
Y497984D01*
D02*
G37*
G36*
X127953Y493997D02*
Y492619D01*
X122236Y490630D01*
Y491906D01*
X126269Y493146D01*
X126491Y493201D01*
X126584Y493220D01*
X126667Y493238D01*
X126741Y493248D01*
X126796Y493257D01*
X126833Y493266D01*
X126843D01*
Y493294D01*
X126648Y493322D01*
X126547Y493340D01*
X126463Y493359D01*
X126390Y493377D01*
X126334Y493387D01*
X126288Y493405D01*
X126278D01*
X122236Y494644D01*
Y495958D01*
X127953Y493997D01*
D02*
G37*
G36*
X126001Y488096D02*
X127546D01*
Y487319D01*
X126001D01*
Y485774D01*
X125224D01*
Y487319D01*
X123670D01*
Y488096D01*
X125224D01*
Y489649D01*
X126001D01*
Y488096D01*
D02*
G37*
G36*
X507874Y500135D02*
X506884D01*
Y502568D01*
X506819Y502559D01*
X506755Y502540D01*
X506625Y502466D01*
X506579Y502438D01*
X506533Y502401D01*
X506505Y502383D01*
X506496Y502374D01*
X506403Y502281D01*
X506301Y502161D01*
X506190Y502032D01*
X506089Y501902D01*
X505996Y501782D01*
X505922Y501680D01*
X505895Y501643D01*
X505876Y501615D01*
X505858Y501597D01*
Y501587D01*
X505700Y501375D01*
X505561Y501199D01*
X505441Y501051D01*
X505330Y500931D01*
X505247Y500838D01*
X505182Y500773D01*
X505136Y500727D01*
X505127Y500718D01*
X505007Y500616D01*
X504895Y500533D01*
X504784Y500468D01*
X504692Y500403D01*
X504600Y500357D01*
X504535Y500329D01*
X504498Y500311D01*
X504479Y500302D01*
X504341Y500255D01*
X504211Y500218D01*
X504081Y500191D01*
X503961Y500172D01*
X503860Y500163D01*
X503776Y500154D01*
X503721D01*
X503702D01*
X503563Y500163D01*
X503434Y500172D01*
X503194Y500228D01*
X502981Y500311D01*
X502814Y500403D01*
X502740Y500450D01*
X502675Y500496D01*
X502620Y500533D01*
X502583Y500579D01*
X502546Y500607D01*
X502518Y500635D01*
X502509Y500644D01*
X502500Y500653D01*
X502426Y500746D01*
X502352Y500847D01*
X502241Y501069D01*
X502167Y501292D01*
X502111Y501513D01*
X502093Y501615D01*
X502074Y501708D01*
X502065Y501791D01*
Y501865D01*
X502056Y501921D01*
Y502004D01*
X502065Y502179D01*
X502074Y502346D01*
X502130Y502661D01*
X502167Y502809D01*
X502213Y502947D01*
X502259Y503077D01*
X502296Y503197D01*
X502343Y503308D01*
X502389Y503401D01*
X502435Y503484D01*
X502472Y503558D01*
X502500Y503613D01*
X502528Y503650D01*
X502537Y503678D01*
X502546Y503687D01*
X503610D01*
X503508Y503558D01*
X503415Y503438D01*
X503332Y503308D01*
X503267Y503188D01*
X503212Y503067D01*
X503166Y502947D01*
X503092Y502735D01*
X503064Y502642D01*
X503046Y502550D01*
X503036Y502476D01*
X503027Y502411D01*
X503018Y502355D01*
Y502281D01*
X503027Y502133D01*
X503055Y502004D01*
X503092Y501893D01*
X503138Y501791D01*
X503194Y501717D01*
X503258Y501643D01*
X503332Y501587D01*
X503397Y501541D01*
X503471Y501513D01*
X503545Y501486D01*
X503665Y501449D01*
X503712D01*
X503749Y501440D01*
X503776D01*
X503786D01*
X503915Y501449D01*
X504044Y501476D01*
X504165Y501513D01*
X504267Y501550D01*
X504350Y501587D01*
X504415Y501624D01*
X504452Y501652D01*
X504470Y501661D01*
X504590Y501754D01*
X504720Y501874D01*
X504840Y501995D01*
X504951Y502124D01*
X505053Y502244D01*
X505127Y502337D01*
X505164Y502374D01*
X505182Y502401D01*
X505192Y502420D01*
X505201Y502429D01*
X505358Y502642D01*
X505497Y502827D01*
X505626Y502984D01*
X505737Y503104D01*
X505821Y503206D01*
X505895Y503271D01*
X505932Y503317D01*
X505950Y503327D01*
X506070Y503428D01*
X506190Y503521D01*
X506301Y503595D01*
X506413Y503659D01*
X506505Y503715D01*
X506570Y503752D01*
X506616Y503770D01*
X506635Y503780D01*
X506773Y503835D01*
X506921Y503872D01*
X507060Y503909D01*
X507180Y503928D01*
X507291Y503937D01*
X507384Y503946D01*
X507439D01*
X507448D01*
X507458D01*
X507874D01*
Y500135D01*
D02*
G37*
G36*
X506662Y497000D02*
X507874D01*
Y495908D01*
X506662D01*
Y495103D01*
X505793D01*
Y495908D01*
X502157D01*
Y497018D01*
X502454Y497166D01*
X502749Y497332D01*
X503046Y497499D01*
X503314Y497675D01*
X503443Y497749D01*
X503554Y497823D01*
X503656Y497888D01*
X503739Y497952D01*
X503813Y497999D01*
X503860Y498035D01*
X503897Y498054D01*
X503906Y498063D01*
X504267Y498322D01*
X504618Y498591D01*
X504775Y498720D01*
X504932Y498840D01*
X505081Y498960D01*
X505219Y499072D01*
X505339Y499173D01*
X505450Y499266D01*
X505543Y499349D01*
X505626Y499414D01*
X505691Y499478D01*
X505747Y499515D01*
X505774Y499543D01*
X505784Y499552D01*
X506662D01*
Y497000D01*
D02*
G37*
G36*
X507874Y493013D02*
Y491635D01*
X502157Y489646D01*
Y490922D01*
X506190Y492162D01*
X506413Y492217D01*
X506505Y492236D01*
X506588Y492254D01*
X506662Y492264D01*
X506718Y492273D01*
X506755Y492282D01*
X506764D01*
Y492310D01*
X506570Y492338D01*
X506468Y492356D01*
X506385Y492375D01*
X506311Y492393D01*
X506255Y492402D01*
X506209Y492421D01*
X506200D01*
X502157Y493660D01*
Y494974D01*
X507874Y493013D01*
D02*
G37*
G36*
X505922Y487111D02*
X507467D01*
Y486334D01*
X505922D01*
Y484790D01*
X505145D01*
Y486334D01*
X503591D01*
Y487111D01*
X505145D01*
Y488665D01*
X505922D01*
Y487111D01*
D02*
G37*
G36*
X266369Y131288D02*
X259815D01*
Y133815D01*
X266369D01*
Y131288D01*
D02*
G37*
G36*
X353967Y496446D02*
X347413D01*
Y498973D01*
X353967D01*
Y496446D01*
D02*
G37*
G36*
X179754D02*
X173201D01*
Y498973D01*
X179754D01*
Y496446D01*
D02*
G37*
G36*
X265828Y499334D02*
X270466D01*
Y497001D01*
X265828D01*
Y492364D01*
X263496D01*
Y497001D01*
X258830D01*
Y499334D01*
X263496D01*
Y503999D01*
X265828D01*
Y499334D01*
D02*
G37*
G36*
X352443Y133192D02*
X357080D01*
Y130859D01*
X352443D01*
Y126222D01*
X350110D01*
Y130859D01*
X345445D01*
Y133192D01*
X350110D01*
Y137857D01*
X352443D01*
Y133192D01*
D02*
G37*
G36*
X178230D02*
X182868D01*
Y130859D01*
X178230D01*
Y126222D01*
X175897D01*
Y130859D01*
X171232D01*
Y133192D01*
X175897D01*
Y137857D01*
X178230D01*
Y133192D01*
D02*
G37*
%LPC*%
G36*
X414590Y315417D02*
X414535D01*
X414498D01*
X414488D01*
X414276D01*
X414081Y315399D01*
X413887Y315380D01*
X413721Y315361D01*
X413554Y315334D01*
X413415Y315306D01*
X413277Y315269D01*
X413156Y315241D01*
X413055Y315204D01*
X412962Y315167D01*
X412879Y315140D01*
X412814Y315112D01*
X412768Y315093D01*
X412731Y315075D01*
X412712Y315056D01*
X412703D01*
X412592Y314991D01*
X412500Y314917D01*
X412416Y314834D01*
X412342Y314760D01*
X412287Y314677D01*
X412231Y314594D01*
X412157Y314437D01*
X412120Y314298D01*
X412102Y314242D01*
X412093Y314187D01*
X412083Y314141D01*
Y314085D01*
X412093Y313983D01*
X412111Y313881D01*
X412139Y313789D01*
X412167Y313697D01*
X412259Y313539D01*
X412361Y313410D01*
X412463Y313308D01*
X412555Y313234D01*
X412583Y313215D01*
X412611Y313197D01*
X412629Y313178D01*
X412638D01*
X412749Y313123D01*
X412870Y313068D01*
X413138Y312994D01*
X413406Y312938D01*
X413674Y312892D01*
X413795Y312882D01*
X413915Y312873D01*
X414017Y312864D01*
X414109D01*
X414183Y312855D01*
X414239D01*
X414276D01*
X414285D01*
X414488D01*
X414673Y312873D01*
X414849Y312882D01*
X415016Y312910D01*
X415164Y312929D01*
X415302Y312957D01*
X415432Y312994D01*
X415543Y313021D01*
X415645Y313049D01*
X415728Y313086D01*
X415802Y313114D01*
X415857Y313132D01*
X415913Y313160D01*
X415941Y313169D01*
X415959Y313188D01*
X415968D01*
X416070Y313252D01*
X416163Y313327D01*
X416237Y313401D01*
X416301Y313484D01*
X416366Y313567D01*
X416412Y313641D01*
X416477Y313798D01*
X416523Y313937D01*
X416533Y313993D01*
X416542Y314048D01*
X416551Y314094D01*
Y314150D01*
X416542Y314261D01*
X416533Y314363D01*
X416505Y314464D01*
X416468Y314557D01*
X416385Y314714D01*
X416292Y314844D01*
X416190Y314945D01*
X416107Y315029D01*
X416070Y315047D01*
X416042Y315066D01*
X416033Y315084D01*
X416024D01*
X415922Y315140D01*
X415811Y315195D01*
X415561Y315278D01*
X415312Y315334D01*
X415062Y315380D01*
X414942Y315389D01*
X414840Y315399D01*
X414738Y315408D01*
X414655D01*
X414590Y315417D01*
D02*
G37*
G36*
X413147Y278139D02*
X413138D01*
X413129D01*
X412981Y278121D01*
X412842Y278084D01*
X412731Y278028D01*
X412629Y277964D01*
X412555Y277899D01*
X412490Y277843D01*
X412453Y277806D01*
X412444Y277788D01*
X412361Y277649D01*
X412296Y277501D01*
X412250Y277344D01*
X412222Y277196D01*
X412204Y277066D01*
X412185Y276956D01*
Y276613D01*
X412194Y276539D01*
Y276484D01*
X412204Y276447D01*
Y276437D01*
X412352D01*
X412481Y276428D01*
X412592D01*
X412694D01*
X412777D01*
X412833D01*
X412870D01*
X412879D01*
X412981D01*
X413092D01*
X413203D01*
X413295D01*
X413388D01*
X413452D01*
X413499D01*
X413517D01*
X413998D01*
X414007Y276484D01*
Y276567D01*
X414017Y276623D01*
Y276706D01*
X414007Y276956D01*
X413980Y277178D01*
X413943Y277362D01*
X413906Y277510D01*
X413859Y277631D01*
X413822Y277714D01*
X413795Y277760D01*
X413785Y277779D01*
X413693Y277899D01*
X413582Y277992D01*
X413480Y278056D01*
X413369Y278093D01*
X413277Y278121D01*
X413203Y278130D01*
X413147Y278139D01*
D02*
G37*
G36*
X415654Y278130D02*
X415645D01*
X415635D01*
X415478Y278112D01*
X415330Y278075D01*
X415210Y278019D01*
X415117Y277955D01*
X415034Y277881D01*
X414979Y277825D01*
X414942Y277788D01*
X414932Y277769D01*
X414849Y277622D01*
X414784Y277464D01*
X414747Y277289D01*
X414710Y277122D01*
X414692Y276965D01*
Y276900D01*
X414683Y276845D01*
Y276539D01*
X414692Y276484D01*
Y276419D01*
X414960D01*
X415191D01*
X415395D01*
X415561Y276428D01*
X415700D01*
X415756D01*
X415793D01*
X415830D01*
X415857D01*
X415867D01*
X415876D01*
X416033D01*
X416172Y276437D01*
X416283D01*
X416385D01*
X416468Y276447D01*
X416523D01*
X416560D01*
X416570D01*
Y276493D01*
X416579Y276539D01*
Y276595D01*
X416588Y276678D01*
Y276807D01*
X416579Y277039D01*
X416551Y277233D01*
X416505Y277399D01*
X416468Y277538D01*
X416422Y277649D01*
X416375Y277723D01*
X416348Y277769D01*
X416338Y277788D01*
X416237Y277899D01*
X416126Y277982D01*
X416015Y278047D01*
X415894Y278084D01*
X415793Y278112D01*
X415709Y278121D01*
X415654Y278130D01*
D02*
G37*
G36*
X414479Y271017D02*
X414433D01*
X414396D01*
X414387D01*
X414211Y271008D01*
X414044Y270989D01*
X413878Y270952D01*
X413730Y270915D01*
X413591Y270860D01*
X413462Y270804D01*
X413341Y270749D01*
X413240Y270684D01*
X413138Y270619D01*
X413055Y270564D01*
X412981Y270508D01*
X412925Y270453D01*
X412879Y270416D01*
X412842Y270379D01*
X412823Y270360D01*
X412814Y270351D01*
X412712Y270221D01*
X412620Y270092D01*
X412537Y269944D01*
X412472Y269805D01*
X412416Y269657D01*
X412370Y269509D01*
X412296Y269232D01*
X412268Y269111D01*
X412250Y268991D01*
X412241Y268880D01*
X412231Y268788D01*
X412222Y268714D01*
Y268473D01*
X412231Y268362D01*
Y268307D01*
X412241Y268270D01*
Y268242D01*
X412259Y268122D01*
X412278Y268029D01*
X412287Y267992D01*
Y267965D01*
X412296Y267955D01*
Y267946D01*
X412546Y267937D01*
X412666Y267928D01*
X412777D01*
X412870Y267918D01*
X412944D01*
X412990D01*
X413008D01*
X413156D01*
X413314Y267909D01*
X413462D01*
X413600D01*
X413721D01*
X413813D01*
X413850D01*
X413878D01*
X413887D01*
X413896D01*
X414118D01*
X414331D01*
X414535D01*
X414720Y267918D01*
X414877D01*
X414942D01*
X414997D01*
X415043D01*
X415080D01*
X415099D01*
X415108D01*
X415349D01*
X415589Y267928D01*
X415830Y267937D01*
X416052D01*
X416144Y267946D01*
X416237D01*
X416311D01*
X416385Y267955D01*
X416440D01*
X416477D01*
X416505D01*
X416514D01*
X416523Y268048D01*
X416533Y268149D01*
X416542Y268186D01*
Y268251D01*
X416551Y268390D01*
X416560Y268529D01*
Y268658D01*
X416551Y268852D01*
X416533Y269028D01*
X416505Y269204D01*
X416468Y269361D01*
X416422Y269518D01*
X416366Y269657D01*
X416311Y269787D01*
X416255Y269898D01*
X416200Y270009D01*
X416144Y270101D01*
X416089Y270175D01*
X416042Y270240D01*
X416005Y270296D01*
X415978Y270333D01*
X415959Y270351D01*
X415950Y270360D01*
X415830Y270480D01*
X415709Y270573D01*
X415580Y270666D01*
X415450Y270740D01*
X415321Y270804D01*
X415191Y270860D01*
X415062Y270897D01*
X414942Y270934D01*
X414831Y270961D01*
X414720Y270980D01*
X414627Y270999D01*
X414544Y271008D01*
X414479Y271017D01*
D02*
G37*
G36*
Y237495D02*
X414433D01*
X414396D01*
X414387D01*
X414211Y237486D01*
X414044Y237467D01*
X413878Y237430D01*
X413730Y237393D01*
X413591Y237338D01*
X413462Y237282D01*
X413341Y237227D01*
X413240Y237162D01*
X413138Y237097D01*
X413055Y237042D01*
X412981Y236986D01*
X412925Y236931D01*
X412879Y236894D01*
X412842Y236857D01*
X412823Y236838D01*
X412814Y236829D01*
X412712Y236700D01*
X412620Y236570D01*
X412537Y236422D01*
X412472Y236283D01*
X412416Y236135D01*
X412370Y235987D01*
X412296Y235710D01*
X412268Y235590D01*
X412250Y235469D01*
X412241Y235358D01*
X412231Y235266D01*
X412222Y235192D01*
Y234951D01*
X412231Y234840D01*
Y234785D01*
X412241Y234748D01*
Y234720D01*
X412259Y234600D01*
X412278Y234507D01*
X412287Y234470D01*
Y234442D01*
X412296Y234433D01*
Y234424D01*
X412546Y234415D01*
X412666Y234405D01*
X412777D01*
X412870Y234396D01*
X412944D01*
X412990D01*
X413008D01*
X413156D01*
X413314Y234387D01*
X413462D01*
X413600D01*
X413721D01*
X413813D01*
X413850D01*
X413878D01*
X413887D01*
X413896D01*
X414118D01*
X414331D01*
X414535D01*
X414720Y234396D01*
X414877D01*
X414942D01*
X414997D01*
X415043D01*
X415080D01*
X415099D01*
X415108D01*
X415349D01*
X415589Y234405D01*
X415830Y234415D01*
X416052D01*
X416144Y234424D01*
X416237D01*
X416311D01*
X416385Y234433D01*
X416440D01*
X416477D01*
X416505D01*
X416514D01*
X416523Y234526D01*
X416533Y234628D01*
X416542Y234665D01*
Y234729D01*
X416551Y234868D01*
X416560Y235007D01*
Y235136D01*
X416551Y235331D01*
X416533Y235506D01*
X416505Y235682D01*
X416468Y235839D01*
X416422Y235997D01*
X416366Y236135D01*
X416311Y236265D01*
X416255Y236376D01*
X416200Y236487D01*
X416144Y236579D01*
X416089Y236653D01*
X416042Y236718D01*
X416005Y236773D01*
X415978Y236810D01*
X415959Y236829D01*
X415950Y236838D01*
X415830Y236959D01*
X415709Y237051D01*
X415580Y237143D01*
X415450Y237217D01*
X415321Y237282D01*
X415191Y237338D01*
X415062Y237375D01*
X414942Y237412D01*
X414831Y237439D01*
X414720Y237458D01*
X414627Y237476D01*
X414544Y237486D01*
X414479Y237495D01*
D02*
G37*
G36*
X506884Y132871D02*
X503157D01*
Y132214D01*
X503166Y132057D01*
X503175Y131918D01*
X503230Y131650D01*
X503304Y131419D01*
X503351Y131317D01*
X503397Y131225D01*
X503443Y131141D01*
X503489Y131067D01*
X503526Y131012D01*
X503563Y130956D01*
X503591Y130919D01*
X503619Y130892D01*
X503628Y130873D01*
X503638Y130864D01*
X503730Y130771D01*
X503832Y130688D01*
X503933Y130623D01*
X504044Y130568D01*
X504267Y130475D01*
X504479Y130411D01*
X504664Y130374D01*
X504747Y130364D01*
X504821Y130355D01*
X504877Y130346D01*
X504923D01*
X504951D01*
X504960D01*
X505118Y130355D01*
X505275Y130364D01*
X505423Y130392D01*
X505552Y130420D01*
X505682Y130457D01*
X505793Y130503D01*
X505904Y130549D01*
X505996Y130596D01*
X506079Y130642D01*
X506153Y130688D01*
X506218Y130725D01*
X506274Y130771D01*
X506311Y130799D01*
X506339Y130827D01*
X506357Y130836D01*
X506366Y130845D01*
X506459Y130938D01*
X506533Y131049D01*
X506607Y131150D01*
X506662Y131262D01*
X506755Y131493D01*
X506819Y131705D01*
X506838Y131807D01*
X506856Y131900D01*
X506866Y131992D01*
X506875Y132057D01*
X506884Y132122D01*
Y132871D01*
D02*
G37*
G36*
X127947Y133855D02*
X124220D01*
Y133199D01*
X124229Y133041D01*
X124238Y132903D01*
X124293Y132634D01*
X124367Y132403D01*
X124414Y132301D01*
X124460Y132209D01*
X124506Y132125D01*
X124553Y132052D01*
X124590Y131996D01*
X124627Y131941D01*
X124654Y131904D01*
X124682Y131876D01*
X124691Y131857D01*
X124700Y131848D01*
X124793Y131755D01*
X124895Y131672D01*
X124996Y131607D01*
X125108Y131552D01*
X125329Y131459D01*
X125542Y131395D01*
X125727Y131358D01*
X125811Y131349D01*
X125884Y131339D01*
X125940Y131330D01*
X125986D01*
X126014D01*
X126023D01*
X126181Y131339D01*
X126338Y131349D01*
X126486Y131376D01*
X126615Y131404D01*
X126745Y131441D01*
X126856Y131487D01*
X126967Y131534D01*
X127059Y131580D01*
X127143Y131626D01*
X127216Y131672D01*
X127281Y131709D01*
X127337Y131755D01*
X127374Y131783D01*
X127401Y131811D01*
X127420Y131820D01*
X127429Y131830D01*
X127522Y131922D01*
X127596Y132033D01*
X127670Y132135D01*
X127725Y132246D01*
X127818Y132477D01*
X127883Y132690D01*
X127901Y132792D01*
X127919Y132884D01*
X127929Y132976D01*
X127938Y133041D01*
X127947Y133106D01*
Y133855D01*
D02*
G37*
G36*
X125872Y499482D02*
X125575Y499251D01*
X125326Y499048D01*
X125206Y498964D01*
X125104Y498881D01*
X125002Y498807D01*
X124919Y498742D01*
X124836Y498687D01*
X124771Y498631D01*
X124715Y498585D01*
X124660Y498557D01*
X124623Y498529D01*
X124595Y498511D01*
X124586Y498492D01*
X124576D01*
X124410Y498372D01*
X124253Y498271D01*
X124114Y498187D01*
X123994Y498113D01*
X123901Y498058D01*
X123827Y498011D01*
X123790Y497993D01*
X123772Y497984D01*
X125872D01*
Y499482D01*
D02*
G37*
G36*
X505793Y498498D02*
X505497Y498267D01*
X505247Y498063D01*
X505127Y497980D01*
X505025Y497897D01*
X504923Y497823D01*
X504840Y497758D01*
X504757Y497703D01*
X504692Y497647D01*
X504636Y497601D01*
X504581Y497573D01*
X504544Y497545D01*
X504516Y497527D01*
X504507Y497508D01*
X504498D01*
X504331Y497388D01*
X504174Y497286D01*
X504035Y497203D01*
X503915Y497129D01*
X503823Y497074D01*
X503749Y497027D01*
X503712Y497009D01*
X503693Y497000D01*
X505793D01*
Y498498D01*
D02*
G37*
%LPD*%
D10*
X475496Y419685D02*
G03*
X475496Y419685I-492J0D01*
G01*
Y376378D02*
G03*
X475496Y376378I-492J0D01*
G01*
Y179528D02*
G03*
X475496Y179528I-492J0D01*
G01*
D11*
X413346Y424803D02*
Y431201D01*
X429173Y424803D02*
Y431201D01*
X413346Y399508D02*
Y405905D01*
Y399508D02*
X429173D01*
X413346Y431201D02*
X429173D01*
Y399508D02*
Y405905D01*
X440807Y412047D02*
X448957D01*
X441732Y398110D02*
X448032D01*
X440807Y406850D02*
Y412047D01*
X448957Y406850D02*
Y412047D01*
Y398976D02*
Y403307D01*
X448032Y398110D02*
X448957Y398976D01*
X440807Y399035D02*
X441732Y398110D01*
X440807Y399035D02*
Y403307D01*
X465748Y407486D02*
Y410635D01*
Y407486D02*
X469291D01*
X465748Y416147D02*
Y419297D01*
X469291D01*
X413346Y381102D02*
Y387500D01*
X429173Y381102D02*
Y387500D01*
X413346Y355807D02*
Y362205D01*
Y355807D02*
X429173D01*
X413346Y387500D02*
X429173D01*
Y355807D02*
Y362205D01*
X465748Y364179D02*
Y367328D01*
Y364179D02*
X469291D01*
X465748Y372840D02*
Y375990D01*
X469291D01*
X440807Y369173D02*
X448957D01*
X441732Y355236D02*
X448032D01*
X440807Y363976D02*
Y369173D01*
X448957Y363976D02*
Y369173D01*
Y356102D02*
Y360433D01*
X448032Y355236D02*
X448957Y356102D01*
X440807Y356161D02*
X441732Y355236D01*
X440807Y356161D02*
Y360433D01*
X413346Y185433D02*
Y191831D01*
X429173Y185433D02*
Y191831D01*
X413346Y160138D02*
Y166535D01*
Y160138D02*
X429173D01*
X413346Y191831D02*
X429173D01*
Y160138D02*
Y166535D01*
X465748Y167328D02*
Y170478D01*
Y167328D02*
X469291D01*
X465748Y175990D02*
Y179139D01*
X469291D01*
X440807Y173898D02*
X448957D01*
X441732Y159961D02*
X448032D01*
X440807Y168701D02*
Y173898D01*
X448957Y168701D02*
Y173898D01*
Y160827D02*
Y165157D01*
X448032Y159961D02*
X448957Y160827D01*
X440807Y160886D02*
X441732Y159961D01*
X440807Y160886D02*
Y165157D01*
D12*
X222441Y162992D02*
Y466929D01*
X305118Y163386D02*
Y466929D01*
X222441Y162992D02*
X243280D01*
X284279Y163386D02*
X305118D01*
X284279Y466929D02*
X305118D01*
X222441D02*
X243280D01*
X263779Y429961D02*
Y444961D01*
X256279Y437461D02*
X271280D01*
X256279Y192461D02*
X271280D01*
X469308Y267018D02*
X474426D01*
X469308D02*
Y268986D01*
X474426D01*
X505709Y244595D02*
Y272728D01*
X469291Y248425D02*
X474409D01*
X469291D02*
Y250394D01*
X474409D01*
Y244595D02*
Y272728D01*
Y244595D02*
X505709D01*
X474409Y272728D02*
X505709D01*
X469095Y236309D02*
X474213D01*
X469095D02*
Y238278D01*
X474213D01*
X505496Y213886D02*
Y242020D01*
X469079Y217717D02*
X474197D01*
X469079D02*
Y219685D01*
X474197D01*
Y213886D02*
Y242020D01*
Y213886D02*
X505496D01*
X474197Y242020D02*
X505496D01*
X169665Y437461D02*
X184665D01*
X169665Y192461D02*
X184665D01*
X177165Y184961D02*
Y199961D01*
X197665Y162992D02*
X218504D01*
X135827D02*
X156665D01*
X135827Y466535D02*
X156665D01*
X197665Y466929D02*
X218504D01*
X135827Y162992D02*
Y466535D01*
X218504Y162992D02*
Y466929D01*
X342894Y437461D02*
X357894D01*
X342894Y192461D02*
X357894D01*
X350394Y184961D02*
Y199961D01*
X370894Y162992D02*
X391732D01*
X309055D02*
X329894D01*
X309055Y466535D02*
X329894D01*
X370894Y466929D02*
X391732D01*
X309055Y162992D02*
Y466535D01*
X391732Y162992D02*
Y466929D01*
X496063Y327756D02*
Y330755D01*
X494563D01*
X494064Y330255D01*
Y329255D01*
X494563Y328756D01*
X496063D01*
X495063D02*
X494064Y327756D01*
X493064Y330255D02*
X492564Y330755D01*
X491564D01*
X491065Y330255D01*
Y329755D01*
X491564Y329255D01*
X492064D01*
X491564D01*
X491065Y328756D01*
Y328256D01*
X491564Y327756D01*
X492564D01*
X493064Y328256D01*
X488066Y330755D02*
X490065D01*
Y329255D01*
X489065Y329755D01*
X488565D01*
X488066Y329255D01*
Y328256D01*
X488565Y327756D01*
X489565D01*
X490065Y328256D01*
X441929Y217520D02*
Y220519D01*
X440430D01*
X439930Y220019D01*
Y219019D01*
X440430Y218519D01*
X441929D01*
X440929D02*
X439930Y217520D01*
X438930Y220019D02*
X438430Y220519D01*
X437431D01*
X436931Y220019D01*
Y219519D01*
X437431Y219019D01*
X437930D01*
X437431D01*
X436931Y218519D01*
Y218020D01*
X437431Y217520D01*
X438430D01*
X438930Y218020D01*
X434432Y217520D02*
Y220519D01*
X435931Y219019D01*
X433932D01*
X440945Y247047D02*
Y250046D01*
X439445D01*
X438945Y249546D01*
Y248547D01*
X439445Y248047D01*
X440945D01*
X439945D02*
X438945Y247047D01*
X437946Y249546D02*
X437446Y250046D01*
X436446D01*
X435947Y249546D01*
Y249047D01*
X436446Y248547D01*
X436946D01*
X436446D01*
X435947Y248047D01*
Y247547D01*
X436446Y247047D01*
X437446D01*
X437946Y247547D01*
X434947Y249546D02*
X434447Y250046D01*
X433447D01*
X432947Y249546D01*
Y249047D01*
X433447Y248547D01*
X433947D01*
X433447D01*
X432947Y248047D01*
Y247547D01*
X433447Y247047D01*
X434447D01*
X434947Y247547D01*
X440945Y235236D02*
Y238235D01*
X439445D01*
X438945Y237735D01*
Y236736D01*
X439445Y236236D01*
X440945D01*
X439945D02*
X438945Y235236D01*
X435947D02*
X437946D01*
X435947Y237236D01*
Y237735D01*
X436446Y238235D01*
X437446D01*
X437946Y237735D01*
X434947Y238235D02*
X432947D01*
Y237735D01*
X434947Y235736D01*
Y235236D01*
X440945Y266929D02*
Y269928D01*
X439445D01*
X438946Y269428D01*
Y268429D01*
X439445Y267929D01*
X440945D01*
X439945D02*
X438946Y266929D01*
X435947D02*
X437946D01*
X435947Y268929D01*
Y269428D01*
X436446Y269928D01*
X437446D01*
X437946Y269428D01*
X432947Y269928D02*
X433947Y269428D01*
X434947Y268429D01*
Y267429D01*
X434447Y266929D01*
X433447D01*
X432947Y267429D01*
Y267929D01*
X433447Y268429D01*
X434947D01*
X500000Y415354D02*
Y418353D01*
X498500D01*
X498001Y417853D01*
Y416854D01*
X498500Y416354D01*
X500000D01*
X499000D02*
X498001Y415354D01*
X495002D02*
X497001D01*
X495002Y417354D01*
Y417853D01*
X495502Y418353D01*
X496501D01*
X497001Y417853D01*
X492003Y418353D02*
X494002D01*
Y416854D01*
X493002Y417354D01*
X492502D01*
X492003Y416854D01*
Y415854D01*
X492502Y415354D01*
X493502D01*
X494002Y415854D01*
X500000Y407480D02*
Y410479D01*
X498500D01*
X498001Y409979D01*
Y408980D01*
X498500Y408480D01*
X500000D01*
X499000D02*
X498001Y407480D01*
X495002D02*
X497001D01*
X495002Y409480D01*
Y409979D01*
X495502Y410479D01*
X496501D01*
X497001Y409979D01*
X492502Y407480D02*
Y410479D01*
X494002Y408980D01*
X492003D01*
X500000Y176181D02*
Y179180D01*
X498500D01*
X498001Y178680D01*
Y177681D01*
X498500Y177181D01*
X500000D01*
X499000D02*
X498001Y176181D01*
X495002D02*
X497001D01*
X495002Y178180D01*
Y178680D01*
X495502Y179180D01*
X496501D01*
X497001Y178680D01*
X494002D02*
X493502Y179180D01*
X492502D01*
X492003Y178680D01*
Y178180D01*
X492502Y177681D01*
X493002D01*
X492502D01*
X492003Y177181D01*
Y176681D01*
X492502Y176181D01*
X493502D01*
X494002Y176681D01*
X500000Y167323D02*
Y170322D01*
X498500D01*
X498001Y169822D01*
Y168822D01*
X498500Y168323D01*
X500000D01*
X499000D02*
X498001Y167323D01*
X495002D02*
X497001D01*
X495002Y169322D01*
Y169822D01*
X495502Y170322D01*
X496501D01*
X497001Y169822D01*
X492003Y167323D02*
X494002D01*
X492003Y169322D01*
Y169822D01*
X492502Y170322D01*
X493502D01*
X494002Y169822D01*
X499016Y373031D02*
Y376030D01*
X497516D01*
X497016Y375531D01*
Y374531D01*
X497516Y374031D01*
X499016D01*
X498016D02*
X497016Y373031D01*
X494017D02*
X496017D01*
X494017Y375031D01*
Y375531D01*
X494517Y376030D01*
X495517D01*
X496017Y375531D01*
X493018Y373031D02*
X492018D01*
X492518D01*
Y376030D01*
X493018Y375531D01*
X500000Y364173D02*
Y367172D01*
X498500D01*
X498001Y366672D01*
Y365673D01*
X498500Y365173D01*
X500000D01*
X499000D02*
X498001Y364173D01*
X495002D02*
X497001D01*
X495002Y366173D01*
Y366672D01*
X495502Y367172D01*
X496501D01*
X497001Y366672D01*
X494002D02*
X493502Y367172D01*
X492502D01*
X492003Y366672D01*
Y364673D01*
X492502Y364173D01*
X493502D01*
X494002Y364673D01*
Y366672D01*
X423228Y417323D02*
X420229D01*
Y415823D01*
X420729Y415323D01*
X421729D01*
X422229Y415823D01*
Y417323D01*
Y416323D02*
X423228Y415323D01*
Y414324D02*
Y413324D01*
Y413824D01*
X420229D01*
X420729Y414324D01*
X423228Y409825D02*
Y411825D01*
X421229Y409825D01*
X420729D01*
X420229Y410325D01*
Y411325D01*
X420729Y411825D01*
X448819Y433071D02*
Y436070D01*
X447319D01*
X446819Y435570D01*
Y434570D01*
X447319Y434071D01*
X448819D01*
X447819D02*
X446819Y433071D01*
X445820D02*
X444820D01*
X445320D01*
Y436070D01*
X445820Y435570D01*
X443321Y433071D02*
X442321D01*
X442821D01*
Y436070D01*
X443321Y435570D01*
X423228Y179134D02*
X420229D01*
Y177634D01*
X420729Y177135D01*
X421729D01*
X422229Y177634D01*
Y179134D01*
Y178134D02*
X423228Y177135D01*
Y176135D02*
Y175135D01*
Y175635D01*
X420229D01*
X420729Y176135D01*
Y173636D02*
X420229Y173136D01*
Y172136D01*
X420729Y171636D01*
X422728D01*
X423228Y172136D01*
Y173136D01*
X422728Y173636D01*
X420729D01*
X447835Y193898D02*
Y196897D01*
X446335D01*
X445835Y196397D01*
Y195397D01*
X446335Y194897D01*
X447835D01*
X446835D02*
X445835Y193898D01*
X444836Y194397D02*
X444336Y193898D01*
X443336D01*
X442836Y194397D01*
Y196397D01*
X443336Y196897D01*
X444336D01*
X444836Y196397D01*
Y195897D01*
X444336Y195397D01*
X442836D01*
X423228Y374016D02*
X420229D01*
Y372516D01*
X420729Y372016D01*
X421729D01*
X422229Y372516D01*
Y374016D01*
Y373016D02*
X423228Y372016D01*
X420729Y371017D02*
X420229Y370517D01*
Y369517D01*
X420729Y369017D01*
X421229D01*
X421729Y369517D01*
X422229Y369017D01*
X422728D01*
X423228Y369517D01*
Y370517D01*
X422728Y371017D01*
X422229D01*
X421729Y370517D01*
X421229Y371017D01*
X420729D01*
X421729Y370517D02*
Y369517D01*
X445866Y389764D02*
Y392763D01*
X444367D01*
X443867Y392263D01*
Y391263D01*
X444367Y390763D01*
X445866D01*
X444867D02*
X443867Y389764D01*
X442867Y392763D02*
X440868D01*
Y392263D01*
X442867Y390264D01*
Y389764D01*
X501938Y209161D02*
Y211161D01*
X502437Y211660D01*
X503437D01*
X503937Y211161D01*
Y209161D01*
X503437Y208661D01*
X502437D01*
X502937Y209661D02*
X501938Y208661D01*
X502437D02*
X501938Y209161D01*
X500938Y211161D02*
X500438Y211660D01*
X499438D01*
X498939Y211161D01*
Y210661D01*
X499438Y210161D01*
X498939Y209661D01*
Y209161D01*
X499438Y208661D01*
X500438D01*
X500938Y209161D01*
Y209661D01*
X500438Y210161D01*
X500938Y210661D01*
Y211161D01*
X500438Y210161D02*
X499438D01*
X502922Y275106D02*
Y277105D01*
X503422Y277605D01*
X504421D01*
X504921Y277105D01*
Y275106D01*
X504421Y274606D01*
X503422D01*
X503922Y275606D02*
X502922Y274606D01*
X503422D02*
X502922Y275106D01*
X501922Y277605D02*
X499923D01*
Y277105D01*
X501922Y275106D01*
Y274606D01*
X471426Y422744D02*
Y424743D01*
X471926Y425243D01*
X472925D01*
X473425Y424743D01*
Y422744D01*
X472925Y422244D01*
X471926D01*
X472426Y423244D02*
X471426Y422244D01*
X471926D02*
X471426Y422744D01*
X468427Y425243D02*
X469426Y424743D01*
X470426Y423744D01*
Y422744D01*
X469926Y422244D01*
X468927D01*
X468427Y422744D01*
Y423244D01*
X468927Y423744D01*
X470426D01*
X469457Y182586D02*
Y184586D01*
X469957Y185086D01*
X470957D01*
X471457Y184586D01*
Y182586D01*
X470957Y182087D01*
X469957D01*
X470457Y183086D02*
X469457Y182087D01*
X469957D02*
X469457Y182586D01*
X466458Y185086D02*
X468458D01*
Y183586D01*
X467458Y184086D01*
X466958D01*
X466458Y183586D01*
Y182586D01*
X466958Y182087D01*
X467958D01*
X468458Y182586D01*
X468473Y379437D02*
Y381436D01*
X468973Y381936D01*
X469973D01*
X470472Y381436D01*
Y379437D01*
X469973Y378937D01*
X468973D01*
X469473Y379937D02*
X468473Y378937D01*
X468973D02*
X468473Y379437D01*
X465974Y378937D02*
Y381936D01*
X467473Y380436D01*
X465474D01*
X454771Y399606D02*
X451772D01*
Y401606D01*
X454771Y404605D02*
Y402605D01*
X451772D01*
Y404605D01*
X453271Y402605D02*
Y403605D01*
X454771Y405604D02*
X451772D01*
Y407104D01*
X452272Y407604D01*
X454271D01*
X454771Y407104D01*
Y405604D01*
Y410603D02*
X454271Y409603D01*
X453271Y408603D01*
X452272D01*
X451772Y409103D01*
Y410103D01*
X452272Y410603D01*
X452771D01*
X453271Y410103D01*
Y408603D01*
X454771Y162402D02*
X451772D01*
Y164401D01*
X454771Y167400D02*
Y165401D01*
X451772D01*
Y167400D01*
X453271Y165401D02*
Y166400D01*
X454771Y168400D02*
X451772D01*
Y169899D01*
X452272Y170399D01*
X454271D01*
X454771Y169899D01*
Y168400D01*
Y173398D02*
Y171399D01*
X453271D01*
X453771Y172398D01*
Y172898D01*
X453271Y173398D01*
X452272D01*
X451772Y172898D01*
Y171898D01*
X452272Y171399D01*
X454771Y357283D02*
X451772D01*
Y359283D01*
X454771Y362282D02*
Y360282D01*
X451772D01*
Y362282D01*
X453271Y360282D02*
Y361282D01*
X454771Y363281D02*
X451772D01*
Y364781D01*
X452272Y365281D01*
X454271D01*
X454771Y364781D01*
Y363281D01*
X451772Y367780D02*
X454771D01*
X453271Y366281D01*
Y368280D01*
D14*
X471654Y245669D02*
G03*
X471654Y245669I-787J0D01*
G01*
X471441Y214961D02*
G03*
X471441Y214961I-787J0D01*
G01*
D16*
X442582Y430768D02*
X447182D01*
X442582Y426568D02*
Y430768D01*
X447182Y419568D02*
Y423768D01*
X442582Y419568D02*
X447182D01*
Y426568D02*
Y430768D01*
X442582Y419568D02*
Y423768D01*
X489823Y407149D02*
Y411749D01*
X485623D02*
X489823D01*
X478623Y407149D02*
X482823D01*
X478623D02*
Y411749D01*
X485623Y407149D02*
X489823D01*
X478623Y411749D02*
X482823D01*
X489823Y415023D02*
Y419623D01*
X485623D02*
X489823D01*
X478623Y415023D02*
X482823D01*
X478623D02*
Y419623D01*
X485623Y415023D02*
X489823D01*
X478623Y419623D02*
X482823D01*
X489823Y363842D02*
Y368442D01*
X485623D02*
X489823D01*
X478623Y363842D02*
X482823D01*
X478623D02*
Y368442D01*
X485623Y363842D02*
X489823D01*
X478623Y368442D02*
X482823D01*
X489823Y371716D02*
Y376316D01*
X485623D02*
X489823D01*
X478623Y371716D02*
X482823D01*
X478623D02*
Y376316D01*
X485623Y371716D02*
X489823D01*
X478623Y376316D02*
X482823D01*
X442582Y387461D02*
X447182D01*
X442582Y383261D02*
Y387461D01*
X447182Y376261D02*
Y380461D01*
X442582Y376261D02*
X447182D01*
Y383261D02*
Y387461D01*
X442582Y376261D02*
Y380461D01*
X489823Y166991D02*
Y171591D01*
X485623D02*
X489823D01*
X478623Y166991D02*
X482823D01*
X478623D02*
Y171591D01*
X485623Y166991D02*
X489823D01*
X478623Y171591D02*
X482823D01*
X489823Y174865D02*
Y179465D01*
X485623D02*
X489823D01*
X478623Y174865D02*
X482823D01*
X478623D02*
Y179465D01*
X485623Y174865D02*
X489823D01*
X478623Y179465D02*
X482823D01*
X442582Y190611D02*
X447182D01*
X442582Y186411D02*
Y190611D01*
X447182Y179411D02*
Y183611D01*
X442582Y179411D02*
X447182D01*
Y186411D02*
Y190611D01*
X442582Y179411D02*
Y183611D01*
X445216Y235102D02*
Y239702D01*
Y235102D02*
X449416D01*
X452216Y239702D02*
X456416D01*
Y235102D02*
Y239702D01*
X445216D02*
X449416D01*
X452216Y235102D02*
X456416D01*
X455965Y265810D02*
Y270410D01*
X451765D02*
X455965D01*
X444765Y265810D02*
X448965D01*
X444765D02*
Y270410D01*
X451765Y265810D02*
X455965D01*
X444765Y270410D02*
X448965D01*
X445610Y216204D02*
Y220804D01*
Y216204D02*
X449810D01*
X452610Y220804D02*
X456810D01*
Y216204D02*
Y220804D01*
X445610D02*
X449810D01*
X452610Y216204D02*
X456810D01*
X445216Y246913D02*
Y251513D01*
Y246913D02*
X449416D01*
X452216Y251513D02*
X456416D01*
Y246913D02*
Y251513D01*
X445216D02*
X449416D01*
X452216Y246913D02*
X456416D01*
X490220Y333405D02*
X494820D01*
Y337605D01*
X490220Y340405D02*
Y344605D01*
X494820D01*
X490220Y333405D02*
Y337605D01*
X494820Y340405D02*
Y344605D01*
D17*
X444882Y396831D02*
D03*
X444882Y353957D02*
D03*
X444882Y158681D02*
D03*
M02*
