G04*
G04 #@! TF.GenerationSoftware,Altium Limited,Altium Designer,20.0.2 (26)*
G04*
G04 Layer_Color=16711935*
%FSLAX25Y25*%
%MOIN*%
G70*
G01*
G75*
%ADD28R,0.05524X0.02769*%
%ADD29R,0.03950X0.04147*%
%ADD30R,0.04147X0.03950*%
%ADD32R,0.06587X0.05367*%
%ADD34R,0.14265X0.05721*%
%ADD37R,0.34265X0.36233*%
%ADD38R,0.12611X0.24422*%
%ADD39R,0.12611X0.24422*%
%ADD40R,0.14973X0.08674*%
%ADD41R,0.08674X0.14973*%
%ADD42C,0.14580*%
%ADD54R,0.26390X0.24422*%
%ADD55R,0.09461X0.05524*%
D28*
X464004Y413386D02*
D03*
X473004Y409646D02*
D03*
Y417126D02*
D03*
X464004Y370079D02*
D03*
X473004Y366339D02*
D03*
Y373819D02*
D03*
X464004Y173228D02*
D03*
X473004Y169488D02*
D03*
Y176969D02*
D03*
D29*
X487381Y409449D02*
D03*
X481123D02*
D03*
X487381Y417323D02*
D03*
X481123D02*
D03*
X487381Y366142D02*
D03*
X481123D02*
D03*
X487381Y374016D02*
D03*
X481123D02*
D03*
X487381Y169291D02*
D03*
X481123D02*
D03*
X487381Y177165D02*
D03*
X481123D02*
D03*
X447659Y237402D02*
D03*
X453916D02*
D03*
X453522Y268110D02*
D03*
X447265D02*
D03*
X448052Y218504D02*
D03*
X454310D02*
D03*
X447659Y249213D02*
D03*
X453916D02*
D03*
D30*
X444882Y428326D02*
D03*
Y422068D02*
D03*
Y385018D02*
D03*
Y378761D02*
D03*
Y188168D02*
D03*
Y181911D02*
D03*
X492520Y335848D02*
D03*
Y342105D02*
D03*
D32*
X444882Y408583D02*
D03*
Y401575D02*
D03*
X444882Y365709D02*
D03*
Y358701D02*
D03*
Y170433D02*
D03*
Y163425D02*
D03*
D34*
X421260Y403150D02*
D03*
Y427559D02*
D03*
Y359449D02*
D03*
Y383858D02*
D03*
Y163779D02*
D03*
Y188189D02*
D03*
D37*
X263779Y160039D02*
D03*
Y469882D02*
D03*
X177165Y160039D02*
D03*
Y469882D02*
D03*
X350394Y160039D02*
D03*
Y469882D02*
D03*
D38*
X125984Y413386D02*
D03*
D39*
Y216535D02*
D03*
D40*
X469291Y481102D02*
D03*
D41*
X456693Y462992D02*
D03*
X481102D02*
D03*
D42*
X492126Y492126D02*
D03*
Y137795D02*
D03*
X137795Y492126D02*
D03*
Y137795D02*
D03*
D54*
X490945Y258661D02*
D03*
X490732Y227953D02*
D03*
D55*
X463386Y249365D02*
D03*
X463402Y267958D02*
D03*
X463173Y218656D02*
D03*
X463190Y237249D02*
D03*
M02*
