G04*
G04 #@! TF.GenerationSoftware,Altium Limited,Altium Designer,20.0.2 (26)*
G04*
G04 Layer_Color=255*
%FSLAX25Y25*%
%MOIN*%
G70*
G01*
G75*
%ADD18R,0.04724X0.01968*%
%ADD19R,0.03150X0.03347*%
%ADD20R,0.03347X0.03150*%
%ADD21R,0.04567X0.05787*%
%ADD22R,0.05787X0.04567*%
%ADD23O,0.08268X0.01575*%
%ADD24R,0.13465X0.04921*%
%ADD25R,0.23622X0.25591*%
%ADD26R,0.04724X0.08661*%
%ADD27R,0.33465X0.35433*%
%ADD46R,0.11811X0.23622*%
%ADD47R,0.11811X0.23622*%
%ADD48R,0.14173X0.07874*%
%ADD49R,0.07874X0.14173*%
%ADD50C,0.13780*%
D18*
X473004Y409646D02*
D03*
Y417126D02*
D03*
X464004Y413386D02*
D03*
X464173Y173228D02*
D03*
X473173Y176969D02*
D03*
Y169488D02*
D03*
X464004Y228346D02*
D03*
X473004Y232087D02*
D03*
Y224606D02*
D03*
D19*
X481123Y232283D02*
D03*
X487381D02*
D03*
X481123Y177165D02*
D03*
X487381D02*
D03*
Y224410D02*
D03*
X481123D02*
D03*
X487381Y417323D02*
D03*
X481123D02*
D03*
X487381Y409449D02*
D03*
X481123D02*
D03*
X487381Y169291D02*
D03*
X481123D02*
D03*
D20*
X444882Y237029D02*
D03*
Y243286D02*
D03*
X506693Y325570D02*
D03*
Y319312D02*
D03*
X503150Y343349D02*
D03*
Y349606D02*
D03*
X495276Y343349D02*
D03*
Y349606D02*
D03*
X487402D02*
D03*
Y343349D02*
D03*
X498032Y325570D02*
D03*
Y319312D02*
D03*
X412205Y370887D02*
D03*
Y377145D02*
D03*
X427165Y457459D02*
D03*
Y451202D02*
D03*
X445669Y456672D02*
D03*
Y450415D02*
D03*
X444882Y428326D02*
D03*
Y422068D02*
D03*
Y188168D02*
D03*
Y181911D02*
D03*
D21*
X405158Y327953D02*
D03*
X412165D02*
D03*
X405158Y270079D02*
D03*
X412165D02*
D03*
X405158Y281102D02*
D03*
X412165D02*
D03*
X405158Y291732D02*
D03*
X412165D02*
D03*
X405158Y302362D02*
D03*
X412165D02*
D03*
X405158Y314961D02*
D03*
X412165D02*
D03*
X405158Y341339D02*
D03*
X412165D02*
D03*
X405158Y353543D02*
D03*
X412165D02*
D03*
D22*
X473228Y335866D02*
D03*
Y342874D02*
D03*
X444882Y170433D02*
D03*
Y163425D02*
D03*
X444882Y408583D02*
D03*
Y401575D02*
D03*
X444882Y225157D02*
D03*
Y218150D02*
D03*
D23*
X466339Y296949D02*
D03*
Y299508D02*
D03*
Y302067D02*
D03*
Y304626D02*
D03*
Y307185D02*
D03*
Y309744D02*
D03*
Y312303D02*
D03*
Y314862D02*
D03*
Y317421D02*
D03*
Y319980D02*
D03*
Y322539D02*
D03*
Y325098D02*
D03*
X439173Y296949D02*
D03*
Y299508D02*
D03*
Y302067D02*
D03*
Y304626D02*
D03*
Y307185D02*
D03*
Y309744D02*
D03*
Y312303D02*
D03*
Y314862D02*
D03*
Y317421D02*
D03*
Y319980D02*
D03*
Y322539D02*
D03*
Y325098D02*
D03*
D24*
X421654Y218898D02*
D03*
Y243307D02*
D03*
X421260Y403150D02*
D03*
Y427559D02*
D03*
Y163779D02*
D03*
Y188189D02*
D03*
D25*
X436221Y494488D02*
D03*
D26*
X426924Y466929D02*
D03*
X445517Y466946D02*
D03*
D27*
X177165Y469882D02*
D03*
Y160039D02*
D03*
X263779D02*
D03*
Y469882D02*
D03*
X350394D02*
D03*
Y160039D02*
D03*
D46*
X125984Y413386D02*
D03*
D47*
Y216535D02*
D03*
D48*
X469291Y481102D02*
D03*
D49*
X456693Y462992D02*
D03*
X481102D02*
D03*
D50*
X492126Y492126D02*
D03*
Y137795D02*
D03*
X137795Y492126D02*
D03*
Y137795D02*
D03*
M02*
