G04*
G04 #@! TF.GenerationSoftware,Altium Limited,Altium Designer,20.0.2 (26)*
G04*
G04 Layer_Color=255*
%FSLAX25Y25*%
%MOIN*%
G70*
G01*
G75*
%ADD18R,0.04724X0.01968*%
%ADD19R,0.03150X0.03347*%
%ADD20R,0.03347X0.03150*%
%ADD22R,0.05787X0.04567*%
%ADD24R,0.13465X0.04921*%
%ADD27R,0.33465X0.35433*%
%ADD46R,0.11811X0.23622*%
%ADD47R,0.11811X0.23622*%
%ADD48R,0.14173X0.07874*%
%ADD49R,0.07874X0.14173*%
%ADD50C,0.13780*%
%ADD52R,0.25591X0.23622*%
%ADD53R,0.08661X0.04724*%
D18*
X464004Y413386D02*
D03*
X473004Y409646D02*
D03*
Y417126D02*
D03*
X464004Y370079D02*
D03*
X473004Y366339D02*
D03*
Y373819D02*
D03*
X464004Y173228D02*
D03*
X473004Y169488D02*
D03*
Y176969D02*
D03*
D19*
X487381Y409449D02*
D03*
X481123D02*
D03*
X487381Y417323D02*
D03*
X481123D02*
D03*
X487381Y366142D02*
D03*
X481123D02*
D03*
X487381Y374016D02*
D03*
X481123D02*
D03*
X487381Y169291D02*
D03*
X481123D02*
D03*
X487381Y177165D02*
D03*
X481123D02*
D03*
X447659Y237402D02*
D03*
X453916D02*
D03*
X453522Y268110D02*
D03*
X447265D02*
D03*
X448052Y218504D02*
D03*
X454310D02*
D03*
X447659Y249213D02*
D03*
X453916D02*
D03*
D20*
X444882Y428326D02*
D03*
Y422068D02*
D03*
Y385018D02*
D03*
Y378761D02*
D03*
Y188168D02*
D03*
Y181911D02*
D03*
X492520Y335848D02*
D03*
Y342105D02*
D03*
D22*
X444882Y408583D02*
D03*
Y401575D02*
D03*
X444882Y365709D02*
D03*
Y358701D02*
D03*
Y170433D02*
D03*
Y163425D02*
D03*
D24*
X421260Y403150D02*
D03*
Y427559D02*
D03*
Y359449D02*
D03*
Y383858D02*
D03*
Y163779D02*
D03*
Y188189D02*
D03*
D27*
X263779Y160039D02*
D03*
Y469882D02*
D03*
X177165Y160039D02*
D03*
Y469882D02*
D03*
X350394Y160039D02*
D03*
Y469882D02*
D03*
D46*
X125984Y413386D02*
D03*
D47*
Y216535D02*
D03*
D48*
X469291Y481102D02*
D03*
D49*
X456693Y462992D02*
D03*
X481102D02*
D03*
D50*
X492126Y492126D02*
D03*
Y137795D02*
D03*
X137795Y492126D02*
D03*
Y137795D02*
D03*
D52*
X490945Y258661D02*
D03*
X490732Y227953D02*
D03*
D53*
X463386Y249365D02*
D03*
X463402Y267958D02*
D03*
X463173Y218656D02*
D03*
X463190Y237249D02*
D03*
M02*
