G04*
G04 #@! TF.GenerationSoftware,Altium Limited,Altium Designer,20.0.2 (26)*
G04*
G04 Layer_Color=128*
%FSLAX25Y25*%
%MOIN*%
G70*
G01*
G75*
%ADD10C,0.01000*%
%ADD11C,0.00394*%
%ADD12C,0.00197*%
%ADD13C,0.00100*%
%ADD14C,0.00800*%
%ADD15C,0.00200*%
D10*
X237402Y455512D02*
G03*
X237402Y455512I-5118J0D01*
G01*
X213779Y174409D02*
G03*
X213779Y174409I-5118J0D01*
G01*
X387008D02*
G03*
X387008Y174409I-5118J0D01*
G01*
X213779Y455512D02*
G03*
X213779Y455512I-5118J0D01*
G01*
X237402Y174409D02*
G03*
X237402Y174409I-5118J0D01*
G01*
X387008Y455512D02*
G03*
X387008Y455512I-5118J0D01*
G01*
X511811Y500000D02*
G03*
X500000Y511811I-11811J0D01*
G01*
X129921D02*
G03*
X118110Y500000I0J-11811D01*
G01*
Y129921D02*
G03*
X129921Y118110I11811J0D01*
G01*
X500000D02*
G03*
X511811Y129921I0J11811D01*
G01*
X129921Y511811D02*
X500000D01*
X118110Y129921D02*
Y500000D01*
X129921Y118110D02*
X500000D01*
X511811Y129921D02*
Y500000D01*
D11*
X446850Y324409D02*
G03*
X446850Y324409I-1969J0D01*
G01*
X471063Y407480D02*
Y419291D01*
X465945Y407480D02*
Y419291D01*
Y407480D02*
X471063D01*
X465945Y419291D02*
X471063D01*
X466114Y179134D02*
X471232D01*
X466114Y167323D02*
X471232D01*
X466114D02*
Y179134D01*
X471232Y167323D02*
Y179134D01*
X447638Y404291D02*
X448819Y405472D01*
X447244Y405079D02*
X448425Y406260D01*
X444882Y403504D02*
Y406653D01*
X443307Y404291D02*
X446457D01*
X443307Y405866D02*
X444882Y404291D01*
X446457Y405866D01*
X443307D02*
X446457D01*
X465945Y407480D02*
X471063D01*
X465945Y419291D02*
X471063D01*
X465945Y407480D02*
Y419291D01*
X471063Y407480D02*
Y419291D01*
X465945Y364173D02*
X471063D01*
X465945Y375984D02*
X471063D01*
X465945Y364173D02*
Y375984D01*
X471063Y364173D02*
Y375984D01*
X447638Y361417D02*
X448819Y362598D01*
X447244Y362205D02*
X448425Y363386D01*
X444882Y360630D02*
Y363779D01*
X443307Y361417D02*
X446457D01*
X443307Y362992D02*
X444882Y361417D01*
X446457Y362992D01*
X443307D02*
X446457D01*
X465945Y167323D02*
X471063D01*
X465945Y179134D02*
X471063D01*
X465945Y167323D02*
Y179134D01*
X471063Y167323D02*
Y179134D01*
X447638Y166142D02*
X448819Y167323D01*
X447244Y166929D02*
X448425Y168110D01*
X444882Y165354D02*
Y168504D01*
X443307Y166142D02*
X446457D01*
X443307Y167717D02*
X444882Y166142D01*
X446457Y167717D01*
X443307D02*
X446457D01*
X440945Y167323D02*
X442126Y166142D01*
X441339Y168110D02*
X442520Y166929D01*
X444882Y165354D02*
Y168504D01*
X443307Y166142D02*
X446457D01*
X444882D02*
X446457Y167717D01*
X443307D02*
X444882Y166142D01*
X443307Y167717D02*
X446457D01*
X440945Y405472D02*
X442126Y404291D01*
X441339Y406260D02*
X442520Y405079D01*
X444882Y403504D02*
Y406653D01*
X443307Y404291D02*
X446457D01*
X444882D02*
X446457Y405866D01*
X443307D02*
X444882Y404291D01*
X443307Y405866D02*
X446457D01*
X441732Y294488D02*
X463779D01*
X441732Y327559D02*
X463779D01*
Y294488D02*
Y327559D01*
X441732Y294488D02*
Y327559D01*
X440945Y222047D02*
X442126Y220866D01*
X441339Y222835D02*
X442520Y221654D01*
X444882Y220079D02*
Y223228D01*
X443307Y220866D02*
X446457D01*
X444882D02*
X446457Y222441D01*
X443307D02*
X444882Y220866D01*
X443307Y222441D02*
X446457D01*
X465945Y234252D02*
X471063D01*
X465945Y222441D02*
X471063D01*
X465945D02*
Y234252D01*
X471063Y222441D02*
Y234252D01*
X476004Y407087D02*
Y419685D01*
X461004Y407087D02*
Y419685D01*
Y407087D02*
X476004D01*
X461004Y419685D02*
X476004D01*
X461173Y179528D02*
X476173D01*
X461173Y166929D02*
X476173D01*
X461173D02*
Y179528D01*
X476173Y166929D02*
Y179528D01*
X461004Y407087D02*
X476004D01*
X461004Y419685D02*
X476004D01*
X461004Y407087D02*
Y419685D01*
X476004Y407087D02*
Y419685D01*
X461004Y363779D02*
X476004D01*
X461004Y376378D02*
X476004D01*
X461004Y363779D02*
Y376378D01*
X476004Y363779D02*
Y376378D01*
X461004Y166929D02*
X476004D01*
X461004Y179528D02*
X476004D01*
X461004Y166929D02*
Y179528D01*
X476004Y166929D02*
Y179528D01*
X461004Y234646D02*
X476004D01*
X461004Y222047D02*
X476004D01*
X461004D02*
Y234646D01*
X476004Y222047D02*
Y234646D01*
D12*
X469882Y413386D02*
G03*
X469882Y413386I-1378J0D01*
G01*
X470051Y173228D02*
G03*
X470051Y173228I-1378J0D01*
G01*
X469882Y413386D02*
G03*
X469882Y413386I-1378J0D01*
G01*
Y370079D02*
G03*
X469882Y370079I-1378J0D01*
G01*
Y173228D02*
G03*
X469882Y173228I-1378J0D01*
G01*
Y228346D02*
G03*
X469882Y228346I-1378J0D01*
G01*
X468504Y411417D02*
Y415354D01*
X466535Y413386D02*
X470472D01*
X466705Y173228D02*
X470642D01*
X468673Y171260D02*
Y175197D01*
X466535Y413386D02*
X470472D01*
X468504Y411417D02*
Y415354D01*
X466535Y370079D02*
X470472D01*
X468504Y368110D02*
Y372047D01*
X466535Y173228D02*
X470472D01*
X468504Y171260D02*
Y175197D01*
X466535Y228346D02*
X470472D01*
X468504Y226378D02*
Y230315D01*
D13*
X484753Y232228D02*
G03*
X484753Y232228I-500J0D01*
G01*
X445437Y240159D02*
G03*
X445437Y240159I-500J0D01*
G01*
X484753Y177110D02*
G03*
X484753Y177110I-500J0D01*
G01*
X507248Y322442D02*
G03*
X507248Y322442I-500J0D01*
G01*
X503594Y346476D02*
G03*
X503594Y346476I-500J0D01*
G01*
X495720D02*
G03*
X495720Y346476I-500J0D01*
G01*
X487957Y346479D02*
G03*
X487957Y346479I-500J0D01*
G01*
X498587Y322442D02*
G03*
X498587Y322442I-500J0D01*
G01*
X445327Y425198D02*
G03*
X445327Y425198I-500J0D01*
G01*
X484753Y409504D02*
G03*
X484753Y409504I-500J0D01*
G01*
Y417378D02*
G03*
X484753Y417378I-500J0D01*
G01*
Y366197D02*
G03*
X484753Y366197I-500J0D01*
G01*
Y374071D02*
G03*
X484753Y374071I-500J0D01*
G01*
X445327Y381891D02*
G03*
X445327Y381891I-500J0D01*
G01*
X484753Y169346D02*
G03*
X484753Y169346I-500J0D01*
G01*
Y177220D02*
G03*
X484753Y177220I-500J0D01*
G01*
X445327Y185041D02*
G03*
X445327Y185041I-500J0D01*
G01*
X412650Y374014D02*
G03*
X412650Y374014I-500J0D01*
G01*
X451286Y237347D02*
G03*
X451286Y237347I-500J0D01*
G01*
X450895Y268165D02*
G03*
X450895Y268165I-500J0D01*
G01*
X451680Y218449D02*
G03*
X451680Y218449I-500J0D01*
G01*
X451286Y249158D02*
G03*
X451286Y249158I-500J0D01*
G01*
X493075Y338975D02*
G03*
X493075Y338975I-500J0D01*
G01*
X427720Y454332D02*
G03*
X427720Y454332I-500J0D01*
G01*
X446224Y453545D02*
G03*
X446224Y453545I-500J0D01*
G01*
X484753Y224354D02*
G03*
X484753Y224354I-500J0D01*
G01*
Y417268D02*
G03*
X484753Y417268I-500J0D01*
G01*
Y409394D02*
G03*
X484753Y409394I-500J0D01*
G01*
X445437Y425198D02*
G03*
X445437Y425198I-500J0D01*
G01*
X484753Y169236D02*
G03*
X484753Y169236I-500J0D01*
G01*
X445437Y185041D02*
G03*
X445437Y185041I-500J0D01*
G01*
X484253Y231441D02*
Y233016D01*
X483466Y232228D02*
X485041D01*
X444150Y240159D02*
X445724D01*
X444937Y239371D02*
Y240946D01*
X484253Y176323D02*
Y177898D01*
X483466Y177110D02*
X485041D01*
X506748Y321655D02*
Y323230D01*
X505961Y322442D02*
X507535D01*
X503094Y345689D02*
Y347264D01*
X502307Y346476D02*
X503882D01*
X495221Y345689D02*
Y347264D01*
X494433Y346476D02*
X496008D01*
X487457Y345691D02*
Y347266D01*
X486669Y346479D02*
X488244D01*
X498087Y321655D02*
Y323230D01*
X497299Y322442D02*
X498874D01*
X444827Y424411D02*
Y425985D01*
X444039Y425198D02*
X445614D01*
X483466Y409504D02*
X485041D01*
X484253Y408716D02*
Y410291D01*
X483466Y417378D02*
X485041D01*
X484253Y416590D02*
Y418165D01*
X483466Y366197D02*
X485041D01*
X484253Y365409D02*
Y366984D01*
X483466Y374071D02*
X485041D01*
X484253Y373284D02*
Y374858D01*
X444827Y381104D02*
Y382678D01*
X444039Y381891D02*
X445614D01*
X483466Y169346D02*
X485041D01*
X484253Y168559D02*
Y170134D01*
X483466Y177220D02*
X485041D01*
X484253Y176433D02*
Y178008D01*
X444827Y184253D02*
Y185828D01*
X444039Y185041D02*
X445614D01*
X412150Y373227D02*
Y374802D01*
X411362Y374014D02*
X412937D01*
X449999Y237347D02*
X451574D01*
X450786Y236559D02*
Y238134D01*
X449608Y268165D02*
X451182D01*
X450395Y267378D02*
Y268953D01*
X450392Y218449D02*
X451967D01*
X451180Y217661D02*
Y219236D01*
X449999Y249158D02*
X451574D01*
X450786Y248370D02*
Y249945D01*
X492575Y338188D02*
Y339763D01*
X491787Y338975D02*
X493362D01*
X427220Y453545D02*
Y455119D01*
X426433Y454332D02*
X428008D01*
X445724Y452757D02*
Y454332D01*
X444937Y453545D02*
X446512D01*
X483466Y224354D02*
X485041D01*
X484253Y223567D02*
Y225142D01*
X483466Y417268D02*
X485041D01*
X484253Y416480D02*
Y418055D01*
X483466Y409394D02*
X485041D01*
X484253Y408606D02*
Y410181D01*
X444937Y424411D02*
Y425985D01*
X444150Y425198D02*
X445724D01*
X483466Y169236D02*
X485041D01*
X484253Y168449D02*
Y170024D01*
X444937Y184253D02*
Y185828D01*
X444150Y185041D02*
X445724D01*
D14*
X442913Y395236D02*
X446850D01*
X442913Y414921D02*
X446850D01*
X444882Y412953D02*
Y416890D01*
X442913Y352362D02*
X446850D01*
X442913Y372047D02*
X446850D01*
X444882Y370079D02*
Y374016D01*
X442913Y157087D02*
X446850D01*
X442913Y176772D02*
X446850D01*
X444882Y174803D02*
Y178740D01*
X442913Y157087D02*
X446850D01*
X442913Y176772D02*
X446850D01*
X444882Y174803D02*
Y178740D01*
X442913Y395236D02*
X446850D01*
X442913Y414921D02*
X446850D01*
X444882Y412953D02*
Y416890D01*
X442913Y211811D02*
X446850D01*
X442913Y231496D02*
X446850D01*
X444882Y229528D02*
Y233465D01*
D15*
X124213Y413386D02*
X127756D01*
X125984Y411614D02*
Y415158D01*
X124213Y216535D02*
X127756D01*
X125984Y214764D02*
Y218307D01*
X463386Y481102D02*
X475197D01*
X469291Y475197D02*
Y487008D01*
X450787Y462992D02*
X462598D01*
X456693Y457087D02*
Y468898D01*
X475197Y462992D02*
X487008D01*
X481102Y457087D02*
Y468898D01*
X488189Y492126D02*
X496063D01*
X492126Y488189D02*
Y496063D01*
X488189Y137795D02*
X496063D01*
X492126Y133858D02*
Y141732D01*
X133858Y492126D02*
X141732D01*
X137795Y488189D02*
Y496063D01*
X133858Y137795D02*
X141732D01*
X137795Y133858D02*
Y141732D01*
X464951Y499016D02*
X466151D01*
X465551Y498416D02*
Y499616D01*
X460030Y503937D02*
X461230D01*
X460630Y503337D02*
Y504537D01*
X460030Y499016D02*
X461230D01*
X460630Y498416D02*
Y499616D01*
X464951Y503937D02*
X466151D01*
X465551Y503337D02*
Y504537D01*
X469872Y503937D02*
X471072D01*
X470472Y503337D02*
Y504537D01*
X469872Y499016D02*
X471072D01*
X470472Y498416D02*
Y499616D01*
X398022Y499016D02*
X399222D01*
X398622Y498416D02*
Y499616D01*
X393101Y503937D02*
X394301D01*
X393701Y503337D02*
Y504537D01*
X393101Y499016D02*
X394301D01*
X393701Y498416D02*
Y499616D01*
X398022Y503937D02*
X399222D01*
X398622Y503337D02*
Y504537D01*
X402943Y503937D02*
X404143D01*
X403543Y503337D02*
Y504537D01*
X402943Y499016D02*
X404143D01*
X403543Y498416D02*
Y499616D01*
X374400Y499016D02*
X375600D01*
X375000Y498416D02*
Y499616D01*
X369479Y503937D02*
X370679D01*
X370079Y503337D02*
Y504537D01*
X369479Y499016D02*
X370679D01*
X370079Y498416D02*
Y499616D01*
X374400Y503937D02*
X375600D01*
X375000Y503337D02*
Y504537D01*
X379321Y503937D02*
X380521D01*
X379921Y503337D02*
Y504537D01*
X379321Y499016D02*
X380521D01*
X379921Y498416D02*
Y499616D01*
X350778Y499016D02*
X351978D01*
X351378Y498416D02*
Y499616D01*
X345857Y503937D02*
X347057D01*
X346457Y503337D02*
Y504537D01*
X345857Y499016D02*
X347057D01*
X346457Y498416D02*
Y499616D01*
X350778Y503937D02*
X351978D01*
X351378Y503337D02*
Y504537D01*
X355699Y503937D02*
X356899D01*
X356299Y503337D02*
Y504537D01*
X355699Y499016D02*
X356899D01*
X356299Y498416D02*
Y499616D01*
X327156Y499016D02*
X328356D01*
X327756Y498416D02*
Y499616D01*
X322235Y503937D02*
X323435D01*
X322835Y503337D02*
Y504537D01*
X322235Y499016D02*
X323435D01*
X322835Y498416D02*
Y499616D01*
X327156Y503937D02*
X328356D01*
X327756Y503337D02*
Y504537D01*
X332077Y503937D02*
X333277D01*
X332677Y503337D02*
Y504537D01*
X332077Y499016D02*
X333277D01*
X332677Y498416D02*
Y499616D01*
X303534Y499016D02*
X304734D01*
X304134Y498416D02*
Y499616D01*
X298613Y503937D02*
X299813D01*
X299213Y503337D02*
Y504537D01*
X298613Y499016D02*
X299813D01*
X299213Y498416D02*
Y499616D01*
X303534Y503937D02*
X304734D01*
X304134Y503337D02*
Y504537D01*
X308455Y503937D02*
X309655D01*
X309055Y503337D02*
Y504537D01*
X308455Y499016D02*
X309655D01*
X309055Y498416D02*
Y499616D01*
X279912Y499016D02*
X281112D01*
X280512Y498416D02*
Y499616D01*
X274991Y503937D02*
X276190D01*
X275590Y503337D02*
Y504537D01*
X274991Y499016D02*
X276190D01*
X275590Y498416D02*
Y499616D01*
X279912Y503937D02*
X281112D01*
X280512Y503337D02*
Y504537D01*
X284833Y503937D02*
X286033D01*
X285433Y503337D02*
Y504537D01*
X284833Y499016D02*
X286033D01*
X285433Y498416D02*
Y499616D01*
X256290Y499016D02*
X257490D01*
X256890Y498416D02*
Y499616D01*
X251368Y503937D02*
X252569D01*
X251969Y503337D02*
Y504537D01*
X251368Y499016D02*
X252569D01*
X251969Y498416D02*
Y499616D01*
X256290Y503937D02*
X257490D01*
X256890Y503337D02*
Y504537D01*
X261211Y503937D02*
X262411D01*
X261811Y503337D02*
Y504537D01*
X261211Y499016D02*
X262411D01*
X261811Y498416D02*
Y499616D01*
X232668Y499016D02*
X233868D01*
X233268Y498416D02*
Y499616D01*
X227747Y503937D02*
X228946D01*
X228346Y503337D02*
Y504537D01*
X227747Y499016D02*
X228946D01*
X228346Y498416D02*
Y499616D01*
X232668Y503937D02*
X233868D01*
X233268Y503337D02*
Y504537D01*
X237589Y503937D02*
X238789D01*
X238189Y503337D02*
Y504537D01*
X237589Y499016D02*
X238789D01*
X238189Y498416D02*
Y499616D01*
X209046Y499016D02*
X210246D01*
X209646Y498416D02*
Y499616D01*
X204124Y503937D02*
X205324D01*
X204724Y503337D02*
Y504537D01*
X204124Y499016D02*
X205324D01*
X204724Y498416D02*
Y499616D01*
X209046Y503937D02*
X210246D01*
X209646Y503337D02*
Y504537D01*
X213967Y503937D02*
X215167D01*
X214567Y503337D02*
Y504537D01*
X213967Y499016D02*
X215167D01*
X214567Y498416D02*
Y499616D01*
X185424Y499016D02*
X186624D01*
X186024Y498416D02*
Y499616D01*
X180502Y503937D02*
X181702D01*
X181102Y503337D02*
Y504537D01*
X180502Y499016D02*
X181702D01*
X181102Y498416D02*
Y499616D01*
X185424Y503937D02*
X186624D01*
X186024Y503337D02*
Y504537D01*
X190345Y503937D02*
X191545D01*
X190945Y503337D02*
Y504537D01*
X190345Y499016D02*
X191545D01*
X190945Y498416D02*
Y499616D01*
X161802Y499016D02*
X163002D01*
X162402Y498416D02*
Y499616D01*
X156880Y503937D02*
X158080D01*
X157480Y503337D02*
Y504537D01*
X156880Y499016D02*
X158080D01*
X157480Y498416D02*
Y499616D01*
X161802Y503937D02*
X163002D01*
X162402Y503337D02*
Y504537D01*
X166723Y503937D02*
X167923D01*
X167323Y503337D02*
Y504537D01*
X166723Y499016D02*
X167923D01*
X167323Y498416D02*
Y499616D01*
X468888Y125000D02*
X470088D01*
X469488Y124400D02*
Y125600D01*
X463967Y129921D02*
X465167D01*
X464567Y129321D02*
Y130521D01*
X463967Y125000D02*
X465167D01*
X464567Y124400D02*
Y125600D01*
X468888Y129921D02*
X470088D01*
X469488Y129321D02*
Y130521D01*
X473809Y129921D02*
X475009D01*
X474409Y129321D02*
Y130521D01*
X473809Y125000D02*
X475009D01*
X474409Y124400D02*
Y125600D01*
X445266Y125000D02*
X446466D01*
X445866Y124400D02*
Y125600D01*
X440345Y129921D02*
X441545D01*
X440945Y129321D02*
Y130521D01*
X440345Y125000D02*
X441545D01*
X440945Y124400D02*
Y125600D01*
X445266Y129921D02*
X446466D01*
X445866Y129321D02*
Y130521D01*
X450187Y129921D02*
X451387D01*
X450787Y129321D02*
Y130521D01*
X450187Y125000D02*
X451387D01*
X450787Y124400D02*
Y125600D01*
X421644Y125000D02*
X422844D01*
X422244Y124400D02*
Y125600D01*
X416723Y129921D02*
X417923D01*
X417323Y129321D02*
Y130521D01*
X416723Y125000D02*
X417923D01*
X417323Y124400D02*
Y125600D01*
X421644Y129921D02*
X422844D01*
X422244Y129321D02*
Y130521D01*
X426565Y129921D02*
X427765D01*
X427165Y129321D02*
Y130521D01*
X426565Y125000D02*
X427765D01*
X427165Y124400D02*
Y125600D01*
X398022Y125000D02*
X399222D01*
X398622Y124400D02*
Y125600D01*
X393101Y129921D02*
X394301D01*
X393701Y129321D02*
Y130521D01*
X393101Y125000D02*
X394301D01*
X393701Y124400D02*
Y125600D01*
X398022Y129921D02*
X399222D01*
X398622Y129321D02*
Y130521D01*
X402943Y129921D02*
X404143D01*
X403543Y129321D02*
Y130521D01*
X402943Y125000D02*
X404143D01*
X403543Y124400D02*
Y125600D01*
X374400Y125000D02*
X375600D01*
X375000Y124400D02*
Y125600D01*
X369479Y129921D02*
X370679D01*
X370079Y129321D02*
Y130521D01*
X369479Y125000D02*
X370679D01*
X370079Y124400D02*
Y125600D01*
X374400Y129921D02*
X375600D01*
X375000Y129321D02*
Y130521D01*
X379321Y129921D02*
X380521D01*
X379921Y129321D02*
Y130521D01*
X379321Y125000D02*
X380521D01*
X379921Y124400D02*
Y125600D01*
X350778Y125000D02*
X351978D01*
X351378Y124400D02*
Y125600D01*
X345857Y129921D02*
X347057D01*
X346457Y129321D02*
Y130521D01*
X345857Y125000D02*
X347057D01*
X346457Y124400D02*
Y125600D01*
X350778Y129921D02*
X351978D01*
X351378Y129321D02*
Y130521D01*
X355699Y129921D02*
X356899D01*
X356299Y129321D02*
Y130521D01*
X355699Y125000D02*
X356899D01*
X356299Y124400D02*
Y125600D01*
X327156Y125000D02*
X328356D01*
X327756Y124400D02*
Y125600D01*
X322235Y129921D02*
X323435D01*
X322835Y129321D02*
Y130521D01*
X322235Y125000D02*
X323435D01*
X322835Y124400D02*
Y125600D01*
X327156Y129921D02*
X328356D01*
X327756Y129321D02*
Y130521D01*
X332077Y129921D02*
X333277D01*
X332677Y129321D02*
Y130521D01*
X332077Y125000D02*
X333277D01*
X332677Y124400D02*
Y125600D01*
X303534Y125000D02*
X304734D01*
X304134Y124400D02*
Y125600D01*
X298613Y129921D02*
X299813D01*
X299213Y129321D02*
Y130521D01*
X298613Y125000D02*
X299813D01*
X299213Y124400D02*
Y125600D01*
X303534Y129921D02*
X304734D01*
X304134Y129321D02*
Y130521D01*
X308455Y129921D02*
X309655D01*
X309055Y129321D02*
Y130521D01*
X308455Y125000D02*
X309655D01*
X309055Y124400D02*
Y125600D01*
X279912Y125000D02*
X281112D01*
X280512Y124400D02*
Y125600D01*
X274991Y129921D02*
X276190D01*
X275590Y129321D02*
Y130521D01*
X274991Y125000D02*
X276190D01*
X275590Y124400D02*
Y125600D01*
X279912Y129921D02*
X281112D01*
X280512Y129321D02*
Y130521D01*
X284833Y129921D02*
X286033D01*
X285433Y129321D02*
Y130521D01*
X284833Y125000D02*
X286033D01*
X285433Y124400D02*
Y125600D01*
X256290Y125000D02*
X257490D01*
X256890Y124400D02*
Y125600D01*
X251368Y129921D02*
X252569D01*
X251969Y129321D02*
Y130521D01*
X251368Y125000D02*
X252569D01*
X251969Y124400D02*
Y125600D01*
X256290Y129921D02*
X257490D01*
X256890Y129321D02*
Y130521D01*
X261211Y129921D02*
X262411D01*
X261811Y129321D02*
Y130521D01*
X261211Y125000D02*
X262411D01*
X261811Y124400D02*
Y125600D01*
X232668Y125000D02*
X233868D01*
X233268Y124400D02*
Y125600D01*
X227747Y129921D02*
X228946D01*
X228346Y129321D02*
Y130521D01*
X227747Y125000D02*
X228946D01*
X228346Y124400D02*
Y125600D01*
X232668Y129921D02*
X233868D01*
X233268Y129321D02*
Y130521D01*
X237589Y129921D02*
X238789D01*
X238189Y129321D02*
Y130521D01*
X237589Y125000D02*
X238789D01*
X238189Y124400D02*
Y125600D01*
X209046Y125000D02*
X210246D01*
X209646Y124400D02*
Y125600D01*
X204124Y129921D02*
X205324D01*
X204724Y129321D02*
Y130521D01*
X204124Y125000D02*
X205324D01*
X204724Y124400D02*
Y125600D01*
X209046Y129921D02*
X210246D01*
X209646Y129321D02*
Y130521D01*
X213967Y129921D02*
X215167D01*
X214567Y129321D02*
Y130521D01*
X213967Y125000D02*
X215167D01*
X214567Y124400D02*
Y125600D01*
X185424Y125000D02*
X186624D01*
X186024Y124400D02*
Y125600D01*
X180502Y129921D02*
X181702D01*
X181102Y129321D02*
Y130521D01*
X180502Y125000D02*
X181702D01*
X181102Y124400D02*
Y125600D01*
X185424Y129921D02*
X186624D01*
X186024Y129321D02*
Y130521D01*
X190345Y129921D02*
X191545D01*
X190945Y129321D02*
Y130521D01*
X190345Y125000D02*
X191545D01*
X190945Y124400D02*
Y125600D01*
X161802Y125000D02*
X163002D01*
X162402Y124400D02*
Y125600D01*
X156880Y129921D02*
X158080D01*
X157480Y129321D02*
Y130521D01*
X156880Y125000D02*
X158080D01*
X157480Y124400D02*
Y125600D01*
X161802Y129921D02*
X163002D01*
X162402Y129321D02*
Y130521D01*
X166723Y129921D02*
X167923D01*
X167323Y129321D02*
Y130521D01*
X166723Y125000D02*
X167923D01*
X167323Y124400D02*
Y125600D01*
X385227Y390748D02*
X386427D01*
X385827Y390148D02*
Y391348D01*
X380306Y390748D02*
X381505D01*
X380906Y390148D02*
Y391348D01*
X380306Y385827D02*
X381505D01*
X380906Y385227D02*
Y386427D01*
X385227Y380906D02*
X386427D01*
X385827Y380306D02*
Y381505D01*
X380306Y380906D02*
X381505D01*
X380906Y380306D02*
Y381505D01*
X385227Y385827D02*
X386427D01*
X385827Y385227D02*
Y386427D01*
X374400Y390748D02*
X375600D01*
X375000Y390148D02*
Y391348D01*
X369479Y390748D02*
X370679D01*
X370079Y390148D02*
Y391348D01*
X369479Y385827D02*
X370679D01*
X370079Y385227D02*
Y386427D01*
X374400Y380906D02*
X375600D01*
X375000Y380306D02*
Y381505D01*
X369479Y380906D02*
X370679D01*
X370079Y380306D02*
Y381505D01*
X374400Y385827D02*
X375600D01*
X375000Y385227D02*
Y386427D01*
X363573Y390748D02*
X364773D01*
X364173Y390148D02*
Y391348D01*
X358652Y390748D02*
X359852D01*
X359252Y390148D02*
Y391348D01*
X358652Y385827D02*
X359852D01*
X359252Y385227D02*
Y386427D01*
X363573Y380906D02*
X364773D01*
X364173Y380306D02*
Y381505D01*
X358652Y380906D02*
X359852D01*
X359252Y380306D02*
Y381505D01*
X363573Y385827D02*
X364773D01*
X364173Y385227D02*
Y386427D01*
X352747Y390748D02*
X353946D01*
X353346Y390148D02*
Y391348D01*
X347825Y390748D02*
X349025D01*
X348425Y390148D02*
Y391348D01*
X347825Y385827D02*
X349025D01*
X348425Y385227D02*
Y386427D01*
X352747Y380906D02*
X353946D01*
X353346Y380306D02*
Y381505D01*
X347825Y380906D02*
X349025D01*
X348425Y380306D02*
Y381505D01*
X352747Y385827D02*
X353946D01*
X353346Y385227D02*
Y386427D01*
X332077Y390748D02*
X333277D01*
X332677Y390148D02*
Y391348D01*
X327156Y390748D02*
X328356D01*
X327756Y390148D02*
Y391348D01*
X327156Y385827D02*
X328356D01*
X327756Y385227D02*
Y386427D01*
X332077Y380906D02*
X333277D01*
X332677Y380306D02*
Y381505D01*
X327156Y380906D02*
X328356D01*
X327756Y380306D02*
Y381505D01*
X332077Y385827D02*
X333277D01*
X332677Y385227D02*
Y386427D01*
X341920Y390748D02*
X343120D01*
X342520Y390148D02*
Y391348D01*
X336998Y390748D02*
X338198D01*
X337598Y390148D02*
Y391348D01*
X336998Y385827D02*
X338198D01*
X337598Y385227D02*
Y386427D01*
X341920Y380906D02*
X343120D01*
X342520Y380306D02*
Y381505D01*
X336998Y380906D02*
X338198D01*
X337598Y380306D02*
Y381505D01*
X341920Y385827D02*
X343120D01*
X342520Y385227D02*
Y386427D01*
X321250Y390748D02*
X322450D01*
X321850Y390148D02*
Y391348D01*
X316329Y390748D02*
X317529D01*
X316929Y390148D02*
Y391348D01*
X316329Y385827D02*
X317529D01*
X316929Y385227D02*
Y386427D01*
X321250Y380906D02*
X322450D01*
X321850Y380306D02*
Y381505D01*
X316329Y380906D02*
X317529D01*
X316929Y380306D02*
Y381505D01*
X321250Y385827D02*
X322450D01*
X321850Y385227D02*
Y386427D01*
X432865Y392126D02*
X434065D01*
X433465Y391526D02*
Y392726D01*
X298613Y390748D02*
X299813D01*
X299213Y390148D02*
Y391348D01*
X293691Y390748D02*
X294891D01*
X294291Y390148D02*
Y391348D01*
X293691Y385827D02*
X294891D01*
X294291Y385227D02*
Y386427D01*
X298613Y380906D02*
X299813D01*
X299213Y380306D02*
Y381505D01*
X293691Y380906D02*
X294891D01*
X294291Y380306D02*
Y381505D01*
X298613Y385827D02*
X299813D01*
X299213Y385227D02*
Y386427D01*
X211014Y224410D02*
X212214D01*
X211614Y223810D02*
Y225009D01*
X206093Y229331D02*
X207293D01*
X206693Y228731D02*
Y229931D01*
X206093Y224410D02*
X207293D01*
X206693Y223810D02*
Y225009D01*
X206093Y219488D02*
X207293D01*
X206693Y218888D02*
Y220088D01*
X211014Y219488D02*
X212214D01*
X211614Y218888D02*
Y220088D01*
X211014Y229331D02*
X212214D01*
X211614Y228731D02*
Y229931D01*
X196250Y224410D02*
X197450D01*
X196850Y223810D02*
Y225009D01*
X186408Y219488D02*
X187608D01*
X187008Y218888D02*
Y220088D01*
X191329Y219488D02*
X192529D01*
X191929Y218888D02*
Y220088D01*
X196250Y219488D02*
X197450D01*
X196850Y218888D02*
Y220088D01*
X201172Y219488D02*
X202372D01*
X201772Y218888D02*
Y220088D01*
X201172Y224410D02*
X202372D01*
X201772Y223810D02*
Y225009D01*
X191329Y224410D02*
X192529D01*
X191929Y223810D02*
Y225009D01*
X186408Y224410D02*
X187608D01*
X187008Y223810D02*
Y225009D01*
X186408Y229331D02*
X187608D01*
X187008Y228731D02*
Y229931D01*
X191329Y229331D02*
X192529D01*
X191929Y228731D02*
Y229931D01*
X196250Y229331D02*
X197450D01*
X196850Y228731D02*
Y229931D01*
X201172Y229331D02*
X202372D01*
X201772Y228731D02*
Y229931D01*
X165739Y223425D02*
X166939D01*
X166339Y222825D02*
Y224025D01*
X160817Y228346D02*
X162017D01*
X161417Y227747D02*
Y228946D01*
X160817Y223425D02*
X162017D01*
X161417Y222825D02*
Y224025D01*
X160817Y218504D02*
X162017D01*
X161417Y217904D02*
Y219104D01*
X165739Y218504D02*
X166939D01*
X166339Y217904D02*
Y219104D01*
X165739Y228346D02*
X166939D01*
X166339Y227747D02*
Y228946D01*
X170660Y228346D02*
X171860D01*
X171260Y227747D02*
Y228946D01*
X170660Y223425D02*
X171860D01*
X171260Y222825D02*
Y224025D01*
X170660Y218504D02*
X171860D01*
X171260Y217904D02*
Y219104D01*
X191329Y185039D02*
X192529D01*
X191929Y184439D02*
Y185639D01*
X186408Y194882D02*
X187608D01*
X187008Y194282D02*
Y195482D01*
X186408Y189961D02*
X187608D01*
X187008Y189361D02*
Y190561D01*
X186408Y185039D02*
X187608D01*
X187008Y184439D02*
Y185639D01*
X191329Y189961D02*
X192529D01*
X191929Y189361D02*
Y190561D01*
X191329Y194882D02*
X192529D01*
X191929Y194282D02*
Y195482D01*
X196250Y194882D02*
X197450D01*
X196850Y194282D02*
Y195482D01*
X196250Y189961D02*
X197450D01*
X196850Y189361D02*
Y190561D01*
X196250Y185039D02*
X197450D01*
X196850Y184439D02*
Y185639D01*
X165739Y185039D02*
X166939D01*
X166339Y184439D02*
Y185639D01*
X160817Y194882D02*
X162017D01*
X161417Y194282D02*
Y195482D01*
X160817Y189961D02*
X162017D01*
X161417Y189361D02*
Y190561D01*
X160817Y185039D02*
X162017D01*
X161417Y184439D02*
Y185639D01*
X165739Y189961D02*
X166939D01*
X166339Y189361D02*
Y190561D01*
X165739Y194882D02*
X166939D01*
X166339Y194282D02*
Y195482D01*
X170660Y194882D02*
X171860D01*
X171260Y194282D02*
Y195482D01*
X170660Y189961D02*
X171860D01*
X171260Y189361D02*
Y190561D01*
X170660Y185039D02*
X171860D01*
X171260Y184439D02*
Y185639D01*
X165739Y204724D02*
X166939D01*
X166339Y204124D02*
Y205324D01*
X160817Y214567D02*
X162017D01*
X161417Y213967D02*
Y215167D01*
X160817Y209646D02*
X162017D01*
X161417Y209046D02*
Y210246D01*
X160817Y204724D02*
X162017D01*
X161417Y204124D02*
Y205324D01*
X160817Y199803D02*
X162017D01*
X161417Y199203D02*
Y200403D01*
X165739Y199803D02*
X166939D01*
X166339Y199203D02*
Y200403D01*
X165739Y209646D02*
X166939D01*
X166339Y209046D02*
Y210246D01*
X165739Y214567D02*
X166939D01*
X166339Y213967D02*
Y215167D01*
X170660Y214567D02*
X171860D01*
X171260Y213967D02*
Y215167D01*
X170660Y209646D02*
X171860D01*
X171260Y209046D02*
Y210246D01*
X170660Y204724D02*
X171860D01*
X171260Y204124D02*
Y205324D01*
X170660Y199803D02*
X171860D01*
X171260Y199203D02*
Y200403D01*
X191329Y204724D02*
X192529D01*
X191929Y204124D02*
Y205324D01*
X186408Y214567D02*
X187608D01*
X187008Y213967D02*
Y215167D01*
X186408Y209646D02*
X187608D01*
X187008Y209046D02*
Y210246D01*
X186408Y204724D02*
X187608D01*
X187008Y204124D02*
Y205324D01*
X186408Y199803D02*
X187608D01*
X187008Y199203D02*
Y200403D01*
X191329Y199803D02*
X192529D01*
X191929Y199203D02*
Y200403D01*
X191329Y209646D02*
X192529D01*
X191929Y209046D02*
Y210246D01*
X191329Y214567D02*
X192529D01*
X191929Y213967D02*
Y215167D01*
X196250Y214567D02*
X197450D01*
X196850Y213967D02*
Y215167D01*
X196250Y209646D02*
X197450D01*
X196850Y209046D02*
Y210246D01*
X196250Y204724D02*
X197450D01*
X196850Y204124D02*
Y205324D01*
X196250Y199803D02*
X197450D01*
X196850Y199203D02*
Y200403D01*
X206093Y204724D02*
X207293D01*
X206693Y204124D02*
Y205324D01*
X201172Y214567D02*
X202372D01*
X201772Y213967D02*
Y215167D01*
X201172Y209646D02*
X202372D01*
X201772Y209046D02*
Y210246D01*
X201172Y204724D02*
X202372D01*
X201772Y204124D02*
Y205324D01*
X201172Y199803D02*
X202372D01*
X201772Y199203D02*
Y200403D01*
X206093Y199803D02*
X207293D01*
X206693Y199203D02*
Y200403D01*
X206093Y209646D02*
X207293D01*
X206693Y209046D02*
Y210246D01*
X206093Y214567D02*
X207293D01*
X206693Y213967D02*
Y215167D01*
X211014Y214567D02*
X212214D01*
X211614Y213967D02*
Y215167D01*
X211014Y209646D02*
X212214D01*
X211614Y209046D02*
Y210246D01*
X211014Y204724D02*
X212214D01*
X211614Y204124D02*
Y205324D01*
X211014Y199803D02*
X212214D01*
X211614Y199203D02*
Y200403D01*
X206093Y185039D02*
X207293D01*
X206693Y184439D02*
Y185639D01*
X201172Y194882D02*
X202372D01*
X201772Y194282D02*
Y195482D01*
X201172Y189961D02*
X202372D01*
X201772Y189361D02*
Y190561D01*
X201172Y185039D02*
X202372D01*
X201772Y184439D02*
Y185639D01*
X206093Y189961D02*
X207293D01*
X206693Y189361D02*
Y190561D01*
X206093Y194882D02*
X207293D01*
X206693Y194282D02*
Y195482D01*
X211014Y194882D02*
X212214D01*
X211614Y194282D02*
Y195482D01*
X211014Y189961D02*
X212214D01*
X211614Y189361D02*
Y190561D01*
X211014Y185039D02*
X212214D01*
X211614Y184439D02*
Y185639D01*
X412392Y456299D02*
X413592D01*
X412992Y455699D02*
Y456899D01*
X397431Y335039D02*
X398632D01*
X398031Y334439D02*
Y335639D01*
X505305Y306693D02*
X506505D01*
X505905Y306093D02*
Y307293D01*
X505305Y149213D02*
X506505D01*
X505905Y148613D02*
Y149813D01*
X497432Y294094D02*
X498631D01*
X498032Y293495D02*
Y294694D01*
X491920Y307087D02*
X493120D01*
X492520Y306487D02*
Y307687D01*
X435620Y347638D02*
X436821D01*
X436221Y347038D02*
Y348238D01*
X463573Y255512D02*
X464773D01*
X464173Y254912D02*
Y256112D01*
X480502Y357874D02*
X481702D01*
X481102Y357274D02*
Y358474D01*
X497432Y357874D02*
X498631D01*
X498032Y357274D02*
Y358474D01*
X497432Y299213D02*
X498631D01*
X498032Y298613D02*
Y299813D01*
X442707Y280709D02*
X443907D01*
X443307Y280109D02*
Y281309D01*
X450581Y280709D02*
X451781D01*
X451181Y280109D02*
Y281309D01*
X480502Y425984D02*
X481702D01*
X481102Y425384D02*
Y426584D01*
X501369Y409449D02*
X502568D01*
X501968Y408849D02*
Y410049D01*
X501369Y387008D02*
X502568D01*
X501968Y386408D02*
Y387608D01*
X501369Y306693D02*
X502568D01*
X501968Y306093D02*
Y307293D01*
X441920Y268110D02*
X443120D01*
X442520Y267510D02*
Y268710D01*
X415542Y262205D02*
X416742D01*
X416142Y261605D02*
Y262805D01*
X456093Y232283D02*
X457293D01*
X456693Y231683D02*
Y232884D01*
X480502Y184646D02*
X481702D01*
X481102Y184046D02*
Y185246D01*
X491526Y409055D02*
X492726D01*
X492126Y408455D02*
Y409655D01*
X453337Y350787D02*
X454537D01*
X453937Y350187D02*
Y351387D01*
X446250Y309449D02*
X447450D01*
X446850Y308849D02*
Y310049D01*
X486802Y298425D02*
X488002D01*
X487402Y297825D02*
Y299025D01*
X446250Y322835D02*
X447450D01*
X446850Y322235D02*
Y323435D01*
X446250Y314567D02*
X447450D01*
X446850Y313967D02*
Y315167D01*
X456093Y255906D02*
X457293D01*
X456693Y255306D02*
Y256505D01*
X442116Y249213D02*
X443317D01*
X442717Y248613D02*
Y249813D01*
X437195Y251969D02*
X438395D01*
X437795Y251368D02*
Y252569D01*
X404518Y262205D02*
X405718D01*
X405118Y261605D02*
Y262805D01*
X486802Y338583D02*
X488002D01*
X487402Y337983D02*
Y339183D01*
X486802Y325590D02*
X488002D01*
X487402Y324991D02*
Y326190D01*
M02*
